<svg width="20" height="20" viewBox="0 0 20 20" fill="none" xmlns="http://www.w3.org/2000/svg">
<g clip-path="url(#clip0_47_1176)">
<path d="M19.8154 9.06881L10.4035 0.652449C10.3871 0.635995 10.3706 0.623654 10.35 0.611314C10.1444 0.413863 9.81528 0.405635 9.59726 0.598973L0.185423 9.01533C-0.0449372 9.22101 -0.0613915 9.57066 0.140173 9.80102C0.25124 9.92443 0.403442 9.98613 0.555644 9.98613C0.687278 9.98613 0.818912 9.94088 0.925865 9.84627L2.62065 8.32837V8.62454V13.0178V18.1433C2.62065 18.9126 3.24592 19.542 4.01927 19.542C4.03161 19.542 4.03984 19.542 4.05218 19.542C4.06452 19.542 4.07274 19.542 4.08508 19.542H6.98926C7.71325 19.542 8.30149 18.9537 8.30149 18.2297V13.24C8.30149 13.1289 8.39199 13.0384 8.50306 13.0384H11.5018C11.6129 13.0384 11.7034 13.1289 11.7034 13.24V18.2297C11.7034 18.9537 12.2916 19.542 13.0156 19.542H15.9856C16.7672 19.542 17.3842 18.7727 17.3842 17.7896V13.2153V11.8167V8.38184L19.079 9.89975C19.186 9.99436 19.3176 10.0396 19.4493 10.0396C19.6015 10.0396 19.7537 9.97791 19.8647 9.8545C20.0622 9.62414 20.0416 9.27449 19.8154 9.06881ZM16.2695 11.8126V13.2112V17.7813C16.2695 18.1804 16.072 18.4231 15.9815 18.4231H13.0115C12.9005 18.4231 12.81 18.3326 12.81 18.2215V13.24C12.81 12.516 12.2217 11.9277 11.4977 11.9277H8.49894C7.77495 11.9277 7.18671 12.516 7.18671 13.24V18.2297C7.18671 18.3408 7.09622 18.4313 6.98515 18.4313H4.08097C4.06863 18.4313 4.0604 18.4313 4.04806 18.4313C4.03572 18.4313 4.02749 18.4313 4.01515 18.4313C3.85884 18.4313 3.7272 18.3038 3.7272 18.1433V13.0137V8.62043V7.33288L9.9716 1.75489L16.2695 7.38636V11.8126Z" fill="#999999"/>
</g>
<defs>
<clipPath id="clip0_47_1176">
<rect width="20" height="20" fill="white"/>
</clipPath>
</defs>
</svg>
