<svg width="20" height="20" viewBox="0 0 20 20" fill="none" xmlns="http://www.w3.org/2000/svg">
<g clip-path="url(#clip0_46_352)">
<path d="M10 0C4.48601 0 0 4.48601 0 10.0001C0 15.5141 4.48601 20 10 20C15.514 20 20 15.514 20 10C20 4.48595 15.514 0 10 0ZM10 18.3175C5.41372 18.3175 1.68246 14.5863 1.68246 10.0001C1.68246 5.41377 5.41372 1.68246 10 1.68246C14.5863 1.68246 18.3175 5.41372 18.3175 10.0001C18.3175 14.5864 14.5863 18.3175 10 18.3175Z" fill="#999999"/>
<path d="M10 3.75488C8.00463 3.75488 6.38123 5.37829 6.38123 7.37369C6.38123 7.83828 6.75787 8.21492 7.22246 8.21492C7.68704 8.21492 8.06369 7.83828 8.06369 7.37369C8.06369 6.306 8.93234 5.43735 10 5.43735C11.0677 5.43735 11.9364 6.306 11.9364 7.37369C11.9364 8.44138 11.0677 9.31004 10 9.31004C9.53545 9.31004 9.1588 9.68669 9.1588 10.1513V12.0533C9.1588 12.5179 9.53545 12.8945 10 12.8945C10.4646 12.8945 10.8413 12.5179 10.8413 12.0533V10.8938C12.4324 10.5136 13.6188 9.07954 13.6188 7.37364C13.6188 5.37829 11.9954 3.75488 10 3.75488Z" fill="#999999"/>
<path d="M10.0001 16.0897C10.6505 16.0897 11.1777 15.5625 11.1777 14.912C11.1777 14.2616 10.6505 13.7344 10.0001 13.7344C9.34965 13.7344 8.82239 14.2616 8.82239 14.912C8.82239 15.5625 9.34965 16.0897 10.0001 16.0897Z" fill="#999999"/>
</g>
<defs>
<clipPath id="clip0_46_352">
<rect width="20" height="20" fill="white"/>
</clipPath>
</defs>
</svg>
