<svg width="20" height="20" viewBox="0 0 20 20" fill="none" xmlns="http://www.w3.org/2000/svg">
<path d="M2.38095 7.61914C1.0681 7.61914 0 8.68724 0 10.0001C0 11.313 1.0681 12.381 2.38095 12.381C3.69381 12.381 4.7619 11.313 4.7619 10.0001C4.7619 8.68724 3.69381 7.61914 2.38095 7.61914Z" fill="#999999"/>
<path d="M9.99997 7.61914C8.68711 7.61914 7.61902 8.68724 7.61902 10.0001C7.61902 11.313 8.68711 12.381 9.99997 12.381C11.3128 12.381 12.3809 11.313 12.3809 10.0001C12.3809 8.68724 11.3128 7.61914 9.99997 7.61914Z" fill="#999999"/>
<path d="M17.619 7.61914C16.3061 7.61914 15.238 8.68724 15.238 10.0001C15.238 11.313 16.3061 12.381 17.619 12.381C18.9318 12.381 19.9999 11.313 19.9999 10.0001C19.9999 8.68724 18.9318 7.61914 17.619 7.61914Z" fill="#999999"/>
</svg>
