<svg width="20" height="20" viewBox="0 0 20 20" fill="none" xmlns="http://www.w3.org/2000/svg">
<path fill-rule="evenodd" clip-rule="evenodd" d="M10.5987 4.1035L10.6009 2L18 2.00785L17.9921 9.37013L15.878 9.36782L15.8822 5.5936L12.6643 8.79546C14.0576 10.8413 13.8436 13.6474 12.0222 15.4598C9.95823 17.5134 6.61192 17.5134 4.54797 15.4598C2.48401 13.4061 2.48401 10.0765 4.54797 8.02274C6.34245 6.23722 9.10638 6.00411 11.1539 7.32343L14.386 4.10752L10.5987 4.1035ZM6.04281 9.51012C7.28118 8.278 9.28893 8.278 10.5273 9.51012C11.7657 10.7424 11.7657 12.7402 10.5273 13.9724C9.28893 15.2046 7.28118 15.2046 6.04281 13.9724C4.80444 12.7402 4.80444 10.7424 6.04281 9.51012Z" fill="#999999"/>
</svg>
