<svg width="20" height="20" viewBox="0 0 20 20" fill="none" xmlns="http://www.w3.org/2000/svg">
<path d="M8.5387 7.6747C8.5387 8.48045 9.19426 9.13601 10 9.13601C10.8058 9.13601 11.4613 8.48045 11.4613 7.6747C11.4613 6.86894 10.8058 6.21338 10 6.21338C9.19426 6.21338 8.5387 6.86887 8.5387 7.6747ZM10.6017 7.6747C10.6017 8.00648 10.3318 8.27642 10 8.27642C9.66824 8.27642 9.39829 8.00648 9.39829 7.6747C9.39829 7.34292 9.66824 7.07298 10 7.07298C10.3318 7.07298 10.6017 7.34285 10.6017 7.6747Z" fill="#999999"/>
<path d="M19.5702 6.02222H13.737L10.311 2.43043C10.1417 2.25298 9.8582 2.25304 9.68901 2.43043L6.26301 6.02222H0.429799C0.192377 6.02222 0 6.21466 0 6.45202C0 6.99969 0 16.742 0 17.2724C0 17.5097 0.192377 17.7022 0.429799 17.7022C0.950956 17.7022 19.0483 17.7022 19.5702 17.7022C19.8076 17.7022 20 17.5097 20 17.2724C20 16.7389 20 6.99496 20 6.45202C20 6.21466 19.8076 6.02222 19.5702 6.02222ZM6.01719 16.8426H0.859599V9.57856H6.01719V16.8426ZM6.01719 8.71902H0.859599V6.88181H6.01719V8.71902ZM11.0219 16.8426H8.97801V13.4529H11.0219V16.8426ZM13.1232 16.8426H11.8815V13.0231C11.8815 12.7858 11.6891 12.5933 11.4517 12.5933H8.54821C8.31079 12.5933 8.11841 12.7858 8.11841 13.0231V16.8426H6.87679C6.87679 16.6725 6.87679 6.79166 6.87679 6.62414L10 3.3498L13.1232 6.62414C13.1232 6.79166 13.1232 16.6725 13.1232 16.8426ZM19.1404 16.8426H13.9828V9.57856H19.1404V16.8426ZM19.1404 8.71896H13.9828V6.88175H19.1404V8.71896Z" fill="#999999"/>
<path d="M15.3009 12.635H17.8224C18.0598 12.635 18.2522 12.4425 18.2522 12.2052C18.2522 11.9678 18.0598 11.7754 17.8224 11.7754H15.3009C15.0635 11.7754 14.8711 11.9678 14.8711 12.2052C14.8711 12.4425 15.0635 12.635 15.3009 12.635Z" fill="#999999"/>
<path d="M15.3009 14.6457H17.8224C18.0598 14.6457 18.2522 14.4533 18.2522 14.2159C18.2522 13.9786 18.0598 13.7861 17.8224 13.7861H15.3009C15.0635 13.7861 14.8711 13.9786 14.8711 14.2159C14.8711 14.4534 15.0635 14.6457 15.3009 14.6457Z" fill="#999999"/>
<path d="M2.1776 12.635H4.69909C4.93651 12.635 5.12889 12.4425 5.12889 12.2052C5.12889 11.9678 4.93651 11.7754 4.69909 11.7754H2.1776C1.94018 11.7754 1.7478 11.9678 1.7478 12.2052C1.7478 12.4425 1.94018 12.635 2.1776 12.635Z" fill="#999999"/>
<path d="M2.1776 14.6457H4.69909C4.93651 14.6457 5.12889 14.4533 5.12889 14.2159C5.12889 13.9786 4.93651 13.7861 4.69909 13.7861H2.1776C1.94018 13.7861 1.7478 13.9786 1.7478 14.2159C1.7478 14.4534 1.94018 14.6457 2.1776 14.6457Z" fill="#999999"/>
</svg>
