<svg width="18" height="18" viewBox="0 0 18 18" fill="none" xmlns="http://www.w3.org/2000/svg">
<g clip-path="url(#clip0_38_775)">
<path d="M17.6478 7.97925C17.6809 7.8994 17.6809 7.8094 17.6478 7.72922C17.6311 7.68896 17.6069 7.65264 17.5768 7.6222L13.6499 3.69558C13.5219 3.56762 13.3151 3.56762 13.1871 3.69558C13.0591 3.82355 13.0591 4.03038 13.1871 4.15835L16.5557 7.52696H9.49121C9.31023 7.52696 9.16394 7.67325 9.16394 7.85424C9.16394 8.03522 9.31023 8.18151 9.49121 8.18151H16.5557L13.1871 11.5501C13.0591 11.6781 13.0591 11.8849 13.1871 12.0129C13.2509 12.0767 13.3347 12.1088 13.4185 12.1088C13.5023 12.1088 13.5861 12.0767 13.6499 12.0129L17.5768 8.08595C17.6069 8.05584 17.6311 8.01951 17.6478 7.97925Z" fill="black"/>
<path d="M11.7821 9.49091C11.6011 9.49091 11.4548 9.6372 11.4548 9.81818V15.0545H8.18212V2.61818C8.18212 2.47549 8.08983 2.34949 7.95401 2.30629L2.76281 0.654545H11.4548V5.89091C11.4548 6.07189 11.6011 6.21818 11.7821 6.21818C11.9631 6.21818 12.1094 6.07189 12.1094 5.89091V0.327273C12.1094 0.146291 11.9631 0 11.7821 0H0.654848C0.644376 0 0.635212 0.00490909 0.625067 0.00589091C0.606739 0.00752727 0.590703 0.0117818 0.573357 0.0163636C0.542594 0.0245455 0.515103 0.0356727 0.488594 0.0517091C0.480085 0.0569455 0.469939 0.0569455 0.461757 0.0628364C0.451612 0.0703636 0.443757 0.0798545 0.434594 0.0880364C0.42903 0.0932727 0.423139 0.0978545 0.417903 0.103418C0.39303 0.130255 0.372739 0.160036 0.357685 0.192764C0.354739 0.199309 0.353103 0.205855 0.350485 0.2124C0.336739 0.249055 0.327576 0.287345 0.327576 0.327273V15.3818C0.327576 15.4227 0.337067 15.4613 0.351139 15.498C0.355721 15.5101 0.362594 15.5203 0.368485 15.5317C0.380594 15.5549 0.394339 15.5762 0.411685 15.5959C0.421176 15.6063 0.430667 15.6158 0.441139 15.6253C0.460121 15.642 0.481394 15.6557 0.504303 15.6679C0.516412 15.6744 0.527539 15.6813 0.54063 15.6862C0.546194 15.6881 0.550448 15.6921 0.556012 15.694L7.75601 17.9849C7.78808 17.9948 7.82147 18 7.85485 18C7.92358 18 7.99132 17.9784 8.04794 17.9372C8.13238 17.8756 8.18212 17.7775 8.18212 17.6727V15.7091H11.7821C11.9631 15.7091 12.1094 15.5628 12.1094 15.3818V9.81818C12.1094 9.6372 11.9628 9.49091 11.7821 9.49091ZM7.52758 17.2253L0.982121 15.1426V0.774655L7.52758 2.85742V17.2253Z" fill="black"/>
</g>
<defs>
<clipPath id="clip0_38_775">
<rect width="18" height="18" fill="white"/>
</clipPath>
</defs>
</svg>
