<svg width="18" height="18" viewBox="0 0 18 18" fill="none" xmlns="http://www.w3.org/2000/svg">
<path d="M14.9062 7.59375H8.71875C8.5633 7.59375 8.4375 7.71953 8.4375 7.875C8.4375 8.03045 8.5633 8.15625 8.71875 8.15625H14.9062C15.0617 8.15625 15.1875 8.03045 15.1875 7.875C15.1875 7.71953 15.0617 7.59375 14.9062 7.59375Z" fill="black"/>
<path d="M14.9062 9.84375H8.71875C8.5633 9.84375 8.4375 9.96953 8.4375 10.125C8.4375 10.2804 8.5633 10.4062 8.71875 10.4062H14.9062C15.0617 10.4062 15.1875 10.2804 15.1875 10.125C15.1875 9.96953 15.0617 9.84375 14.9062 9.84375Z" fill="black"/>
<path d="M14.9062 12.0938H8.71875C8.5633 12.0938 8.4375 12.2195 8.4375 12.375C8.4375 12.5304 8.5633 12.6562 8.71875 12.6562H14.9062C15.0617 12.6562 15.1875 12.5304 15.1875 12.375C15.1875 12.2195 15.0617 12.0938 14.9062 12.0938Z" fill="black"/>
<path d="M16.8646 2.25H1.13546C0.508357 2.25 0 2.75833 0 3.38543V14.6145C0 15.2416 0.508357 15.75 1.13546 15.75H16.8646C17.4916 15.75 18 15.2416 18 14.6145V3.38543C18 2.75833 17.4916 2.25 16.8646 2.25ZM17.4375 14.6145C17.4375 14.9305 17.1805 15.1875 16.8646 15.1875H1.13546C0.819532 15.1875 0.5625 14.9305 0.5625 14.6145V3.38543C0.5625 3.06951 0.819532 2.8125 1.13546 2.8125H16.8646C17.1805 2.8125 17.4375 3.06951 17.4375 3.38543V14.6145Z" fill="black"/>
<path d="M5.625 4.5H3.375C2.75369 4.5 2.25 5.00366 2.25 5.625V7.875C2.25 8.49631 2.75369 9 3.375 9H5.625C6.24634 9 6.75 8.49631 6.75 7.875V5.625C6.75 5.00366 6.24634 4.5 5.625 4.5ZM6.1875 7.875C6.1875 8.18513 5.93516 8.4375 5.625 8.4375H3.375C3.06486 8.4375 2.8125 8.18513 2.8125 7.875V5.625C2.8125 5.31484 3.06486 5.0625 3.375 5.0625H5.625C5.93516 5.0625 6.1875 5.31484 6.1875 5.625V7.875Z" fill="black"/>
</svg>
