<svg width="18" height="18" viewBox="0 0 18 18" fill="none" xmlns="http://www.w3.org/2000/svg">
<g clip-path="url(#clip0_38_591)">
<path d="M9 0C4.0374 0 0 4.0374 0 9C0 13.9626 4.0374 18 9 18C13.9626 18 18 13.9626 18 9C18 4.0374 13.9627 0 9 0ZM9 16.3636C4.93969 16.3636 1.63636 13.0604 1.63636 9C1.63636 4.93964 4.93969 1.63636 9 1.63636C13.0603 1.63636 16.3636 4.93969 16.3636 9C16.3636 13.0603 13.0603 16.3636 9 16.3636Z" fill="black"/>
<path d="M8.99996 9.80859C8.9999 9.80859 9.00001 9.80859 8.99996 9.80859C7.73243 9.80859 6.54067 10.3022 5.64443 11.1985C5.3249 11.518 5.3249 12.0361 5.64443 12.3556C5.80419 12.5154 6.01359 12.5953 6.22299 12.5953C6.43239 12.5953 6.64179 12.5154 6.8015 12.3556C7.38874 11.7684 8.1695 11.445 8.99996 11.445C9.83041 11.445 10.6112 11.7684 11.1984 12.3556C11.5179 12.6751 12.036 12.6751 12.3555 12.3556C12.675 12.0361 12.675 11.518 12.3555 11.1985C11.4592 10.3022 10.2675 9.80859 8.99996 9.80859Z" fill="black"/>
<path d="M6.28033 8.02624C6.48379 7.82334 6.59997 7.54188 6.59997 7.25497C6.59997 6.96806 6.48379 6.68661 6.28033 6.48364C6.07742 6.28079 5.79597 6.16406 5.50906 6.16406C5.22161 6.16406 4.9407 6.28079 4.73779 6.48364C4.53488 6.68661 4.41815 6.96806 4.41815 7.25497C4.41815 7.54188 4.53488 7.82334 4.73779 8.02624C4.9407 8.22915 5.22215 8.34588 5.50906 8.34588C5.79597 8.34588 6.07742 8.22915 6.28033 8.02624Z" fill="black"/>
<path d="M12.4909 6.16406C12.2035 6.16406 11.9226 6.28079 11.7197 6.48364C11.5162 6.68661 11.4 6.96806 11.4 7.25497C11.4 7.54188 11.5162 7.82334 11.7197 8.02624C11.9226 8.22915 12.204 8.34588 12.4909 8.34588C12.7778 8.34588 13.0593 8.2291 13.2622 8.02624C13.4657 7.82334 13.5818 7.54188 13.5818 7.25497C13.5818 6.96806 13.4657 6.68661 13.2622 6.48364C13.0593 6.28079 12.7778 6.16406 12.4909 6.16406Z" fill="black"/>
</g>
<defs>
<clipPath id="clip0_38_591">
<rect width="18" height="18" fill="white"/>
</clipPath>
</defs>
</svg>
