<svg width="18" height="18" viewBox="0 0 18 18" fill="none" xmlns="http://www.w3.org/2000/svg">
<g clip-path="url(#clip0_147_643)">
<path d="M1.80002 7.2002C0.807574 7.2002 0 8.00777 0 9.00021C0 9.99266 0.807574 10.8002 1.80002 10.8002C2.79246 10.8002 3.60004 9.99266 3.60004 9.00021C3.60004 8.00777 2.79246 7.2002 1.80002 7.2002ZM1.80002 10.0802C1.20448 10.0802 0.719989 9.59566 0.719989 9.00012C0.719989 8.40458 1.20448 7.92009 1.80002 7.92009C2.39556 7.92009 2.88005 8.40458 2.88005 9.00012C2.87996 9.59575 2.39556 10.0802 1.80002 10.0802Z" fill="black"/>
<path d="M8.99997 7.2002C8.00753 7.2002 7.19995 8.00777 7.19995 9.00021C7.19995 9.99266 8.00753 10.8002 8.99997 10.8002C9.99241 10.8002 10.8 9.99266 10.8 9.00021C10.8 8.00777 9.99241 7.2002 8.99997 7.2002ZM8.99997 10.0802C8.40443 10.0802 7.91994 9.59566 7.91994 9.00012C7.91994 8.40458 8.40443 7.92009 8.99997 7.92009C9.59551 7.92009 10.08 8.40458 10.08 9.00012C10.0799 9.59575 9.59551 10.0802 8.99997 10.0802Z" fill="black"/>
<path d="M16.1999 7.2002C15.2075 7.2002 14.3999 8.00777 14.3999 9.00021C14.3999 9.99266 15.2075 10.8002 16.1999 10.8002C17.1924 10.8002 17.9999 9.99266 17.9999 9.00021C17.9999 8.00777 17.1924 7.2002 16.1999 7.2002ZM16.1999 10.0802C15.6044 10.0802 15.1199 9.59566 15.1199 9.00012C15.1199 8.40458 15.6044 7.92009 16.1999 7.92009C16.7955 7.92009 17.28 8.40458 17.28 9.00012C17.2799 9.59575 16.7955 10.0802 16.1999 10.0802Z" fill="black"/>
</g>
<defs>
<clipPath id="clip0_147_643">
<rect width="18" height="18" fill="white"/>
</clipPath>
</defs>
</svg>
