<svg width="18" height="18" viewBox="0 0 18 18" fill="none" xmlns="http://www.w3.org/2000/svg">
<path d="M13.6466 6.49076H13.3534V4.35297C13.3535 1.95274 11.4006 0 9.0001 0C6.5997 0 4.64678 1.95274 4.64678 4.35297V6.49076H4.35342C3.49825 6.49076 2.80243 7.18658 2.80243 8.04175V16.4489C2.80243 17.3041 3.49825 17.9999 4.35342 17.9999H13.6466C14.5018 17.9999 15.1976 17.3041 15.1976 16.4489V8.04175C15.1976 7.18658 14.5019 6.49076 13.6466 6.49076ZM5.9762 4.35297C5.9762 2.68578 7.33274 1.32942 9.0001 1.32942C10.6675 1.32942 12.024 2.68578 12.024 4.35297V6.49076H5.9762V4.35297ZM13.8682 16.449C13.8682 16.5691 13.7667 16.6706 13.6466 16.6706H4.35342C4.23333 16.6706 4.13185 16.5691 4.13185 16.449V8.04175C4.13185 7.92166 4.23333 7.82018 4.35342 7.82018H5.31149H12.6887H13.6466C13.7667 7.82018 13.8682 7.92166 13.8682 8.04175V16.449Z" fill="black"/>
<path d="M8.99992 10.3086C8.63282 10.3086 8.33521 10.6061 8.33521 10.9733V13.5183C8.33521 13.8854 8.63282 14.183 8.99992 14.183C9.36701 14.183 9.66463 13.8854 9.66463 13.5183V10.9733C9.66463 10.6061 9.36701 10.3086 8.99992 10.3086Z" fill="black"/>
</svg>
