<svg width="250" height="162" viewBox="0 0 250 162" fill="none" xmlns="http://www.w3.org/2000/svg">
<g clip-path="url(#clip0_43_936)">
<path d="M228.026 161.521L220.886 139.986C220.886 139.986 228.74 147.835 228.74 154.276L227.33 139.382C227.33 139.382 231.358 144.816 230.955 153.068C230.552 161.32 228.026 161.521 228.026 161.521Z" fill="#E6E6E6"/>
<path d="M74.6902 141.912L67.7215 120.894C67.7215 120.894 75.3866 128.555 75.3866 134.84L74.0108 120.305C74.0108 120.305 77.9416 125.608 77.5485 133.662C77.1554 141.715 74.6902 141.912 74.6902 141.912Z" fill="#E6E6E6"/>
<path d="M183.457 151.61C183.469 165.436 156.032 161.183 122.442 161.212C88.8519 161.241 61.8294 165.541 61.8174 151.715C61.8055 137.889 89.233 134.858 122.823 134.829C156.413 134.8 183.446 137.784 183.457 151.61Z" fill="#E6E6E6"/>
<path d="M250 161.204H0V161.837H250V161.204Z" fill="#3F3D56"/>
<path d="M159.916 132.939H155.525L153.435 116.01H159.916V132.939Z" fill="#A0616A"/>
<path d="M151.901 131.685H160.858V137.014H147.056V136.526C147.056 135.242 147.566 134.011 148.475 133.103C149.383 132.195 150.616 131.685 151.901 131.685Z" fill="#2F2E41"/>
<path d="M192.195 157.925H187.803L185.714 140.996H192.195V157.925Z" fill="#A0616A"/>
<path d="M184.179 156.671H193.136V162H179.334V161.513C179.334 160.229 179.845 158.997 180.753 158.089C181.662 157.181 182.894 156.671 184.179 156.671Z" fill="#2F2E41"/>
<path d="M212.451 107.632C212.755 107.264 212.974 106.834 213.093 106.372C213.212 105.91 213.229 105.428 213.142 104.959C213.054 104.49 212.865 104.046 212.587 103.658C212.31 103.27 211.95 102.948 211.534 102.713L201.335 61.1885L194.814 63.9927L206.945 104.144C206.598 104.868 206.529 105.694 206.75 106.466C206.972 107.238 207.469 107.902 208.148 108.332C208.827 108.762 209.639 108.928 210.433 108.799C211.226 108.67 211.944 108.255 212.451 107.632Z" fill="#A0616A"/>
<path d="M204.496 23.7092C204.132 23.3289 203.689 23.0329 203.198 22.8423C202.707 22.6516 202.181 22.5708 201.655 22.6055C201.13 22.6403 200.619 22.7897 200.157 23.0434C199.696 23.297 199.296 23.6487 198.985 24.0737L183.198 25.885L185.6 31.9706L199.957 29.2852C200.706 29.7595 201.603 29.9428 202.478 29.8003C203.353 29.6579 204.145 29.1996 204.705 28.5123C205.264 27.8249 205.552 26.9564 205.513 26.0711C205.475 25.1859 205.113 24.3455 204.496 23.7092Z" fill="#A0616A"/>
<path d="M178.481 103.326L185.37 154.998L193.944 153.234C193.944 153.234 192.683 115.602 196.97 111.066C201.257 106.529 191.456 98.582 191.456 98.582L178.481 103.326Z" fill="#2F2E41"/>
<path d="M181.329 89.0929L178.165 93.837C178.165 93.837 153.797 83.7164 153.797 99.8463C153.797 115.976 152.403 126.923 151.899 127.679C151.394 128.435 157.733 130.397 160.759 129.893C160.759 129.893 164.493 103.889 164.24 102.377C164.24 102.377 188.144 114.089 192.683 113.081C197.222 112.073 198.294 108.504 199.051 106.488C199.807 104.472 198.734 88.4603 198.734 88.4603L183.604 83.8457L181.329 89.0929Z" fill="#2F2E41"/>
<path d="M181.756 60.6095L180.854 59.5277C180.854 59.5277 170.752 36.8101 174.72 30.6799C178.689 24.5498 196.008 23.6483 196.549 24.0089C197.09 24.3695 195.256 29.0512 196.519 31.2148C196.519 31.2148 183.103 34.1218 182.201 34.4824C181.299 34.843 189.152 48.1689 189.152 48.1689L188.25 56.2823L181.756 60.6095Z" fill="#CCCCCC"/>
<path d="M199.435 49.431C199.435 49.431 190.055 50.5128 189.694 50.5128C189.333 50.5128 189.152 48.1689 189.152 48.1689L180.854 59.5278C180.854 59.5278 176.766 92.4811 177.848 91.9402C178.931 91.3993 198.894 94.5057 199.075 93.0633C199.255 91.6209 198.894 84.409 199.435 84.0484C199.977 83.6878 208.816 61.3308 208.816 61.3308C208.816 61.3308 207.914 56.643 204.847 55.0203C201.78 53.3976 199.435 49.431 199.435 49.431Z" fill="#CCCCCC"/>
<path d="M205.93 58.2656L208.816 61.3307C208.816 61.3307 213.105 96.5513 210.759 97.6331C208.414 98.7149 203.797 98.582 203.797 98.582L199.255 81.8848L205.93 58.2656Z" fill="#CCCCCC"/>
<path d="M190.421 47.2C195.007 47.2 198.724 43.4846 198.724 38.9013C198.724 34.318 195.007 30.6025 190.421 30.6025C185.835 30.6025 182.117 34.318 182.117 38.9013C182.117 43.4846 185.835 47.2 190.421 47.2Z" fill="#A0616A"/>
<path d="M188.472 40.196C188.36 38.474 186.187 38.415 184.46 38.3987C182.734 38.3824 180.669 38.444 179.693 37.0212C179.047 36.0809 179.17 34.7755 179.704 33.7674C180.237 32.7592 181.114 31.9839 181.977 31.238C184.206 29.3122 186.502 27.4017 189.177 26.1691C191.853 24.9365 194.988 24.4384 197.762 25.4279C201.171 26.6434 205.778 32.9003 206.176 36.495C206.574 40.0898 205.136 43.7544 202.713 46.4407C200.29 49.1269 194.744 48.0431 191.254 48.9987C193.376 45.9973 191.977 40.5438 188.578 39.1422L188.472 40.196Z" fill="#2F2E41"/>
<path d="M114.469 147.541C125.478 147.541 134.402 138.622 134.402 127.619C134.402 116.617 125.478 107.697 114.469 107.697C103.46 107.697 94.5356 116.617 94.5356 127.619C94.5356 138.622 103.46 147.541 114.469 147.541Z" fill="#5A8835"/>
<path d="M101.157 106.282C98.3944 106.282 95.691 105.482 93.3739 103.978C91.0568 102.475 89.2255 100.332 88.1015 97.8099L56.4711 26.6184C55.4233 24.2602 54.8692 21.7127 54.8427 19.1326C54.8163 16.5524 55.3181 13.9941 56.3173 11.6149C57.3165 9.23575 58.7919 7.08593 60.653 5.29762C62.5141 3.50931 64.7215 2.12029 67.1395 1.21594C69.5574 0.311597 72.1349 -0.0889711 74.7134 0.0388638C77.292 0.166699 79.8171 0.820234 82.1337 1.9593C84.4502 3.09836 86.5092 4.6989 88.1841 6.66251C89.859 8.62612 91.1143 10.9113 91.873 13.3777L114.777 87.8333C115.433 89.9644 115.58 92.2196 115.205 94.4176C114.83 96.6157 113.945 98.6953 112.621 100.489C111.296 102.284 109.569 103.742 107.578 104.748C105.587 105.754 103.388 106.279 101.157 106.282H101.157Z" fill="#5A8835"/>
<path d="M49.032 12.664C49.032 12.24 49.1 11.88 49.236 11.584C49.38 11.288 49.572 11.048 49.812 10.864C50.052 10.68 50.332 10.548 50.652 10.468C50.98 10.388 51.328 10.348 51.696 10.348C52.064 10.348 52.412 10.388 52.74 10.468C53.068 10.548 53.352 10.68 53.592 10.864C53.84 11.048 54.032 11.288 54.168 11.584C54.312 11.88 54.384 12.24 54.384 12.664C54.384 13.088 54.312 13.444 54.168 13.732C54.032 14.02 53.84 14.256 53.592 14.44C53.352 14.624 53.068 14.756 52.74 14.836C52.412 14.916 52.064 14.956 51.696 14.956C51.328 14.956 50.98 14.916 50.652 14.836C50.332 14.756 50.052 14.624 49.812 14.44C49.572 14.256 49.38 14.02 49.236 13.732C49.1 13.444 49.032 13.088 49.032 12.664ZM56.904 16.12C57.008 16.12 57.112 16.164 57.216 16.252C57.328 16.332 57.384 16.412 57.384 16.492C57.384 16.548 57.376 16.62 57.36 16.708C57.352 16.796 57.348 16.92 57.348 17.08V18.388C57.348 18.484 57.308 18.588 57.228 18.7C57.148 18.804 57.04 18.856 56.904 18.856H52.116V19.996C52.116 20.18 52.204 20.272 52.38 20.272H57.18C57.292 20.272 57.384 20.26 57.456 20.236C57.536 20.22 57.604 20.212 57.66 20.212C57.708 20.212 57.752 20.236 57.792 20.284C57.84 20.332 57.864 20.384 57.864 20.44C57.864 20.488 57.84 20.54 57.792 20.596C57.752 20.652 57.696 20.704 57.624 20.752C57.56 20.8 57.488 20.84 57.408 20.872C57.328 20.904 57.252 20.92 57.18 20.92H52.092C51.828 20.92 51.628 20.84 51.492 20.68C51.356 20.528 51.288 20.332 51.288 20.092V19.216C51.288 19.032 51.26 18.904 51.204 18.832C51.156 18.752 51.012 18.696 50.772 18.664C50.708 18.656 50.664 18.628 50.64 18.58C50.616 18.532 50.608 18.48 50.616 18.424C50.624 18.368 50.644 18.32 50.676 18.28C50.716 18.232 50.76 18.208 50.808 18.208H56.52V16.84H52.392C52.208 16.84 52.048 16.852 51.912 16.876C51.784 16.892 51.672 16.9 51.576 16.9C51.472 16.9 51.356 16.868 51.228 16.804C51.1 16.732 50.968 16.62 50.832 16.468C50.784 16.42 50.756 16.372 50.748 16.324C50.748 16.268 50.76 16.22 50.784 16.18C50.816 16.132 50.856 16.1 50.904 16.084C50.952 16.068 51.004 16.072 51.06 16.096C51.164 16.144 51.332 16.172 51.564 16.18C51.796 16.188 52.072 16.192 52.392 16.192H56.208C56.408 16.184 56.552 16.172 56.64 16.156C56.728 16.132 56.816 16.12 56.904 16.12ZM49.896 12.676C49.896 12.98 49.944 13.236 50.04 13.444C50.136 13.652 50.264 13.82 50.424 13.948C50.592 14.076 50.784 14.168 51 14.224C51.224 14.28 51.456 14.308 51.696 14.308C51.944 14.308 52.18 14.28 52.404 14.224C52.628 14.168 52.824 14.076 52.992 13.948C53.16 13.82 53.292 13.652 53.388 13.444C53.484 13.236 53.532 12.98 53.532 12.676C53.532 12.364 53.484 12.104 53.388 11.896C53.292 11.68 53.16 11.508 52.992 11.38C52.824 11.244 52.628 11.148 52.404 11.092C52.18 11.028 51.944 10.996 51.696 10.996C51.456 10.996 51.224 11.028 51 11.092C50.784 11.148 50.592 11.244 50.424 11.38C50.264 11.508 50.136 11.68 50.04 11.896C49.944 12.104 49.896 12.364 49.896 12.676ZM57.42 14.764C57.42 14.996 57.376 15.208 57.288 15.4C57.208 15.584 57.076 15.676 56.892 15.676C56.804 15.676 56.732 15.628 56.676 15.532C56.62 15.436 56.592 15.28 56.592 15.064V10.888C56.592 10.608 56.524 10.412 56.388 10.3C56.26 10.188 56.044 10.092 55.74 10.012C55.684 9.996 55.648 9.964 55.632 9.916C55.616 9.86 55.616 9.808 55.632 9.76C55.648 9.704 55.676 9.656 55.716 9.616C55.764 9.576 55.82 9.56 55.884 9.568L57.24 9.76C57.368 9.776 57.436 9.816 57.444 9.88C57.46 9.936 57.468 9.984 57.468 10.024C57.468 10.072 57.46 10.148 57.444 10.252C57.428 10.356 57.42 10.492 57.42 10.66V14.764ZM63.9887 10.936C64.0927 10.936 64.1967 10.98 64.3007 11.068C64.4127 11.148 64.4687 11.228 64.4687 11.308C64.4687 11.364 64.4607 11.436 64.4447 11.524C64.4367 11.612 64.4327 11.736 64.4327 11.896V14.128C64.4327 14.232 64.3807 14.34 64.2767 14.452C64.1807 14.556 64.0647 14.608 63.9287 14.608H61.0847V16.78C61.0847 16.964 61.1727 17.056 61.3487 17.056C62.1087 17.056 62.8287 17.028 63.5087 16.972C64.1967 16.908 64.8527 16.824 65.4767 16.72C65.5887 16.704 65.6647 16.688 65.7047 16.672C65.7527 16.656 65.8047 16.644 65.8607 16.636C65.9087 16.636 65.9567 16.66 66.0047 16.708C66.0527 16.748 66.0767 16.796 66.0767 16.852C66.0847 16.956 66.0287 17.052 65.9087 17.14C65.7887 17.228 65.6607 17.284 65.5247 17.308C64.8207 17.444 64.0967 17.552 63.3527 17.632C62.6167 17.712 61.8527 17.76 61.0607 17.776C60.7967 17.784 60.5967 17.708 60.4607 17.548C60.3247 17.388 60.2567 17.188 60.2567 16.948V15.028C60.2567 14.82 60.2127 14.676 60.1247 14.596C60.0447 14.516 59.8767 14.456 59.6207 14.416C59.5567 14.408 59.5127 14.38 59.4887 14.332C59.4647 14.276 59.4567 14.22 59.4647 14.164C59.4727 14.108 59.4927 14.06 59.5247 14.02C59.5647 13.972 59.6087 13.948 59.6567 13.948H63.6047V11.668H61.4567C61.2727 11.668 61.1127 11.68 60.9767 11.704C60.8487 11.72 60.7367 11.728 60.6407 11.728C60.5367 11.728 60.4207 11.696 60.2927 11.632C60.1647 11.56 60.0327 11.448 59.8967 11.296C59.8487 11.248 59.8247 11.196 59.8247 11.14C59.8247 11.084 59.8367 11.036 59.8607 10.996C59.8847 10.948 59.9207 10.916 59.9687 10.9C60.0167 10.884 60.0687 10.888 60.1247 10.912C60.2287 10.96 60.3967 10.988 60.6287 10.996C60.8607 11.004 61.1367 11.008 61.4567 11.008H63.1487C63.4047 11.008 63.5847 10.996 63.6887 10.972C63.8007 10.948 63.9007 10.936 63.9887 10.936ZM65.0447 13.996C64.9967 13.948 64.9687 13.9 64.9607 13.852C64.9607 13.796 64.9727 13.748 64.9967 13.708C65.0287 13.66 65.0687 13.628 65.1167 13.612C65.1647 13.596 65.2167 13.6 65.2727 13.624C65.3767 13.672 65.5447 13.7 65.7767 13.708C66.0087 13.716 66.2847 13.72 66.6047 13.72H67.3967V10.888C67.3967 10.608 67.3287 10.412 67.1927 10.3C67.0647 10.188 66.8487 10.092 66.5447 10.012C66.4887 9.996 66.4527 9.964 66.4367 9.916C66.4207 9.86 66.4207 9.808 66.4367 9.76C66.4527 9.704 66.4807 9.656 66.5207 9.616C66.5687 9.576 66.6247 9.56 66.6887 9.568L68.0447 9.76C68.1727 9.776 68.2407 9.816 68.2487 9.88C68.2647 9.936 68.2727 9.984 68.2727 10.024C68.2727 10.072 68.2647 10.148 68.2487 10.252C68.2327 10.356 68.2247 10.492 68.2247 10.66V19.624C68.2247 19.856 68.1807 20.064 68.0927 20.248C68.0127 20.44 67.8807 20.536 67.6967 20.536C67.6087 20.536 67.5367 20.488 67.4807 20.392C67.4247 20.296 67.3967 20.14 67.3967 19.924V14.368H66.6047C66.4207 14.368 66.2727 14.38 66.1607 14.404C66.0487 14.42 65.9447 14.428 65.8487 14.428C65.7447 14.428 65.6167 14.396 65.4647 14.332C65.3207 14.26 65.1807 14.148 65.0447 13.996ZM75.9454 10.96C75.7614 11.552 75.5174 12.092 75.2134 12.58C75.8534 12.996 76.4694 13.388 77.0614 13.756C77.6534 14.116 78.2254 14.464 78.7774 14.8C78.8814 14.88 78.9694 15 79.0414 15.16C79.1214 15.32 79.1614 15.456 79.1614 15.568C79.1614 15.656 79.1214 15.732 79.0414 15.796C78.9614 15.86 78.8694 15.852 78.7654 15.772C78.2614 15.388 77.6854 14.972 77.0374 14.524C76.3894 14.076 75.6614 13.6 74.8534 13.096C74.4294 13.648 73.9134 14.152 73.3054 14.608C72.7054 15.056 71.9974 15.452 71.1814 15.796C71.1174 15.82 71.0534 15.82 70.9894 15.796C70.9334 15.772 70.8854 15.74 70.8454 15.7C70.8134 15.652 70.7974 15.604 70.7974 15.556C70.7974 15.5 70.8254 15.456 70.8814 15.424C72.7454 14.4 74.0774 13.056 74.8774 11.392C74.8774 11.24 74.8214 11.116 74.7094 11.02C74.5974 10.916 74.4094 10.816 74.1454 10.72C74.0894 10.696 74.0534 10.66 74.0374 10.612C74.0214 10.556 74.0214 10.504 74.0374 10.456C74.0534 10.4 74.0854 10.356 74.1334 10.324C74.1814 10.284 74.2414 10.272 74.3134 10.288L75.7534 10.624C75.8734 10.648 75.9374 10.7 75.9454 10.78C75.9614 10.86 75.9614 10.92 75.9454 10.96ZM69.9454 18.196C69.8974 18.148 69.8734 18.096 69.8734 18.04C69.8734 17.984 69.8854 17.936 69.9094 17.896C69.9334 17.848 69.9694 17.816 70.0174 17.8C70.0654 17.784 70.1174 17.788 70.1734 17.812C70.2774 17.86 70.4454 17.888 70.6774 17.896C70.9094 17.904 71.1854 17.908 71.5054 17.908H79.5454C79.6574 17.908 79.7414 17.9 79.7974 17.884C79.8534 17.868 79.9094 17.86 79.9654 17.86C80.1014 17.86 80.1694 17.936 80.1694 18.088C80.1694 18.208 80.1094 18.32 79.9894 18.424C79.8694 18.52 79.7214 18.568 79.5454 18.568H71.5054C71.3214 18.568 71.1614 18.58 71.0254 18.604C70.8974 18.62 70.7854 18.628 70.6894 18.628C70.5854 18.628 70.4694 18.596 70.3414 18.532C70.2134 18.46 70.0814 18.348 69.9454 18.196ZM82.7061 11.572C82.7061 11.364 82.6621 11.22 82.5741 11.14C82.4941 11.06 82.3261 11 82.0701 10.96C82.0061 10.952 81.9621 10.924 81.9381 10.876C81.9141 10.82 81.9061 10.764 81.9141 10.708C81.9221 10.652 81.9421 10.604 81.9741 10.564C82.0141 10.516 82.0581 10.492 82.1061 10.492H88.3821C88.4941 10.492 88.5781 10.484 88.6341 10.468C88.6901 10.452 88.7461 10.444 88.8021 10.444C88.8501 10.444 88.8941 10.468 88.9341 10.516C88.9821 10.564 89.0061 10.616 89.0061 10.672C89.0061 10.72 88.9861 10.772 88.9461 10.828C88.9061 10.884 88.8541 10.936 88.7901 10.984C88.7341 11.032 88.6661 11.072 88.5861 11.104C88.5141 11.128 88.4461 11.14 88.3821 11.14H83.5341V12.952H88.2981C88.4101 12.952 88.4941 12.944 88.5501 12.928C88.6061 12.912 88.6621 12.904 88.7181 12.904C88.7661 12.904 88.8101 12.928 88.8501 12.976C88.8981 13.024 88.9221 13.076 88.9221 13.132C88.9221 13.18 88.9021 13.232 88.8621 13.288C88.8221 13.344 88.7701 13.396 88.7061 13.444C88.6501 13.492 88.5821 13.532 88.5021 13.564C88.4301 13.588 88.3621 13.6 88.2981 13.6H83.5341V15.172C83.5341 15.356 83.6221 15.448 83.7981 15.448H88.6581C88.7701 15.448 88.8541 15.44 88.9101 15.424C88.9661 15.408 89.0221 15.4 89.0781 15.4C89.1261 15.4 89.1701 15.424 89.2101 15.472C89.2581 15.52 89.2821 15.572 89.2821 15.628C89.2821 15.676 89.2621 15.728 89.2221 15.784C89.1821 15.84 89.1301 15.892 89.0661 15.94C89.0101 15.988 88.9421 16.028 88.8621 16.06C88.7901 16.084 88.7221 16.096 88.6581 16.096H83.5101C83.2461 16.096 83.0461 16.02 82.9101 15.868C82.7741 15.716 82.7061 15.52 82.7061 15.28V11.572ZM80.7501 18.316C80.7021 18.268 80.6781 18.216 80.6781 18.16C80.6781 18.104 80.6901 18.056 80.7141 18.016C80.7381 17.968 80.7741 17.936 80.8221 17.92C80.8701 17.904 80.9221 17.908 80.9781 17.932C81.0821 17.98 81.2501 18.008 81.4821 18.016C81.7141 18.024 81.9901 18.028 82.3101 18.028H90.3501C90.4621 18.028 90.5461 18.02 90.6021 18.004C90.6581 17.988 90.7141 17.98 90.7701 17.98C90.9061 17.98 90.9741 18.056 90.9741 18.208C90.9741 18.328 90.9141 18.44 90.7941 18.544C90.6741 18.64 90.5261 18.688 90.3501 18.688H82.3101C82.1261 18.688 81.9661 18.7 81.8301 18.724C81.7021 18.74 81.5901 18.748 81.4941 18.748C81.3901 18.748 81.2741 18.716 81.1461 18.652C81.0181 18.58 80.8861 18.468 80.7501 18.316ZM104.002 19.624C104.002 19.856 103.958 20.064 103.87 20.248C103.79 20.44 103.658 20.536 103.474 20.536C103.386 20.536 103.314 20.488 103.258 20.392C103.202 20.296 103.174 20.14 103.174 19.924V10.888C103.174 10.608 103.106 10.412 102.97 10.3C102.842 10.188 102.626 10.092 102.322 10.012C102.266 9.996 102.23 9.964 102.214 9.916C102.198 9.86 102.198 9.808 102.214 9.76C102.23 9.704 102.258 9.656 102.298 9.616C102.346 9.576 102.402 9.56 102.466 9.568L103.822 9.76C103.95 9.776 104.018 9.816 104.026 9.88C104.042 9.936 104.05 9.984 104.05 10.024C104.05 10.072 104.042 10.148 104.026 10.252C104.01 10.356 104.002 10.492 104.002 10.66V19.624ZM95.614 14.152C95.614 13.584 95.686 13.104 95.83 12.712C95.974 12.312 96.166 11.988 96.406 11.74C96.654 11.492 96.942 11.312 97.27 11.2C97.598 11.088 97.95 11.032 98.326 11.032C98.694 11.032 99.042 11.088 99.37 11.2C99.706 11.312 99.998 11.492 100.246 11.74C100.494 11.988 100.69 12.312 100.834 12.712C100.978 13.104 101.05 13.584 101.05 14.152C101.05 14.72 100.978 15.2 100.834 15.592C100.69 15.984 100.494 16.304 100.246 16.552C99.998 16.8 99.706 16.98 99.37 17.092C99.042 17.196 98.694 17.248 98.326 17.248C97.95 17.248 97.598 17.196 97.27 17.092C96.942 16.98 96.654 16.8 96.406 16.552C96.166 16.304 95.974 15.984 95.83 15.592C95.686 15.2 95.614 14.72 95.614 14.152ZM96.478 14.164C96.478 14.612 96.526 14.992 96.622 15.304C96.726 15.616 96.862 15.868 97.03 16.06C97.198 16.252 97.394 16.392 97.618 16.48C97.842 16.56 98.078 16.6 98.326 16.6C98.574 16.6 98.81 16.56 99.034 16.48C99.266 16.392 99.466 16.252 99.634 16.06C99.802 15.868 99.934 15.616 100.03 15.304C100.134 14.992 100.186 14.612 100.186 14.164C100.186 13.708 100.134 13.324 100.03 13.012C99.934 12.692 99.802 12.436 99.634 12.244C99.466 12.044 99.266 11.9 99.034 11.812C98.81 11.724 98.574 11.68 98.326 11.68C98.078 11.68 97.842 11.724 97.618 11.812C97.394 11.9 97.198 12.044 97.03 12.244C96.862 12.436 96.726 12.692 96.622 13.012C96.526 13.324 96.478 13.708 96.478 14.164ZM107.487 17.128C107.223 17.128 107.023 17.052 106.887 16.9C106.751 16.74 106.683 16.54 106.683 16.3V12.328C106.683 12.12 106.655 11.976 106.599 11.896C106.543 11.816 106.399 11.756 106.167 11.716C106.103 11.708 106.059 11.68 106.035 11.632C106.011 11.576 106.003 11.52 106.011 11.464C106.019 11.408 106.039 11.36 106.071 11.32C106.111 11.272 106.155 11.248 106.203 11.248H110.475C110.675 11.24 110.819 11.228 110.907 11.212C110.995 11.188 111.083 11.176 111.171 11.176C111.275 11.176 111.379 11.22 111.483 11.308C111.595 11.388 111.651 11.468 111.651 11.548C111.651 11.604 111.643 11.676 111.627 11.764C111.619 11.852 111.615 11.976 111.615 12.136V16.648C111.615 16.752 111.563 16.86 111.459 16.972C111.363 17.076 111.247 17.128 111.111 17.128H107.487ZM107.511 16.192C107.511 16.376 107.599 16.468 107.775 16.468H110.787V11.908H107.511V16.192ZM114.807 19.624C114.807 19.856 114.763 20.064 114.675 20.248C114.595 20.44 114.463 20.536 114.279 20.536C114.191 20.536 114.119 20.488 114.063 20.392C114.007 20.296 113.979 20.14 113.979 19.924V10.888C113.979 10.608 113.911 10.412 113.775 10.3C113.647 10.188 113.431 10.092 113.127 10.012C113.071 9.996 113.035 9.964 113.019 9.916C113.003 9.86 113.003 9.808 113.019 9.76C113.035 9.704 113.063 9.656 113.103 9.616C113.151 9.576 113.207 9.56 113.271 9.568L114.627 9.76C114.755 9.776 114.823 9.816 114.831 9.88C114.847 9.936 114.855 9.984 114.855 10.024C114.855 10.072 114.847 10.148 114.831 10.252C114.815 10.356 114.807 10.492 114.807 10.66V19.624ZM123.259 17.188C123.251 17.228 123.231 17.268 123.199 17.308C123.167 17.348 123.131 17.38 123.091 17.404C123.051 17.42 123.003 17.424 122.947 17.416C122.899 17.408 122.855 17.38 122.815 17.332C122.655 17.156 122.475 16.968 122.275 16.768C122.083 16.56 121.879 16.356 121.663 16.156C121.447 15.948 121.223 15.744 120.991 15.544C120.759 15.336 120.531 15.14 120.307 14.956C119.891 15.436 119.431 15.884 118.927 16.3C118.423 16.708 117.863 17.08 117.247 17.416C117.191 17.448 117.135 17.452 117.079 17.428C117.023 17.404 116.979 17.372 116.947 17.332C116.915 17.284 116.899 17.232 116.899 17.176C116.899 17.12 116.923 17.076 116.971 17.044C118.019 16.34 118.895 15.536 119.599 14.632C120.303 13.72 120.883 12.724 121.339 11.644H119.059C118.875 11.644 118.715 11.656 118.579 11.68C118.451 11.696 118.339 11.704 118.243 11.704C118.139 11.704 118.023 11.672 117.895 11.608C117.767 11.536 117.635 11.424 117.499 11.272C117.451 11.224 117.427 11.172 117.427 11.116C117.427 11.06 117.439 11.012 117.463 10.972C117.487 10.924 117.523 10.892 117.571 10.876C117.619 10.86 117.671 10.864 117.727 10.888C117.831 10.936 117.999 10.964 118.231 10.972C118.463 10.98 118.739 10.984 119.059 10.984H121.075C121.331 10.984 121.515 10.972 121.627 10.948C121.747 10.924 121.851 10.912 121.939 10.912C121.987 10.912 122.039 10.928 122.095 10.96C122.151 10.984 122.203 11.016 122.251 11.056C122.299 11.088 122.339 11.128 122.371 11.176C122.403 11.216 122.419 11.252 122.419 11.284C122.419 11.348 122.395 11.432 122.347 11.536C122.307 11.64 122.255 11.748 122.191 11.86C121.991 12.332 121.771 12.784 121.531 13.216C121.291 13.64 121.019 14.052 120.715 14.452C121.075 14.788 121.463 15.128 121.879 15.472C122.295 15.816 122.679 16.112 123.031 16.36C123.095 16.432 123.151 16.556 123.199 16.732C123.255 16.9 123.275 17.052 123.259 17.188ZM125.611 19.624C125.611 19.856 125.567 20.064 125.479 20.248C125.399 20.44 125.267 20.536 125.083 20.536C124.995 20.536 124.923 20.488 124.867 20.392C124.811 20.296 124.783 20.14 124.783 19.924V10.888C124.783 10.608 124.715 10.412 124.579 10.3C124.451 10.188 124.235 10.092 123.931 10.012C123.875 9.996 123.839 9.964 123.823 9.916C123.807 9.86 123.807 9.808 123.823 9.76C123.839 9.704 123.867 9.656 123.907 9.616C123.955 9.576 124.011 9.56 124.075 9.568L125.431 9.76C125.559 9.776 125.627 9.816 125.635 9.88C125.651 9.936 125.659 9.984 125.659 10.024C125.659 10.072 125.651 10.148 125.635 10.252C125.619 10.356 125.611 10.492 125.611 10.66V19.624ZM132.099 17.368C131.835 17.368 131.635 17.292 131.499 17.14C131.363 16.98 131.295 16.78 131.295 16.54V12.172C131.295 12.052 131.283 11.956 131.259 11.884C131.243 11.804 131.207 11.736 131.151 11.68C131.095 11.624 131.019 11.58 130.923 11.548C130.827 11.508 130.703 11.468 130.551 11.428C130.495 11.412 130.455 11.38 130.431 11.332C130.415 11.284 130.411 11.232 130.419 11.176C130.435 11.12 130.463 11.076 130.503 11.044C130.551 11.004 130.611 10.988 130.683 10.996L131.943 11.128C132.063 11.144 132.127 11.184 132.135 11.248C132.151 11.304 132.159 11.352 132.159 11.392C132.159 11.448 132.151 11.52 132.135 11.608C132.127 11.696 132.123 11.82 132.123 11.98V13.612H135.459V11.992C135.459 11.872 135.447 11.772 135.423 11.692C135.407 11.612 135.371 11.548 135.315 11.5C135.259 11.444 135.183 11.396 135.087 11.356C134.991 11.316 134.867 11.276 134.715 11.236C134.659 11.22 134.619 11.188 134.595 11.14C134.579 11.092 134.575 11.04 134.583 10.984C134.599 10.928 134.627 10.884 134.667 10.852C134.715 10.812 134.775 10.796 134.847 10.804L136.107 10.948C136.227 10.964 136.291 11.004 136.299 11.068C136.315 11.124 136.323 11.172 136.323 11.212C136.323 11.268 136.315 11.34 136.299 11.428C136.291 11.516 136.287 11.64 136.287 11.8V16.888C136.287 16.992 136.235 17.1 136.131 17.212C136.035 17.316 135.919 17.368 135.783 17.368H132.099ZM139.179 14.584V19.624C139.179 19.856 139.135 20.064 139.047 20.248C138.967 20.44 138.835 20.536 138.651 20.536C138.563 20.536 138.491 20.488 138.435 20.392C138.379 20.296 138.351 20.14 138.351 19.924V10.888C138.351 10.608 138.283 10.412 138.147 10.3C138.019 10.188 137.803 10.092 137.499 10.012C137.443 9.996 137.407 9.964 137.391 9.916C137.375 9.86 137.375 9.808 137.391 9.76C137.407 9.704 137.435 9.656 137.475 9.616C137.523 9.576 137.579 9.56 137.643 9.568L138.999 9.76C139.127 9.776 139.195 9.816 139.203 9.88C139.219 9.936 139.227 9.984 139.227 10.024C139.227 10.072 139.219 10.148 139.203 10.252C139.187 10.356 139.179 10.492 139.179 10.66V13.924H140.439C140.551 13.924 140.635 13.916 140.691 13.9C140.747 13.884 140.803 13.876 140.859 13.876C140.907 13.876 140.951 13.9 140.991 13.948C141.039 13.996 141.063 14.048 141.063 14.104C141.063 14.152 141.043 14.204 141.003 14.26C140.963 14.316 140.911 14.368 140.847 14.416C140.791 14.464 140.723 14.504 140.643 14.536C140.571 14.568 140.503 14.584 140.439 14.584H139.179ZM132.123 16.432C132.123 16.616 132.211 16.708 132.387 16.708H135.459V14.272H132.123V16.432ZM150.704 15.124C150.704 15.356 150.66 15.568 150.572 15.76C150.492 15.944 150.36 16.036 150.176 16.036C150.088 16.036 150.016 15.988 149.96 15.892C149.904 15.796 149.876 15.64 149.876 15.424V13.672C149.268 13.784 148.632 13.88 147.968 13.96C147.304 14.032 146.628 14.092 145.94 14.14V15.16C145.94 15.392 145.896 15.604 145.808 15.796C145.728 15.98 145.596 16.072 145.412 16.072C145.324 16.072 145.252 16.024 145.196 15.928C145.14 15.832 145.112 15.676 145.112 15.46V14.188C144.536 14.212 143.972 14.224 143.42 14.224C143.236 14.224 143.076 14.236 142.94 14.26C142.812 14.276 142.7 14.284 142.604 14.284C142.5 14.284 142.384 14.252 142.256 14.188C142.128 14.116 141.996 14.004 141.86 13.852C141.812 13.804 141.788 13.752 141.788 13.696C141.788 13.64 141.8 13.592 141.824 13.552C141.848 13.504 141.884 13.472 141.932 13.456C141.98 13.44 142.032 13.444 142.088 13.468C142.192 13.516 142.36 13.544 142.592 13.552C142.824 13.56 143.1 13.564 143.42 13.564H143.828C143.94 13.14 144.04 12.68 144.128 12.184C144.224 11.68 144.292 11.208 144.332 10.768H143.9C143.716 10.768 143.564 10.78 143.444 10.804C143.324 10.82 143.216 10.828 143.12 10.828C143.032 10.828 142.928 10.796 142.808 10.732C142.688 10.66 142.56 10.548 142.424 10.396C142.376 10.348 142.352 10.296 142.352 10.24C142.352 10.184 142.364 10.136 142.388 10.096C142.412 10.048 142.448 10.016 142.496 10C142.544 9.984 142.596 9.988 142.652 10.012C142.756 10.06 142.908 10.088 143.108 10.096C143.316 10.104 143.58 10.108 143.9 10.108H143.984C144.24 10.108 144.424 10.096 144.536 10.072C144.656 10.048 144.76 10.036 144.848 10.036C144.952 10.036 145.052 10.08 145.148 10.168C145.252 10.248 145.304 10.328 145.304 10.408C145.304 10.496 145.292 10.628 145.268 10.804C145.188 11.244 145.076 11.708 144.932 12.196C144.788 12.676 144.616 13.128 144.416 13.552C144.896 13.544 145.384 13.528 145.88 13.504C146.376 13.48 146.872 13.448 147.368 13.408C147.44 13.008 147.504 12.572 147.56 12.1C147.616 11.628 147.656 11.184 147.68 10.768H147.056C146.872 10.768 146.72 10.78 146.6 10.804C146.48 10.82 146.372 10.828 146.276 10.828C146.076 10.828 145.844 10.684 145.58 10.396C145.532 10.348 145.508 10.296 145.508 10.24C145.508 10.184 145.52 10.136 145.544 10.096C145.568 10.048 145.604 10.016 145.652 10C145.7 9.984 145.752 9.988 145.808 10.012C145.912 10.06 146.064 10.088 146.264 10.096C146.472 10.104 146.736 10.108 147.056 10.108H147.332C147.588 10.108 147.772 10.096 147.884 10.072C148.004 10.048 148.108 10.036 148.196 10.036C148.3 10.036 148.4 10.08 148.496 10.168C148.6 10.248 148.652 10.328 148.652 10.408C148.652 10.464 148.648 10.52 148.64 10.576C148.64 10.624 148.632 10.7 148.616 10.804C148.56 11.212 148.472 11.644 148.352 12.1C148.24 12.548 148.104 12.972 147.944 13.372C148.28 13.34 148.608 13.308 148.928 13.276C149.248 13.244 149.564 13.208 149.876 13.168V10.888C149.876 10.608 149.808 10.412 149.672 10.3C149.544 10.188 149.328 10.092 149.024 10.012C148.968 9.996 148.932 9.964 148.916 9.916C148.9 9.86 148.9 9.808 148.916 9.76C148.932 9.704 148.96 9.656 149 9.616C149.048 9.576 149.104 9.56 149.168 9.568L150.524 9.76C150.652 9.776 150.72 9.816 150.728 9.88C150.744 9.936 150.752 9.984 150.752 10.024C150.752 10.072 150.744 10.148 150.728 10.252C150.712 10.356 150.704 10.492 150.704 10.66V15.124ZM150.188 16.36C150.292 16.36 150.396 16.404 150.5 16.492C150.612 16.572 150.668 16.652 150.668 16.732C150.668 16.788 150.66 16.86 150.644 16.948C150.636 17.036 150.632 17.16 150.632 17.32V18.508C150.632 18.604 150.592 18.708 150.512 18.82C150.432 18.924 150.324 18.976 150.188 18.976H145.4V19.996C145.4 20.18 145.488 20.272 145.664 20.272H150.464C150.576 20.272 150.668 20.26 150.74 20.236C150.82 20.22 150.888 20.212 150.944 20.212C150.992 20.212 151.036 20.236 151.076 20.284C151.124 20.332 151.148 20.384 151.148 20.44C151.148 20.488 151.124 20.54 151.076 20.596C151.036 20.652 150.98 20.704 150.908 20.752C150.844 20.8 150.772 20.84 150.692 20.872C150.612 20.904 150.536 20.92 150.464 20.92H145.376C145.112 20.92 144.912 20.84 144.776 20.68C144.64 20.528 144.572 20.332 144.572 20.092V19.336C144.572 19.152 144.544 19.024 144.488 18.952C144.44 18.872 144.296 18.816 144.056 18.784C143.992 18.776 143.948 18.748 143.924 18.7C143.9 18.652 143.892 18.6 143.9 18.544C143.908 18.488 143.928 18.44 143.96 18.4C144 18.352 144.044 18.328 144.092 18.328H149.804V17.08H145.676C145.492 17.08 145.332 17.092 145.196 17.116C145.068 17.132 144.956 17.14 144.86 17.14C144.756 17.14 144.64 17.108 144.512 17.044C144.384 16.972 144.252 16.86 144.116 16.708C144.068 16.66 144.04 16.612 144.032 16.564C144.032 16.508 144.044 16.46 144.068 16.42C144.1 16.372 144.14 16.34 144.188 16.324C144.236 16.308 144.288 16.312 144.344 16.336C144.448 16.384 144.616 16.412 144.848 16.42C145.08 16.428 145.356 16.432 145.676 16.432H149.348C149.604 16.432 149.784 16.42 149.888 16.396C150 16.372 150.1 16.36 150.188 16.36ZM155.668 16.276C155.62 16.228 155.596 16.176 155.596 16.12C155.596 16.064 155.608 16.016 155.632 15.976C155.656 15.928 155.692 15.896 155.74 15.88C155.788 15.864 155.84 15.868 155.896 15.892C156 15.94 156.168 15.968 156.4 15.976C156.632 15.984 156.908 15.988 157.228 15.988H165.268C165.38 15.988 165.464 15.98 165.52 15.964C165.576 15.948 165.632 15.94 165.688 15.94C165.824 15.94 165.892 16.016 165.892 16.168C165.892 16.288 165.832 16.4 165.712 16.504C165.592 16.6 165.444 16.648 165.268 16.648H161.14V19.864C161.14 20.096 161.096 20.304 161.008 20.488C160.92 20.68 160.78 20.776 160.588 20.776C160.468 20.776 160.392 20.708 160.36 20.572C160.328 20.436 160.312 20.3 160.312 20.164V16.648H157.228C157.044 16.648 156.884 16.66 156.748 16.684C156.62 16.7 156.508 16.708 156.412 16.708C156.308 16.708 156.192 16.676 156.064 16.612C155.936 16.54 155.804 16.428 155.668 16.276ZM161.668 10.336C161.572 10.592 161.46 10.84 161.332 11.08C161.212 11.312 161.072 11.544 160.912 11.776C161.568 12.128 162.196 12.46 162.796 12.772C163.396 13.076 163.98 13.36 164.548 13.624C164.652 13.704 164.74 13.816 164.812 13.96C164.892 14.104 164.932 14.232 164.932 14.344C164.932 14.432 164.892 14.504 164.812 14.56C164.74 14.616 164.648 14.612 164.536 14.548C163.912 14.172 163.264 13.8 162.592 13.432C161.928 13.056 161.232 12.672 160.504 12.28C160.088 12.76 159.588 13.192 159.004 13.576C158.42 13.96 157.736 14.296 156.952 14.584C156.888 14.608 156.824 14.608 156.76 14.584C156.704 14.552 156.656 14.516 156.616 14.476C156.584 14.428 156.568 14.38 156.568 14.332C156.568 14.276 156.596 14.236 156.652 14.212C158.46 13.316 159.776 12.148 160.6 10.708C160.608 10.596 160.552 10.492 160.432 10.396C160.32 10.292 160.132 10.192 159.868 10.096C159.812 10.072 159.776 10.036 159.76 9.988C159.744 9.932 159.744 9.88 159.76 9.832C159.776 9.776 159.808 9.732 159.856 9.7C159.904 9.66 159.964 9.648 160.036 9.664L161.476 10C161.596 10.024 161.66 10.076 161.668 10.156C161.684 10.236 161.684 10.296 161.668 10.336ZM170.532 12.904C170.532 12.464 170.6 12.088 170.736 11.776C170.88 11.464 171.072 11.212 171.312 11.02C171.552 10.828 171.832 10.688 172.152 10.6C172.48 10.512 172.828 10.468 173.196 10.468C173.564 10.468 173.912 10.512 174.24 10.6C174.568 10.688 174.852 10.828 175.092 11.02C175.34 11.212 175.532 11.464 175.668 11.776C175.812 12.088 175.884 12.464 175.884 12.904C175.884 13.344 175.812 13.716 175.668 14.02C175.532 14.324 175.34 14.572 175.092 14.764C174.852 14.956 174.568 15.096 174.24 15.184C173.912 15.264 173.564 15.304 173.196 15.304C172.828 15.304 172.48 15.264 172.152 15.184C171.832 15.096 171.552 14.956 171.312 14.764C171.072 14.572 170.88 14.324 170.736 14.02C170.6 13.716 170.532 13.344 170.532 12.904ZM178.08 16.96C177.992 17.216 177.896 17.464 177.792 17.704C177.696 17.944 177.58 18.176 177.444 18.4C177.828 18.752 178.204 19.072 178.572 19.36C178.948 19.648 179.328 19.92 179.712 20.176C179.784 20.248 179.832 20.34 179.856 20.452C179.88 20.572 179.892 20.708 179.892 20.86C179.892 20.9 179.876 20.94 179.844 20.98C179.82 21.02 179.784 21.048 179.736 21.064C179.696 21.088 179.648 21.096 179.592 21.088C179.544 21.088 179.496 21.064 179.448 21.016C179.112 20.656 178.744 20.304 178.344 19.96C177.952 19.616 177.54 19.276 177.108 18.94C176.54 19.756 175.8 20.468 174.888 21.076C174.832 21.116 174.772 21.128 174.708 21.112C174.652 21.104 174.6 21.08 174.552 21.04C174.512 21 174.488 20.952 174.48 20.896C174.472 20.848 174.492 20.804 174.54 20.764C174.652 20.668 174.76 20.572 174.864 20.476C174.976 20.38 175.08 20.28 175.176 20.176C174.92 19.952 174.652 19.728 174.372 19.504C174.092 19.28 173.8 19.06 173.496 18.844C173.208 19.252 172.868 19.636 172.476 19.996C172.084 20.356 171.644 20.696 171.156 21.016C171.1 21.056 171.04 21.068 170.976 21.052C170.92 21.044 170.868 21.02 170.82 20.98C170.78 20.94 170.756 20.892 170.748 20.836C170.74 20.788 170.76 20.744 170.808 20.704C171.432 20.216 171.952 19.704 172.368 19.168C172.784 18.64 173.096 18.096 173.304 17.536C173.344 17.376 173.332 17.244 173.268 17.14C173.212 17.036 173.056 16.948 172.8 16.876C172.744 16.86 172.708 16.828 172.692 16.78C172.676 16.724 172.676 16.672 172.692 16.624C172.708 16.568 172.74 16.52 172.788 16.48C172.836 16.44 172.896 16.428 172.968 16.444L174.228 16.708C174.348 16.732 174.412 16.784 174.42 16.864C174.436 16.944 174.436 17.004 174.42 17.044C174.268 17.476 174.076 17.9 173.844 18.316C174.148 18.572 174.444 18.812 174.732 19.036C175.028 19.26 175.328 19.476 175.632 19.684C176.216 19.004 176.66 18.26 176.964 17.452C177.004 17.292 176.984 17.156 176.904 17.044C176.832 16.932 176.668 16.84 176.412 16.768C176.356 16.752 176.32 16.72 176.304 16.672C176.288 16.616 176.288 16.564 176.304 16.516C176.32 16.46 176.352 16.412 176.4 16.372C176.448 16.332 176.508 16.32 176.58 16.336L177.888 16.624C178.008 16.648 178.072 16.7 178.08 16.78C178.096 16.86 178.096 16.92 178.08 16.96ZM171.396 12.916C171.396 13.236 171.444 13.508 171.54 13.732C171.636 13.948 171.764 14.128 171.924 14.272C172.092 14.408 172.284 14.508 172.5 14.572C172.724 14.628 172.956 14.656 173.196 14.656C173.444 14.656 173.68 14.628 173.904 14.572C174.128 14.508 174.324 14.408 174.492 14.272C174.66 14.128 174.792 13.948 174.888 13.732C174.984 13.508 175.032 13.236 175.032 12.916C175.032 12.58 174.984 12.3 174.888 12.076C174.792 11.844 174.66 11.66 174.492 11.524C174.324 11.38 174.128 11.276 173.904 11.212C173.68 11.148 173.444 11.116 173.196 11.116C172.956 11.116 172.724 11.148 172.5 11.212C172.284 11.276 172.092 11.38 171.924 11.524C171.764 11.66 171.636 11.844 171.54 12.076C171.444 12.3 171.396 12.58 171.396 12.916ZM178.92 15.28C178.92 15.512 178.876 15.724 178.788 15.916C178.708 16.1 178.576 16.192 178.392 16.192C178.304 16.192 178.232 16.144 178.176 16.048C178.12 15.952 178.092 15.796 178.092 15.58V10.888C178.092 10.608 178.024 10.412 177.888 10.3C177.76 10.188 177.544 10.092 177.24 10.012C177.184 9.996 177.148 9.964 177.132 9.916C177.116 9.86 177.116 9.808 177.132 9.76C177.148 9.704 177.176 9.656 177.216 9.616C177.264 9.576 177.32 9.56 177.384 9.568L178.74 9.76C178.868 9.776 178.936 9.816 178.944 9.88C178.96 9.936 178.968 9.984 178.968 10.024C178.968 10.072 178.96 10.148 178.944 10.252C178.928 10.356 178.92 10.492 178.92 10.66V15.28ZM183.473 20.944C183.209 20.944 183.009 20.864 182.873 20.704C182.737 20.552 182.669 20.356 182.669 20.116V17.884C182.669 17.764 182.661 17.668 182.645 17.596C182.637 17.516 182.609 17.452 182.561 17.404C182.521 17.348 182.457 17.304 182.369 17.272C182.289 17.232 182.181 17.192 182.045 17.152C181.989 17.136 181.949 17.104 181.925 17.056C181.909 17 181.905 16.948 181.913 16.9C181.929 16.844 181.957 16.796 181.997 16.756C182.045 16.716 182.105 16.7 182.177 16.708L183.317 16.828C183.437 16.844 183.501 16.884 183.509 16.948C183.525 17.004 183.533 17.052 183.533 17.092C183.533 17.148 183.525 17.22 183.509 17.308C183.501 17.396 183.497 17.52 183.497 17.68V18.304H187.973V17.68C187.973 17.56 187.965 17.464 187.949 17.392C187.933 17.312 187.901 17.244 187.853 17.188C187.813 17.132 187.753 17.088 187.673 17.056C187.593 17.016 187.485 16.976 187.349 16.936C187.293 16.92 187.253 16.888 187.229 16.84C187.213 16.784 187.209 16.732 187.217 16.684C187.233 16.628 187.261 16.58 187.301 16.54C187.349 16.5 187.409 16.484 187.481 16.492L188.621 16.624C188.741 16.64 188.805 16.68 188.813 16.744C188.829 16.8 188.837 16.848 188.837 16.888C188.837 16.944 188.829 17.016 188.813 17.104C188.805 17.192 188.801 17.316 188.801 17.476V20.464C188.801 20.568 188.749 20.672 188.645 20.776C188.549 20.888 188.433 20.944 188.297 20.944H183.473ZM186.641 10.336C186.569 10.552 186.481 10.764 186.377 10.972C186.273 11.172 186.145 11.368 185.993 11.56C186.585 11.856 187.161 12.132 187.721 12.388C188.289 12.636 188.849 12.868 189.401 13.084C189.505 13.164 189.593 13.276 189.665 13.42C189.745 13.564 189.785 13.692 189.785 13.804C189.785 13.892 189.745 13.964 189.665 14.02C189.593 14.076 189.501 14.072 189.389 14.008C188.821 13.696 188.217 13.38 187.577 13.06C186.945 12.732 186.269 12.392 185.549 12.04C185.149 12.424 184.657 12.784 184.073 13.12C183.497 13.448 182.821 13.756 182.045 14.044C181.981 14.068 181.917 14.068 181.853 14.044C181.797 14.02 181.749 13.984 181.709 13.936C181.677 13.888 181.661 13.84 181.661 13.792C181.661 13.736 181.689 13.696 181.745 13.672C182.665 13.248 183.445 12.8 184.085 12.328C184.733 11.856 185.229 11.336 185.573 10.768C185.573 10.616 185.517 10.492 185.405 10.396C185.293 10.292 185.105 10.192 184.841 10.096C184.785 10.072 184.749 10.036 184.733 9.988C184.717 9.932 184.717 9.88 184.733 9.832C184.749 9.776 184.781 9.732 184.829 9.7C184.877 9.66 184.937 9.648 185.009 9.664L186.449 10C186.569 10.024 186.633 10.076 186.641 10.156C186.657 10.236 186.657 10.296 186.641 10.336ZM180.641 15.256C180.593 15.208 180.569 15.156 180.569 15.1C180.569 15.044 180.581 14.996 180.605 14.956C180.629 14.908 180.665 14.876 180.713 14.86C180.761 14.844 180.813 14.848 180.869 14.872C180.973 14.92 181.141 14.948 181.373 14.956C181.605 14.964 181.881 14.968 182.201 14.968H190.241C190.353 14.968 190.437 14.96 190.493 14.944C190.549 14.928 190.605 14.92 190.661 14.92C190.797 14.92 190.865 14.996 190.865 15.148C190.865 15.268 190.805 15.38 190.685 15.484C190.565 15.58 190.417 15.628 190.241 15.628H182.201C182.017 15.628 181.857 15.64 181.721 15.664C181.593 15.68 181.481 15.688 181.385 15.688C181.281 15.688 181.165 15.656 181.037 15.592C180.909 15.52 180.777 15.408 180.641 15.256ZM187.973 20.284V18.964H183.497V20.008C183.497 20.192 183.585 20.284 183.761 20.284H187.973ZM192.705 12.304C192.705 12.184 192.693 12.088 192.669 12.016C192.653 11.936 192.617 11.868 192.561 11.812C192.505 11.756 192.429 11.712 192.333 11.68C192.237 11.64 192.113 11.6 191.961 11.56C191.905 11.544 191.865 11.512 191.841 11.464C191.825 11.408 191.821 11.356 191.829 11.308C191.845 11.252 191.873 11.204 191.913 11.164C191.961 11.124 192.021 11.108 192.093 11.116L193.353 11.248C193.473 11.264 193.537 11.304 193.545 11.368C193.561 11.424 193.569 11.472 193.569 11.512C193.569 11.568 193.561 11.64 193.545 11.728C193.537 11.816 193.533 11.94 193.533 12.1V16.192C193.533 16.376 193.621 16.468 193.797 16.468C194.813 16.468 195.797 16.404 196.749 16.276C197.709 16.14 198.693 15.944 199.701 15.688V10.888C199.701 10.608 199.633 10.412 199.497 10.3C199.369 10.188 199.153 10.092 198.849 10.012C198.793 9.996 198.757 9.964 198.741 9.916C198.725 9.86 198.725 9.808 198.741 9.76C198.757 9.704 198.785 9.656 198.825 9.616C198.873 9.576 198.929 9.56 198.993 9.568L200.349 9.76C200.477 9.776 200.545 9.816 200.553 9.88C200.569 9.936 200.577 9.984 200.577 10.024C200.577 10.072 200.569 10.148 200.553 10.252C200.537 10.356 200.529 10.492 200.529 10.66V19.624C200.529 19.856 200.485 20.064 200.397 20.248C200.317 20.44 200.185 20.536 200.001 20.536C199.913 20.536 199.841 20.488 199.785 20.392C199.729 20.296 199.701 20.14 199.701 19.924V16.192C198.669 16.496 197.649 16.736 196.641 16.912C195.641 17.08 194.597 17.172 193.509 17.188C193.245 17.196 193.045 17.12 192.909 16.96C192.773 16.8 192.705 16.6 192.705 16.36V12.304ZM203.798 16.252C203.798 16.436 203.886 16.528 204.062 16.528C204.91 16.544 205.81 16.488 206.762 16.36C207.714 16.232 208.762 16.028 209.906 15.748V10.888C209.906 10.608 209.838 10.412 209.702 10.3C209.574 10.188 209.358 10.092 209.054 10.012C208.998 9.996 208.962 9.964 208.946 9.916C208.93 9.86 208.93 9.808 208.946 9.76C208.962 9.704 208.99 9.656 209.03 9.616C209.078 9.576 209.134 9.56 209.198 9.568L210.554 9.76C210.682 9.776 210.75 9.816 210.758 9.88C210.774 9.936 210.782 9.984 210.782 10.024C210.782 10.072 210.774 10.148 210.758 10.252C210.742 10.356 210.734 10.492 210.734 10.66V13.924H211.994C212.106 13.924 212.19 13.916 212.246 13.9C212.302 13.884 212.358 13.876 212.414 13.876C212.462 13.876 212.506 13.9 212.546 13.948C212.594 13.996 212.618 14.048 212.618 14.104C212.618 14.152 212.598 14.204 212.558 14.26C212.518 14.316 212.466 14.368 212.402 14.416C212.346 14.464 212.278 14.504 212.198 14.536C212.126 14.568 212.058 14.584 211.994 14.584H210.734V19.624C210.734 19.856 210.69 20.064 210.602 20.248C210.522 20.44 210.39 20.536 210.206 20.536C210.118 20.536 210.046 20.488 209.99 20.392C209.934 20.296 209.906 20.14 209.906 19.924V16.252C208.77 16.58 207.694 16.824 206.678 16.984C205.662 17.144 204.694 17.232 203.774 17.248C203.51 17.256 203.31 17.18 203.174 17.02C203.038 16.86 202.97 16.66 202.97 16.42V12.328C202.97 12.12 202.926 11.976 202.838 11.896C202.758 11.816 202.59 11.756 202.334 11.716C202.27 11.708 202.226 11.68 202.202 11.632C202.178 11.576 202.17 11.52 202.178 11.464C202.186 11.408 202.206 11.36 202.238 11.32C202.278 11.272 202.322 11.248 202.37 11.248H207.29C207.402 11.248 207.486 11.24 207.542 11.224C207.598 11.208 207.654 11.2 207.71 11.2C207.758 11.2 207.802 11.224 207.842 11.272C207.89 11.32 207.914 11.372 207.914 11.428C207.914 11.476 207.894 11.528 207.854 11.584C207.814 11.64 207.762 11.692 207.698 11.74C207.642 11.788 207.574 11.828 207.494 11.86C207.422 11.892 207.354 11.908 207.29 11.908H203.798V16.252Z" fill="#FF0000"/>
</g>
<defs>
<clipPath id="clip0_43_936">
<rect width="250" height="162" fill="white"/>
</clipPath>
</defs>
</svg>
