<svg width="24" height="16" viewBox="0 0 24 16" fill="none" xmlns="http://www.w3.org/2000/svg">
<g clip-path="url(#clip0_27_28)">
<path d="M5.22434 12.063C4.80146 12.4052 4.26895 12.6193 3.68163 12.6193H1.70664C0.763786 12.6193 0 13.3762 0 14.3099C0 15.2435 0.764308 15.9999 1.70664 15.9999H3.6811C4.88029 15.9999 5.99543 15.6406 6.92576 15.0264C5.88423 14.1217 5.42377 12.9067 5.22434 12.063Z" fill="#5A8835"/>
<path d="M22.2928 12.6191H20.3183C18.9839 12.6191 17.897 11.5577 17.8678 10.243C17.8678 10.2249 17.8693 10.2073 17.8693 10.1892V7.00451C17.8693 6.07082 17.105 5.31445 16.1622 5.31445C15.2193 5.31445 14.455 6.07082 14.455 7.00451V10.1086C14.454 10.1354 14.4508 10.1618 14.4508 10.1892C14.4508 10.2073 14.4519 10.2249 14.4524 10.243C14.4232 11.5577 13.3362 12.6191 12.0018 12.6191C10.6674 12.6191 9.5486 11.5293 9.5486 10.1897V7.00503C9.5486 6.07134 8.78429 5.31497 7.84144 5.31497C6.89858 5.31497 6.13428 6.07134 6.13428 7.00503V10.1897C6.13428 13.3936 8.76654 15.9997 12.0013 15.9997C13.6249 15.9997 15.0961 15.3431 16.1595 14.2843C17.223 15.3431 18.6942 15.9997 20.3178 15.9997H22.2923C23.2351 15.9997 23.9989 15.2428 23.9989 14.3097C23.9989 13.3765 23.2351 12.6196 22.2923 12.6196L22.2928 12.6191Z" fill="#7DB74B"/>
<path d="M18.237 2.55119C18.6309 1.60944 18.1793 0.529778 17.2283 0.139694C16.2774 -0.25039 15.1871 0.196821 14.7932 1.13857C14.3993 2.08031 14.8509 3.15998 15.8019 3.55006C16.7529 3.94014 17.8431 3.49293 18.237 2.55119Z" fill="#7DB74B"/>
<path d="M7.84193 3.69135C8.87127 3.69135 9.70572 2.86502 9.70572 1.84568C9.70572 0.826338 8.87127 0 7.84193 0C6.81259 0 5.97815 0.826338 5.97815 1.84568C5.97815 2.86502 6.81259 3.69135 7.84193 3.69135Z" fill="#7DB74B"/>
</g>
<defs>
<clipPath id="clip0_27_28">
<rect width="24" height="16" fill="white"/>
</clipPath>
</defs>
</svg>
