<svg width="162" height="80" viewBox="0 0 162 80" fill="none" xmlns="http://www.w3.org/2000/svg">
<path d="M3.84 44.824C3.84 44.28 3.94133 43.8213 4.144 43.448C4.35733 43.064 4.64533 42.7547 5.008 42.52C5.37067 42.2853 5.792 42.1147 6.272 42.008C6.76267 41.9013 7.28 41.848 7.824 41.848C8.368 41.848 8.88 41.9013 9.36 42.008C9.85067 42.1147 10.272 42.2853 10.624 42.52C10.9867 42.7547 11.2747 43.064 11.488 43.448C11.7013 43.8213 11.808 44.28 11.808 44.824C11.808 45.368 11.7013 45.8267 11.488 46.2C11.2747 46.584 10.9867 46.888 10.624 47.112C10.272 47.3467 9.85067 47.5173 9.36 47.624C8.88 47.7307 8.368 47.784 7.824 47.784C7.28 47.784 6.76267 47.7307 6.272 47.624C5.792 47.5173 5.37067 47.3467 5.008 47.112C4.64533 46.888 4.35733 46.584 4.144 46.2C3.94133 45.8267 3.84 45.368 3.84 44.824ZM11.76 36.728H13.44C13.5893 36.728 13.7013 36.7173 13.776 36.696C13.8507 36.6747 13.9253 36.664 14 36.664C14.064 36.664 14.1227 36.696 14.176 36.76C14.24 36.824 14.272 36.8933 14.272 36.968C14.272 37.032 14.2453 37.1013 14.192 37.176C14.1387 37.2507 14.0693 37.32 13.984 37.384C13.9093 37.448 13.8187 37.5013 13.712 37.544C13.616 37.5867 13.5253 37.608 13.44 37.608H11.76V40.536C11.76 40.8453 11.7013 41.128 11.584 41.384C11.4773 41.6293 11.3013 41.752 11.056 41.752C10.9387 41.752 10.8427 41.688 10.768 41.56C10.6933 41.432 10.656 41.224 10.656 40.936V38.92C9.14133 39.3573 7.70667 39.6827 6.352 39.896C4.99733 40.1093 3.70667 40.2267 2.48 40.248C2.128 40.2587 1.86133 40.1573 1.68 39.944C1.49867 39.7307 1.408 39.464 1.408 39.144V35.512C1.408 35.2347 1.34933 35.0427 1.232 34.936C1.12533 34.8293 0.901333 34.7493 0.56 34.696C0.474667 34.6853 0.416 34.648 0.384 34.584C0.352 34.5093 0.341333 34.4347 0.352 34.36C0.362667 34.2853 0.389333 34.2213 0.432 34.168C0.485333 34.104 0.544 34.072 0.608 34.072H7.168C7.31733 34.072 7.42933 34.0613 7.504 34.04C7.57867 34.0187 7.65333 34.008 7.728 34.008C7.792 34.008 7.85067 34.04 7.904 34.104C7.968 34.168 8 34.2373 8 34.312C8 34.376 7.97333 34.4453 7.92 34.52C7.86667 34.5947 7.79733 34.664 7.712 34.728C7.63733 34.792 7.54667 34.8453 7.44 34.888C7.344 34.9307 7.25333 34.952 7.168 34.952H2.512V38.92C2.512 39.1653 2.62933 39.288 2.864 39.288C3.99467 39.3093 5.19467 39.2347 6.464 39.064C7.73333 38.8933 9.13067 38.6213 10.656 38.248V34.184C10.656 33.8107 10.5653 33.5493 10.384 33.4C10.2133 33.2507 9.92533 33.1227 9.52 33.016C9.44533 32.9947 9.39733 32.952 9.376 32.888C9.35467 32.8133 9.35467 32.744 9.376 32.68C9.39733 32.6053 9.43467 32.5413 9.488 32.488C9.552 32.4347 9.62667 32.4133 9.712 32.424L11.52 32.68C11.6907 32.7013 11.7813 32.7547 11.792 32.84C11.8133 32.9147 11.824 32.9787 11.824 33.032C11.824 33.096 11.8133 33.1973 11.792 33.336C11.7707 33.4747 11.76 33.656 11.76 33.88V36.728ZM4.992 44.84C4.992 45.224 5.06667 45.544 5.216 45.8C5.36533 46.0667 5.568 46.28 5.824 46.44C6.09067 46.6107 6.39467 46.7333 6.736 46.808C7.07733 46.8827 7.44 46.92 7.824 46.92C8.21867 46.92 8.58667 46.8827 8.928 46.808C9.28 46.7333 9.584 46.6107 9.84 46.44C10.096 46.28 10.2987 46.0667 10.448 45.8C10.5973 45.544 10.672 45.224 10.672 44.84C10.672 44.456 10.5973 44.1307 10.448 43.864C10.2987 43.5867 10.096 43.3627 9.84 43.192C9.584 43.0213 9.28 42.8987 8.928 42.824C8.58667 42.7493 8.21867 42.712 7.824 42.712C7.44 42.712 7.07733 42.7493 6.736 42.824C6.39467 42.8987 6.09067 43.0213 5.824 43.192C5.568 43.3627 5.36533 43.5867 5.216 43.864C5.06667 44.1307 4.992 44.456 4.992 44.84ZM20.5503 34.088C20.4329 34.6 20.2943 35.096 20.1343 35.576C19.9743 36.056 19.7823 36.52 19.5583 36.968C20.1343 37.448 20.7103 37.9067 21.2863 38.344C21.8623 38.7707 22.4383 39.1707 23.0143 39.544C23.1103 39.6293 23.2009 39.784 23.2863 40.008C23.3823 40.2213 23.4303 40.424 23.4303 40.616C23.4303 40.68 23.4143 40.7387 23.3823 40.792C23.3503 40.8453 23.3023 40.888 23.2383 40.92C23.1849 40.952 23.1263 40.968 23.0623 40.968C22.9983 40.968 22.9343 40.936 22.8703 40.872C22.3049 40.328 21.7076 39.7947 21.0783 39.272C20.4489 38.7493 19.8036 38.2373 19.1423 37.736C18.7476 38.408 18.2783 39.0267 17.7343 39.592C17.1903 40.1573 16.5503 40.664 15.8143 41.112C15.7396 41.1547 15.6596 41.1707 15.5743 41.16C15.4996 41.1387 15.4303 41.1013 15.3663 41.048C15.3129 40.9947 15.2809 40.936 15.2703 40.872C15.2596 40.808 15.2863 40.7493 15.3503 40.696C16.3529 39.8853 17.1743 38.9787 17.8143 37.976C18.4543 36.9627 18.9289 35.896 19.2383 34.776C19.2383 34.5307 19.1529 34.3387 18.9823 34.2C18.8223 34.0613 18.5663 33.928 18.2143 33.8C18.1396 33.768 18.0916 33.72 18.0703 33.656C18.0489 33.5813 18.0489 33.512 18.0703 33.448C18.0916 33.3733 18.1343 33.3147 18.1983 33.272C18.2623 33.2187 18.3423 33.2027 18.4383 33.224L20.2943 33.64C20.4543 33.672 20.5396 33.7413 20.5503 33.848C20.5609 33.9547 20.5609 34.0347 20.5503 34.088ZM26.9663 42.344C26.9663 42.6533 26.9076 42.936 26.7903 43.192C26.6836 43.4373 26.5076 43.56 26.2623 43.56C26.1449 43.56 26.0489 43.496 25.9743 43.368C25.8996 43.24 25.8623 43.032 25.8623 42.744V34.184C25.8623 33.8107 25.7716 33.5493 25.5903 33.4C25.4196 33.2507 25.1316 33.1227 24.7263 33.016C24.6516 32.9947 24.6036 32.952 24.5823 32.888C24.5609 32.8133 24.5609 32.744 24.5823 32.68C24.6036 32.6053 24.6409 32.5413 24.6943 32.488C24.7583 32.4347 24.8329 32.4133 24.9183 32.424L26.7263 32.68C26.8969 32.7013 26.9876 32.7547 26.9983 32.84C27.0196 32.9147 27.0303 32.9787 27.0303 33.032C27.0303 33.096 27.0196 33.1973 26.9983 33.336C26.9769 33.4747 26.9663 33.656 26.9663 33.88V42.344ZM19.1743 44.216C19.1743 44.0453 19.1583 43.9067 19.1263 43.8C19.0943 43.6827 19.0356 43.5867 18.9503 43.512C18.8756 43.4373 18.7689 43.3787 18.6302 43.336C18.5023 43.2827 18.3369 43.2293 18.1343 43.176C18.0596 43.1547 18.0063 43.112 17.9743 43.048C17.9529 42.9733 17.9476 42.904 17.9583 42.84C17.9796 42.7653 18.0169 42.7013 18.0703 42.648C18.1343 42.5947 18.2143 42.5733 18.3103 42.584L20.0383 42.776C20.1983 42.7973 20.2836 42.8507 20.2943 42.936C20.3156 43.0107 20.3263 43.0747 20.3263 43.128C20.3263 43.2027 20.3156 43.2987 20.2943 43.416C20.2836 43.5333 20.2783 43.6987 20.2783 43.912V46.152C20.2783 46.3973 20.3956 46.52 20.6303 46.52H26.8063C26.9556 46.52 27.0783 46.504 27.1743 46.472C27.2809 46.4507 27.3716 46.44 27.4463 46.44C27.5103 46.44 27.5689 46.472 27.6223 46.536C27.6863 46.6 27.7183 46.6693 27.7183 46.744C27.7183 46.808 27.6863 46.8773 27.6223 46.952C27.5689 47.0373 27.4943 47.112 27.3983 47.176C27.3129 47.24 27.2169 47.2933 27.1103 47.336C27.0036 47.3787 26.9023 47.4 26.8063 47.4H20.2463C19.8943 47.4 19.6276 47.2933 19.4463 47.08C19.2649 46.8773 19.1743 46.616 19.1743 46.296V44.216ZM31.0365 36.808C31.0365 36.2107 31.1272 35.704 31.3085 35.288C31.5005 34.8613 31.7618 34.52 32.0925 34.264C32.4232 33.9973 32.8018 33.8053 33.2285 33.688C33.6658 33.5707 34.1352 33.512 34.6365 33.512C35.1272 33.512 35.5912 33.5707 36.0285 33.688C36.4765 33.8053 36.8605 33.9973 37.1805 34.264C37.5112 34.52 37.7725 34.8613 37.9645 35.288C38.1565 35.704 38.2525 36.2107 38.2525 36.808C38.2525 37.4053 38.1565 37.912 37.9645 38.328C37.7725 38.744 37.5112 39.08 37.1805 39.336C36.8605 39.592 36.4765 39.7787 36.0285 39.896C35.5912 40.0133 35.1272 40.072 34.6365 40.072C34.1352 40.072 33.6658 40.0133 33.2285 39.896C32.8018 39.7787 32.4232 39.592 32.0925 39.336C31.7618 39.08 31.5005 38.744 31.3085 38.328C31.1272 37.912 31.0365 37.4053 31.0365 36.808ZM31.8205 43.064C33.1858 43.064 34.5938 43.0213 36.0445 42.936C37.4952 42.84 38.9032 42.7067 40.2685 42.536V34.184C40.2685 33.8107 40.1778 33.5493 39.9965 33.4C39.8258 33.2507 39.5378 33.1227 39.1325 33.016C39.0578 32.9947 39.0098 32.952 38.9885 32.888C38.9672 32.8133 38.9672 32.744 38.9885 32.68C39.0098 32.6053 39.0472 32.5413 39.1005 32.488C39.1645 32.4347 39.2392 32.4133 39.3245 32.424L41.1325 32.68C41.3032 32.7013 41.3938 32.7547 41.4045 32.84C41.4258 32.9147 41.4365 32.9787 41.4365 33.032C41.4365 33.096 41.4258 33.1973 41.4045 33.336C41.3832 33.4747 41.3725 33.656 41.3725 33.88V45.832C41.3725 46.1413 41.3138 46.4187 41.1965 46.664C41.0898 46.92 40.9138 47.048 40.6685 47.048C40.5512 47.048 40.4552 46.984 40.3805 46.856C40.3058 46.728 40.2685 46.52 40.2685 46.232V43.208C38.9565 43.4427 37.5752 43.624 36.1245 43.752C34.6738 43.8693 33.2392 43.9333 31.8205 43.944C31.5752 43.944 31.3618 43.96 31.1805 43.992C31.0098 44.0133 30.8605 44.024 30.7325 44.024C30.5938 44.024 30.4392 43.9813 30.2685 43.896C30.0978 43.8 29.9218 43.6507 29.7405 43.448C29.6765 43.384 29.6445 43.3147 29.6445 43.24C29.6445 43.1653 29.6605 43.1013 29.6925 43.048C29.7245 42.984 29.7725 42.9413 29.8365 42.92C29.9005 42.8987 29.9698 42.904 30.0445 42.936C30.1832 43 30.4072 43.0373 30.7165 43.048C31.0258 43.0587 31.3938 43.064 31.8205 43.064ZM32.1885 36.824C32.1885 37.272 32.2525 37.6507 32.3805 37.96C32.5085 38.2587 32.6845 38.504 32.9085 38.696C33.1325 38.8773 33.3885 39.0107 33.6765 39.096C33.9752 39.1707 34.2952 39.208 34.6365 39.208C34.9672 39.208 35.2818 39.1707 35.5805 39.096C35.8898 39.0107 36.1565 38.8773 36.3805 38.696C36.6045 38.504 36.7805 38.2587 36.9085 37.96C37.0472 37.6507 37.1165 37.272 37.1165 36.824C37.1165 36.3653 37.0472 35.9813 36.9085 35.672C36.7805 35.352 36.6045 35.096 36.3805 34.904C36.1565 34.712 35.8898 34.5787 35.5805 34.504C35.2818 34.4187 34.9672 34.376 34.6365 34.376C34.2952 34.376 33.9752 34.4187 33.6765 34.504C33.3885 34.5787 33.1325 34.712 32.9085 34.904C32.6845 35.096 32.5085 35.352 32.3805 35.672C32.2525 35.9813 32.1885 36.3653 32.1885 36.824ZM49.0791 40.808C49.0791 40.264 49.1698 39.8053 49.3511 39.432C49.5325 39.0587 49.7831 38.7547 50.1031 38.52C50.4231 38.2853 50.7965 38.1147 51.2231 38.008C51.6498 37.9013 52.1031 37.848 52.5831 37.848C53.0738 37.848 53.5325 37.9013 53.9591 38.008C54.3858 38.1147 54.7591 38.2853 55.0791 38.52C55.3991 38.7547 55.6498 39.0587 55.8311 39.432C56.0231 39.8053 56.1191 40.264 56.1191 40.808C56.1191 41.3413 56.0231 41.7947 55.8311 42.168C55.6498 42.5413 55.3991 42.8453 55.0791 43.08C54.7591 43.3147 54.3858 43.4853 53.9591 43.592C53.5325 43.688 53.0738 43.736 52.5831 43.736C52.1031 43.736 51.6498 43.688 51.2231 43.592C50.7965 43.4853 50.4231 43.3147 50.1031 43.08C49.7831 42.8453 49.5325 42.5413 49.3511 42.168C49.1698 41.7947 49.0791 41.3413 49.0791 40.808ZM50.2151 40.824C50.2151 41.1973 50.2791 41.5173 50.4071 41.784C50.5351 42.04 50.7058 42.248 50.9191 42.408C51.1325 42.568 51.3831 42.6853 51.6711 42.76C51.9591 42.824 52.2631 42.856 52.5831 42.856C52.9138 42.856 53.2231 42.824 53.5111 42.76C53.8098 42.6853 54.0658 42.568 54.2791 42.408C54.5031 42.248 54.6791 42.04 54.8071 41.784C54.9351 41.5173 54.9991 41.1973 54.9991 40.824C54.9991 40.44 54.9351 40.1147 54.8071 39.848C54.6791 39.5813 54.5031 39.368 54.2791 39.208C54.0658 39.0373 53.8098 38.9147 53.5111 38.84C53.2231 38.7653 52.9138 38.728 52.5831 38.728C52.2631 38.728 51.9591 38.7653 51.6711 38.84C51.3831 38.9147 51.1325 39.0373 50.9191 39.208C50.7058 39.368 50.5351 39.5813 50.4071 39.848C50.2791 40.1147 50.2151 40.44 50.2151 40.824ZM50.2791 36.84C50.0338 36.84 49.8205 36.856 49.6391 36.888C49.4685 36.9093 49.3191 36.92 49.1911 36.92C48.8925 36.92 48.5618 36.7227 48.1991 36.328C48.1351 36.264 48.1031 36.2 48.1031 36.136C48.1031 36.0613 48.1191 35.9973 48.1511 35.944C48.1831 35.8907 48.2311 35.8533 48.2951 35.832C48.3591 35.8107 48.4285 35.816 48.5031 35.848C48.6418 35.912 48.8658 35.9493 49.1751 35.96C49.4845 35.9707 49.8525 35.976 50.2791 35.976H56.0551C56.2045 35.976 56.3165 35.9653 56.3911 35.944C56.4658 35.9227 56.5405 35.912 56.6151 35.912C56.6791 35.912 56.7378 35.944 56.7911 36.008C56.8551 36.0613 56.8871 36.1253 56.8871 36.2C56.8871 36.264 56.8605 36.3333 56.8071 36.408C56.7538 36.4827 56.6845 36.552 56.5991 36.616C56.5245 36.68 56.4338 36.7333 56.3271 36.776C56.2311 36.8187 56.1405 36.84 56.0551 36.84H50.2791ZM52.5191 34.488C52.1245 34.488 51.7351 34.4667 51.3511 34.424C50.9778 34.3707 50.6205 34.1893 50.2791 33.88C50.2151 33.816 50.1778 33.7467 50.1671 33.672C50.1671 33.5973 50.1831 33.5333 50.2151 33.48C50.2578 33.416 50.3111 33.368 50.3751 33.336C50.4391 33.304 50.5085 33.304 50.5831 33.336C50.7218 33.4 50.9405 33.4533 51.2391 33.496C51.5485 33.528 51.9751 33.544 52.5191 33.544H54.4071C54.4711 33.544 54.5298 33.5867 54.5831 33.672C54.6365 33.7467 54.6631 33.8267 54.6631 33.912C54.6631 34.0507 54.4711 34.184 54.0871 34.312C53.7138 34.4293 53.1911 34.488 52.5191 34.488ZM59.4631 38.712H61.1431C61.2925 38.712 61.4045 38.7013 61.4791 38.68C61.5538 38.6587 61.6285 38.648 61.7031 38.648C61.7671 38.648 61.8258 38.68 61.8791 38.744C61.9431 38.808 61.9751 38.8773 61.9751 38.952C61.9751 39.016 61.9485 39.0853 61.8951 39.16C61.8418 39.2347 61.7725 39.304 61.6871 39.368C61.6125 39.432 61.5218 39.4853 61.4151 39.528C61.3191 39.5707 61.2285 39.592 61.1431 39.592H59.4631V45.832C59.4631 46.1413 59.4045 46.4187 59.2871 46.664C59.1805 46.92 59.0045 47.048 58.7591 47.048C58.6418 47.048 58.5458 46.984 58.4711 46.856C58.3965 46.728 58.3591 46.52 58.3591 46.232V34.184C58.3591 33.8107 58.2685 33.5493 58.0871 33.4C57.9165 33.2507 57.6285 33.1227 57.2231 33.016C57.1485 32.9947 57.1005 32.952 57.0791 32.888C57.0578 32.8133 57.0578 32.744 57.0791 32.68C57.1005 32.6053 57.1378 32.5413 57.1911 32.488C57.2551 32.4347 57.3298 32.4133 57.4151 32.424L59.2231 32.68C59.3938 32.7013 59.4845 32.7547 59.4951 32.84C59.5165 32.9147 59.5271 32.9787 59.5271 33.032C59.5271 33.096 59.5165 33.1973 59.4951 33.336C59.4738 33.4747 59.4631 33.656 59.4631 33.88V38.712ZM72.8134 33.016C72.952 33.016 73.0907 33.0747 73.2294 33.192C73.3787 33.2987 73.4534 33.4053 73.4534 33.512C73.4534 33.5867 73.4427 33.6827 73.4214 33.8C73.4107 33.9173 73.4054 34.0827 73.4054 34.296V36.296C73.4054 36.424 73.352 36.5627 73.2454 36.712C73.1387 36.8507 72.9947 36.92 72.8134 36.92H66.3014V38.6C66.3014 38.8453 66.4187 38.968 66.6534 38.968H73.0534C73.2027 38.968 73.3254 38.9573 73.4214 38.936C73.528 38.904 73.6187 38.888 73.6934 38.888C73.7574 38.888 73.816 38.92 73.8694 38.984C73.9334 39.048 73.9654 39.1173 73.9654 39.192C73.9654 39.256 73.9334 39.3253 73.8694 39.4C73.816 39.4747 73.7414 39.544 73.6454 39.608C73.56 39.672 73.464 39.7253 73.3574 39.768C73.2507 39.8107 73.1494 39.832 73.0534 39.832H66.2694C65.9174 39.832 65.6507 39.7307 65.4694 39.528C65.288 39.3147 65.1974 39.048 65.1974 38.728V37.4C65.1974 37.1547 65.16 36.984 65.0854 36.888C65.0214 36.7813 64.8294 36.7067 64.5094 36.664C64.424 36.6533 64.3654 36.616 64.3334 36.552C64.3014 36.488 64.2907 36.4187 64.3014 36.344C64.312 36.2693 64.3387 36.2053 64.3814 36.152C64.4347 36.088 64.4934 36.056 64.5574 36.056H72.3014V33.976H66.8294C66.584 33.976 66.3707 33.992 66.1894 34.024C66.0187 34.0453 65.8694 34.056 65.7414 34.056C65.6027 34.056 65.448 34.0133 65.2774 33.928C65.1067 33.832 64.9307 33.6827 64.7494 33.48C64.6854 33.416 64.648 33.352 64.6374 33.288C64.6374 33.2133 64.6534 33.1493 64.6854 33.096C64.728 33.032 64.7814 32.9893 64.8454 32.968C64.9094 32.9467 64.9787 32.952 65.0534 32.984C65.192 33.048 65.416 33.0853 65.7254 33.096C66.0347 33.1067 66.4027 33.112 66.8294 33.112H71.6934C72.0347 33.112 72.2747 33.096 72.4134 33.064C72.5627 33.032 72.696 33.016 72.8134 33.016ZM62.5574 42.008C62.4934 41.944 62.4614 41.8747 62.4614 41.8C62.4614 41.7253 62.4774 41.6613 62.5094 41.608C62.5414 41.544 62.5894 41.5013 62.6534 41.48C62.7174 41.4587 62.7867 41.464 62.8614 41.496C63 41.56 63.224 41.5973 63.5334 41.608C63.8427 41.6187 64.2107 41.624 64.6374 41.624H75.3574C75.5067 41.624 75.6187 41.6133 75.6934 41.592C75.768 41.5707 75.8427 41.56 75.9174 41.56C76.0987 41.56 76.1894 41.6613 76.1894 41.864C76.1894 42.024 76.1094 42.1733 75.9494 42.312C75.7894 42.44 75.592 42.504 75.3574 42.504H69.8534V46.152C69.8534 46.4613 69.7947 46.7387 69.6774 46.984C69.56 47.24 69.3734 47.368 69.1174 47.368C68.9574 47.368 68.856 47.2773 68.8134 47.096C68.7707 46.9147 68.7494 46.7333 68.7494 46.552V42.504H64.6374C64.392 42.504 64.1787 42.52 63.9974 42.552C63.8267 42.5733 63.6774 42.584 63.5494 42.584C63.4107 42.584 63.256 42.5413 63.0854 42.456C62.9147 42.36 62.7387 42.2107 62.5574 42.008ZM80.7076 38.488C80.3556 38.488 80.089 38.3867 79.9076 38.184C79.7263 37.9707 79.6356 37.704 79.6356 37.384V34.92C79.6356 34.76 79.6196 34.632 79.5876 34.536C79.5663 34.4293 79.5183 34.3387 79.4436 34.264C79.369 34.1893 79.2676 34.1307 79.1396 34.088C79.0116 34.0347 78.8463 33.9813 78.6436 33.928C78.569 33.9067 78.5156 33.864 78.4836 33.8C78.4623 33.7253 78.457 33.656 78.4676 33.592C78.489 33.5173 78.5263 33.4533 78.5796 33.4C78.6436 33.3467 78.7236 33.3253 78.8196 33.336L80.4996 33.512C80.6596 33.5333 80.745 33.5867 80.7556 33.672C80.777 33.7467 80.7876 33.8107 80.7876 33.864C80.7876 33.9387 80.777 34.0347 80.7556 34.152C80.745 34.2693 80.7396 34.4347 80.7396 34.648V37.24C80.7396 37.4853 80.857 37.608 81.0916 37.608H87.2676C87.417 37.608 87.529 37.5973 87.6036 37.576C87.6783 37.5547 87.753 37.544 87.8276 37.544C87.8916 37.544 87.9503 37.576 88.0036 37.64C88.0676 37.704 88.0996 37.7733 88.0996 37.848C88.0996 37.912 88.073 37.9813 88.0196 38.056C87.9663 38.1307 87.897 38.2 87.8116 38.264C87.737 38.328 87.6463 38.3813 87.5396 38.424C87.4436 38.4667 87.353 38.488 87.2676 38.488H80.7076ZM76.9636 40.952C76.8996 40.888 76.8676 40.8187 76.8676 40.744C76.8676 40.6693 76.8836 40.6053 76.9156 40.552C76.9476 40.488 76.9956 40.4453 77.0596 40.424C77.1236 40.4027 77.193 40.408 77.2676 40.44C77.4063 40.504 77.6303 40.5413 77.9396 40.552C78.249 40.5627 78.617 40.568 79.0436 40.568H89.7636C89.913 40.568 90.025 40.5573 90.0996 40.536C90.1743 40.5147 90.249 40.504 90.3236 40.504C90.505 40.504 90.5956 40.6053 90.5956 40.808C90.5956 40.968 90.5156 41.1173 90.3556 41.256C90.1956 41.384 89.9983 41.448 89.7636 41.448H79.0436C78.7983 41.448 78.585 41.464 78.4036 41.496C78.233 41.5173 78.0836 41.528 77.9556 41.528C77.817 41.528 77.6623 41.4853 77.4916 41.4C77.321 41.304 77.145 41.1547 76.9636 40.952ZM79.9876 44.6C79.9876 44.4293 79.9716 44.2907 79.9396 44.184C79.9076 44.0667 79.849 43.9707 79.7636 43.896C79.689 43.8213 79.5823 43.7627 79.4436 43.72C79.3156 43.6667 79.1503 43.6133 78.9476 43.56C78.873 43.5387 78.8196 43.496 78.7876 43.432C78.7663 43.3573 78.761 43.288 78.7716 43.224C78.793 43.1493 78.8303 43.0853 78.8836 43.032C78.9476 42.9787 79.0276 42.9573 79.1236 42.968L80.8516 43.16C81.0116 43.1813 81.097 43.2347 81.1076 43.32C81.129 43.3947 81.1396 43.4587 81.1396 43.512C81.1396 43.5867 81.129 43.6827 81.1076 43.8C81.097 43.9173 81.0916 44.0827 81.0916 44.296V46.152C81.0916 46.3973 81.209 46.52 81.4436 46.52H87.6196C87.769 46.52 87.8916 46.504 87.9876 46.472C88.0943 46.4507 88.185 46.44 88.2596 46.44C88.3236 46.44 88.3823 46.472 88.4356 46.536C88.4996 46.6 88.5316 46.6693 88.5316 46.744C88.5316 46.808 88.4996 46.8773 88.4356 46.952C88.3823 47.0373 88.3076 47.112 88.2116 47.176C88.1263 47.24 88.0303 47.2933 87.9236 47.336C87.817 47.3787 87.7156 47.4 87.6196 47.4H81.0596C80.7076 47.4 80.441 47.2933 80.2596 47.08C80.0783 46.8773 79.9876 46.616 79.9876 46.296V44.6ZM96.7023 38.536C96.7023 37.7787 96.7929 37.1387 96.9743 36.616C97.1663 36.0827 97.4223 35.6507 97.7423 35.32C98.0729 34.9893 98.4516 34.7493 98.8783 34.6C99.3156 34.4507 99.7849 34.376 100.286 34.376C100.745 34.376 101.177 34.4453 101.582 34.584C101.998 34.712 102.366 34.92 102.686 35.208C103.006 35.496 103.268 35.8747 103.47 36.344C103.673 36.8027 103.801 37.3573 103.854 38.008C103.993 38.0613 104.217 38.0933 104.526 38.104C104.836 38.1147 105.198 38.12 105.614 38.12H106.862V34.184C106.862 33.8107 106.772 33.5493 106.59 33.4C106.42 33.2507 106.132 33.1227 105.726 33.016C105.652 32.9947 105.604 32.952 105.582 32.888C105.561 32.8133 105.561 32.744 105.582 32.68C105.604 32.6053 105.641 32.5413 105.694 32.488C105.758 32.4347 105.833 32.4133 105.918 32.424L107.726 32.68C107.897 32.7013 107.988 32.7547 107.998 32.84C108.02 32.9147 108.03 32.9787 108.03 33.032C108.03 33.096 108.02 33.1973 107.998 33.336C107.977 33.4747 107.966 33.656 107.966 33.88V45.832C107.966 46.1413 107.908 46.4187 107.79 46.664C107.684 46.92 107.508 47.048 107.262 47.048C107.145 47.048 107.049 46.984 106.974 46.856C106.9 46.728 106.862 46.52 106.862 46.232V38.984H105.614C105.369 38.984 105.172 39 105.022 39.032C104.873 39.0533 104.734 39.064 104.606 39.064C104.51 39.064 104.398 39.0427 104.27 39C104.142 38.9573 104.009 38.888 103.87 38.792C103.849 39.496 103.737 40.0987 103.534 40.6C103.332 41.0907 103.07 41.4907 102.75 41.8C102.43 42.0987 102.057 42.3173 101.63 42.456C101.204 42.5947 100.756 42.664 100.286 42.664C99.7849 42.664 99.3156 42.5947 98.8783 42.456C98.4516 42.3067 98.0729 42.0667 97.7423 41.736C97.4223 41.4053 97.1663 40.9787 96.9743 40.456C96.7929 39.9333 96.7023 39.2933 96.7023 38.536ZM97.8543 38.552C97.8543 39.1493 97.9183 39.656 98.0463 40.072C98.1743 40.488 98.3503 40.824 98.5743 41.08C98.7983 41.336 99.0543 41.5227 99.3423 41.64C99.6409 41.7467 99.9556 41.8 100.286 41.8C100.617 41.8 100.932 41.7467 101.23 41.64C101.529 41.5227 101.785 41.336 101.998 41.08C102.222 40.824 102.398 40.488 102.526 40.072C102.654 39.656 102.718 39.1493 102.718 38.552C102.718 37.944 102.654 37.432 102.526 37.016C102.398 36.5893 102.222 36.248 101.998 35.992C101.785 35.7253 101.529 35.5333 101.23 35.416C100.932 35.2987 100.617 35.24 100.286 35.24C99.9556 35.24 99.6409 35.2987 99.3423 35.416C99.0543 35.5333 98.7983 35.7253 98.5743 35.992C98.3503 36.248 98.1743 36.5893 98.0463 37.016C97.9183 37.432 97.8543 37.944 97.8543 38.552ZM119.861 36.488H121.845V34.168C121.845 33.976 121.834 33.8213 121.813 33.704C121.791 33.576 121.743 33.4693 121.669 33.384C121.605 33.2987 121.509 33.2293 121.381 33.176C121.263 33.1227 121.103 33.0693 120.901 33.016C120.826 32.9947 120.778 32.952 120.757 32.888C120.735 32.8133 120.735 32.744 120.757 32.68C120.778 32.6053 120.815 32.5413 120.869 32.488C120.933 32.4347 121.007 32.4133 121.093 32.424L122.661 32.664C122.831 32.6853 122.922 32.7387 122.933 32.824C122.954 32.8987 122.965 32.9627 122.965 33.016C122.965 33.08 122.954 33.1813 122.933 33.32C122.911 33.4587 122.901 33.64 122.901 33.864V40.072C122.901 40.3813 122.847 40.6587 122.741 40.904C122.634 41.1387 122.463 41.256 122.229 41.256C122.122 41.256 122.031 41.192 121.957 41.064C121.882 40.936 121.845 40.7333 121.845 40.456V37.352H119.861V39.816C119.861 40.1253 119.807 40.4027 119.701 40.648C119.594 40.8827 119.429 41 119.205 41C119.098 41 119.007 40.936 118.933 40.808C118.858 40.68 118.821 40.4773 118.821 40.2V38.936C118.373 39.16 117.898 39.352 117.397 39.512C116.906 39.6613 116.383 39.7787 115.829 39.864C115.562 39.9067 115.343 39.864 115.173 39.736C115.013 39.608 114.895 39.4373 114.821 39.224C114.095 39.5867 113.231 39.8 112.229 39.864C111.877 39.8853 111.61 39.7893 111.429 39.576C111.247 39.352 111.157 39.08 111.157 38.76V35.112C111.157 34.8347 111.125 34.6427 111.061 34.536C110.997 34.4187 110.831 34.3387 110.565 34.296C110.479 34.2853 110.421 34.248 110.389 34.184C110.357 34.1093 110.346 34.0347 110.357 33.96C110.367 33.8853 110.394 33.8213 110.437 33.768C110.49 33.704 110.549 33.672 110.613 33.672H112.997C113.146 33.672 113.258 33.6613 113.333 33.64C113.407 33.6187 113.482 33.608 113.557 33.608C113.621 33.608 113.679 33.64 113.733 33.704C113.797 33.768 113.829 33.8373 113.829 33.912C113.829 33.976 113.802 34.0453 113.749 34.12C113.695 34.1947 113.626 34.264 113.541 34.328C113.466 34.392 113.375 34.4453 113.269 34.488C113.173 34.5307 113.082 34.552 112.997 34.552H112.213V38.536C112.213 38.7813 112.33 38.904 112.565 38.904C112.895 38.904 113.247 38.8773 113.621 38.824C114.005 38.7707 114.383 38.6853 114.757 38.568V35.112C114.757 34.8347 114.73 34.6427 114.677 34.536C114.634 34.4187 114.501 34.3387 114.277 34.296C114.191 34.2853 114.133 34.248 114.101 34.184C114.069 34.1093 114.058 34.0347 114.069 33.96C114.079 33.8853 114.106 33.8213 114.149 33.768C114.202 33.704 114.261 33.672 114.325 33.672H117.013C117.162 33.672 117.274 33.6613 117.349 33.64C117.423 33.6187 117.498 33.608 117.573 33.608C117.637 33.608 117.695 33.64 117.749 33.704C117.813 33.768 117.845 33.8373 117.845 33.912C117.845 33.976 117.818 34.0453 117.765 34.12C117.711 34.1947 117.642 34.264 117.557 34.328C117.482 34.392 117.391 34.4453 117.285 34.488C117.189 34.5307 117.098 34.552 117.013 34.552H115.813V38.536C115.813 38.792 115.93 38.9147 116.165 38.904C116.591 38.8613 117.018 38.7867 117.445 38.68C117.882 38.5733 118.341 38.4347 118.821 38.264V34.488C118.821 34.3067 118.81 34.1573 118.789 34.04C118.778 33.9227 118.741 33.8213 118.677 33.736C118.613 33.6507 118.522 33.5813 118.405 33.528C118.287 33.4747 118.133 33.4213 117.941 33.368C117.866 33.3467 117.818 33.304 117.797 33.24C117.775 33.176 117.775 33.1067 117.797 33.032C117.818 32.9573 117.855 32.8987 117.909 32.856C117.973 32.8027 118.047 32.7813 118.133 32.792L119.621 33C119.791 33.0213 119.882 33.0747 119.893 33.16C119.914 33.2347 119.925 33.2987 119.925 33.352C119.925 33.416 119.914 33.5173 119.893 33.656C119.871 33.7947 119.861 33.976 119.861 34.2V36.488ZM121.381 42.28C121.157 42.9627 120.879 43.592 120.549 44.168C121.071 44.648 121.583 45.08 122.085 45.464C122.586 45.8587 123.093 46.2267 123.605 46.568C123.701 46.664 123.765 46.7867 123.797 46.936C123.829 47.096 123.845 47.2773 123.845 47.48C123.845 47.5333 123.823 47.5867 123.781 47.64C123.749 47.6933 123.701 47.7307 123.637 47.752C123.583 47.784 123.519 47.7947 123.445 47.784C123.381 47.784 123.317 47.752 123.253 47.688C122.805 47.208 122.314 46.7333 121.781 46.264C121.247 45.8053 120.687 45.3467 120.101 44.888C119.343 45.9973 118.351 46.9573 117.125 47.768C117.05 47.8213 116.97 47.8373 116.885 47.816C116.81 47.8053 116.741 47.7733 116.677 47.72C116.623 47.6667 116.591 47.6027 116.581 47.528C116.57 47.464 116.597 47.4053 116.661 47.352C116.81 47.224 116.954 47.096 117.093 46.968C117.231 46.84 117.37 46.7067 117.509 46.568C117.135 46.2587 116.746 45.944 116.341 45.624C115.946 45.304 115.525 44.9893 115.077 44.68C114.287 45.8213 113.221 46.824 111.877 47.688C111.802 47.7413 111.722 47.7573 111.637 47.736C111.562 47.7253 111.493 47.6933 111.429 47.64C111.375 47.5867 111.343 47.5227 111.333 47.448C111.322 47.384 111.349 47.3253 111.413 47.272C112.245 46.6213 112.938 45.9387 113.493 45.224C114.047 44.52 114.463 43.7947 114.741 43.048C114.794 42.8347 114.778 42.6587 114.693 42.52C114.618 42.3813 114.41 42.264 114.069 42.168C113.994 42.1467 113.946 42.104 113.924 42.04C113.903 41.9653 113.903 41.896 113.924 41.832C113.946 41.7573 113.989 41.6933 114.053 41.64C114.117 41.5867 114.197 41.5707 114.293 41.592L115.973 41.944C116.133 41.976 116.218 42.0453 116.229 42.152C116.25 42.2587 116.25 42.3387 116.229 42.392C116.143 42.6693 116.042 42.936 115.925 43.192C115.807 43.448 115.679 43.6987 115.541 43.944C115.978 44.3173 116.405 44.6693 116.821 45C117.237 45.32 117.663 45.6293 118.101 45.928C118.869 45.032 119.466 44.0347 119.893 42.936C119.946 42.7227 119.919 42.5413 119.812 42.392C119.717 42.2427 119.498 42.12 119.157 42.024C119.082 42.0027 119.034 41.96 119.013 41.896C118.991 41.8213 118.991 41.752 119.013 41.688C119.034 41.6133 119.077 41.5493 119.141 41.496C119.205 41.4427 119.285 41.4267 119.381 41.448L121.125 41.832C121.285 41.864 121.37 41.9333 121.381 42.04C121.402 42.1467 121.402 42.2267 121.381 42.28ZM125.787 36.056C125.787 35.896 125.771 35.768 125.739 35.672C125.717 35.5653 125.669 35.4747 125.595 35.4C125.52 35.3253 125.419 35.2667 125.291 35.224C125.163 35.1707 124.997 35.1173 124.795 35.064C124.72 35.0427 124.667 35 124.635 34.936C124.613 34.8613 124.608 34.792 124.619 34.728C124.64 34.6533 124.677 34.5893 124.731 34.536C124.795 34.4827 124.875 34.4613 124.971 34.472L126.651 34.648C126.811 34.6693 126.896 34.7227 126.907 34.808C126.928 34.8827 126.939 34.9467 126.939 35C126.939 35.0747 126.928 35.1707 126.907 35.288C126.896 35.4053 126.891 35.5707 126.891 35.784V41.304C126.891 41.5493 127.008 41.672 127.243 41.672C128.363 41.6933 129.536 41.6187 130.763 41.448C131.989 41.2773 133.36 41.0053 134.875 40.632V34.184C134.875 33.8107 134.784 33.5493 134.603 33.4C134.432 33.2507 134.144 33.1227 133.739 33.016C133.664 32.9947 133.616 32.952 133.595 32.888C133.573 32.8133 133.573 32.744 133.595 32.68C133.616 32.6053 133.653 32.5413 133.707 32.488C133.771 32.4347 133.845 32.4133 133.931 32.424L135.739 32.68C135.909 32.7013 136 32.7547 136.011 32.84C136.032 32.9147 136.043 32.9787 136.043 33.032C136.043 33.096 136.032 33.1973 136.011 33.336C135.989 33.4747 135.979 33.656 135.979 33.88V37.912H137.659C137.808 37.912 137.92 37.9013 137.995 37.88C138.069 37.8587 138.144 37.848 138.219 37.848C138.283 37.848 138.341 37.88 138.395 37.944C138.459 38.008 138.491 38.0773 138.491 38.152C138.491 38.216 138.464 38.2853 138.411 38.36C138.357 38.4347 138.288 38.504 138.203 38.568C138.128 38.632 138.037 38.6853 137.931 38.728C137.835 38.7707 137.744 38.792 137.659 38.792H135.979V45.832C135.979 46.1413 135.92 46.4187 135.803 46.664C135.696 46.92 135.52 47.048 135.275 47.048C135.157 47.048 135.061 46.984 134.987 46.856C134.912 46.728 134.875 46.52 134.875 46.232V41.304C133.36 41.7413 131.952 42.0667 130.651 42.28C129.36 42.4933 128.096 42.6107 126.859 42.632C126.507 42.6427 126.24 42.5413 126.059 42.328C125.877 42.1147 125.787 41.848 125.787 41.528V36.056ZM141.537 36.792C141.537 36.152 141.649 35.6133 141.873 35.176C142.097 34.7387 142.401 34.3813 142.785 34.104C143.169 33.8267 143.617 33.6293 144.129 33.512C144.652 33.384 145.212 33.32 145.809 33.32C146.396 33.32 146.95 33.384 147.473 33.512C147.996 33.6293 148.449 33.8267 148.833 34.104C149.228 34.3813 149.537 34.7387 149.761 35.176C149.985 35.6133 150.097 36.152 150.097 36.792C150.097 37.4213 149.985 37.9547 149.761 38.392C149.537 38.8293 149.228 39.1867 148.833 39.464C148.449 39.7307 147.996 39.928 147.473 40.056C146.95 40.1733 146.396 40.232 145.809 40.232C145.212 40.232 144.652 40.1733 144.129 40.056C143.617 39.928 143.169 39.7307 142.785 39.464C142.401 39.1867 142.097 38.8293 141.873 38.392C141.649 37.9547 141.537 37.4213 141.537 36.792ZM142.673 36.808C142.673 37.2773 142.753 37.6773 142.913 38.008C143.084 38.328 143.313 38.5893 143.601 38.792C143.889 38.9947 144.22 39.144 144.593 39.24C144.977 39.3253 145.382 39.368 145.809 39.368C146.246 39.368 146.657 39.3253 147.041 39.24C147.425 39.144 147.761 38.9947 148.049 38.792C148.337 38.5893 148.561 38.328 148.721 38.008C148.892 37.6773 148.977 37.2773 148.977 36.808C148.977 36.328 148.892 35.9227 148.721 35.592C148.561 35.2613 148.337 34.9947 148.049 34.792C147.761 34.5787 147.425 34.424 147.041 34.328C146.657 34.232 146.246 34.184 145.809 34.184C145.382 34.184 144.977 34.232 144.593 34.328C144.22 34.424 143.889 34.5787 143.601 34.792C143.313 34.9947 143.084 35.2613 142.913 35.592C142.753 35.9227 142.673 36.328 142.673 36.808ZM139.073 44.088C139.009 44.024 138.977 43.9547 138.977 43.88C138.977 43.8053 138.993 43.7413 139.025 43.688C139.057 43.624 139.105 43.5813 139.169 43.56C139.233 43.5387 139.302 43.544 139.377 43.576C139.516 43.64 139.74 43.6773 140.049 43.688C140.358 43.6987 140.726 43.704 141.153 43.704H143.025V42.168C143.025 42.008 143.014 41.88 142.993 41.784C142.982 41.6773 142.945 41.592 142.881 41.528C142.828 41.4533 142.742 41.3947 142.625 41.352C142.518 41.2987 142.374 41.2453 142.193 41.192C142.118 41.1707 142.065 41.128 142.033 41.064C142.012 40.9893 142.006 40.92 142.017 40.856C142.038 40.7813 142.076 40.7173 142.129 40.664C142.193 40.6107 142.273 40.5893 142.369 40.6L143.889 40.76C144.049 40.7813 144.134 40.8347 144.145 40.92C144.166 40.9947 144.177 41.0587 144.177 41.112C144.177 41.1867 144.166 41.2827 144.145 41.4C144.134 41.5173 144.129 41.6827 144.129 41.896V43.704H147.953V42.104C147.953 41.944 147.942 41.816 147.921 41.72C147.9 41.6133 147.857 41.5227 147.793 41.448C147.74 41.3733 147.66 41.3147 147.553 41.272C147.446 41.2187 147.302 41.1653 147.121 41.112C147.046 41.0907 146.993 41.048 146.961 40.984C146.94 40.9093 146.934 40.84 146.945 40.776C146.966 40.7013 147.004 40.6373 147.057 40.584C147.121 40.5307 147.201 40.5093 147.297 40.52L148.817 40.696C148.977 40.7173 149.062 40.7707 149.073 40.856C149.094 40.9307 149.105 40.9947 149.105 41.048C149.105 41.1227 149.094 41.2187 149.073 41.336C149.062 41.4533 149.057 41.6187 149.057 41.832V43.704H151.873C152.022 43.704 152.134 43.6933 152.209 43.672C152.284 43.6507 152.358 43.64 152.433 43.64C152.614 43.64 152.705 43.7413 152.705 43.944C152.705 44.104 152.625 44.2533 152.465 44.392C152.305 44.52 152.108 44.584 151.873 44.584H141.153C140.908 44.584 140.694 44.6 140.513 44.632C140.342 44.6533 140.193 44.664 140.065 44.664C139.926 44.664 139.772 44.6213 139.601 44.536C139.43 44.44 139.254 44.2907 139.073 44.088ZM158.999 35.56C158.999 35.3893 158.967 35.2133 158.903 35.032C158.85 34.8507 158.754 34.6853 158.615 34.536C158.477 34.3867 158.29 34.264 158.055 34.168C157.831 34.0613 157.543 34.008 157.191 34.008C156.754 34.008 156.423 34.0827 156.199 34.232C155.986 34.3813 155.821 34.552 155.703 34.744C155.597 34.9253 155.511 35.0907 155.447 35.24C155.394 35.3893 155.314 35.464 155.207 35.464H154.647C154.477 35.464 154.391 35.3893 154.391 35.24C154.391 35.0373 154.455 34.8187 154.583 34.584C154.711 34.3387 154.893 34.1147 155.127 33.912C155.362 33.6987 155.645 33.5227 155.975 33.384C156.317 33.2453 156.695 33.176 157.111 33.176C157.719 33.176 158.215 33.2613 158.599 33.432C158.994 33.6027 159.303 33.8107 159.527 34.056C159.751 34.3013 159.906 34.5627 159.991 34.84C160.087 35.1173 160.135 35.368 160.135 35.592C160.135 36.1787 160.013 36.6693 159.767 37.064C159.522 37.448 159.25 37.7893 158.951 38.088L157.735 39.304C157.575 39.464 157.437 39.6133 157.319 39.752C157.202 39.88 157.106 40.0133 157.031 40.152C156.957 40.2907 156.903 40.44 156.871 40.6C156.839 40.76 156.823 40.952 156.823 41.176V42.088C156.823 42.3013 156.711 42.408 156.487 42.408H156.439C156.215 42.408 156.103 42.3013 156.103 42.088V40.616C156.103 40.3387 156.119 40.1093 156.151 39.928C156.183 39.736 156.237 39.5707 156.311 39.432C156.386 39.2827 156.487 39.1387 156.615 39C156.743 38.8507 156.909 38.6747 157.111 38.472L158.119 37.464C158.226 37.3573 158.333 37.24 158.439 37.112C158.546 36.9733 158.642 36.824 158.727 36.664C158.813 36.504 158.877 36.3333 158.919 36.152C158.973 35.96 158.999 35.7627 158.999 35.56ZM156.487 45.928C156.199 45.928 155.959 45.8267 155.767 45.624C155.575 45.432 155.479 45.1973 155.479 44.92C155.479 44.6427 155.575 44.408 155.767 44.216C155.959 44.0133 156.199 43.912 156.487 43.912C156.765 43.912 156.999 44.0133 157.191 44.216C157.394 44.408 157.495 44.6427 157.495 44.92C157.495 45.1973 157.394 45.432 157.191 45.624C156.999 45.8267 156.765 45.928 156.487 45.928ZM0.448 70.768C0.384 70.704 0.352 70.6347 0.352 70.56C0.352 70.4853 0.368 70.4213 0.4 70.368C0.432 70.304 0.48 70.2613 0.544 70.24C0.608 70.2187 0.677333 70.224 0.752 70.256C0.890667 70.32 1.11467 70.3573 1.424 70.368C1.73333 70.3787 2.10133 70.384 2.528 70.384H5.664V66.912C5.664 66.752 5.648 66.6187 5.616 66.512C5.59467 66.4053 5.54667 66.32 5.472 66.256C5.408 66.1813 5.312 66.1227 5.184 66.08C5.06667 66.0267 4.912 65.9733 4.72 65.92C4.64533 65.8987 4.592 65.856 4.56 65.792C4.53867 65.7173 4.53333 65.648 4.544 65.584C4.56533 65.5093 4.60267 65.4453 4.656 65.392C4.72 65.3387 4.8 65.3173 4.896 65.328L6.528 65.504C6.688 65.5253 6.77333 65.5787 6.784 65.664C6.80533 65.7387 6.816 65.8027 6.816 65.856C6.816 65.9307 6.80533 66.0267 6.784 66.144C6.77333 66.2613 6.768 66.4267 6.768 66.64V70.384H13.248C13.3973 70.384 13.5093 70.3733 13.584 70.352C13.6587 70.3307 13.7333 70.32 13.808 70.32C13.9893 70.32 14.08 70.4213 14.08 70.624C14.08 70.784 14 70.9333 13.84 71.072C13.68 71.2 13.4827 71.264 13.248 71.264H2.528C2.28267 71.264 2.06933 71.28 1.888 71.312C1.71733 71.3333 1.568 71.344 1.44 71.344C1.30133 71.344 1.14667 71.3013 0.976 71.216C0.805333 71.12 0.629333 70.9707 0.448 70.768ZM11.68 62.144C11.6693 62.5387 11.6213 62.9973 11.536 63.52C11.4613 64.0427 11.36 64.592 11.232 65.168C11.104 65.744 10.9493 66.3307 10.768 66.928C10.5973 67.5147 10.4053 68.08 10.192 68.624C10.16 68.7093 10.1067 68.768 10.032 68.8C9.95733 68.8213 9.87733 68.8213 9.792 68.8C9.71733 68.7787 9.65333 68.7413 9.6 68.688C9.54667 68.6347 9.53067 68.5707 9.552 68.496C9.79733 67.3867 9.98933 66.2827 10.128 65.184C10.2667 64.0853 10.352 62.9707 10.384 61.84H4.336C4.09067 61.84 3.87733 61.856 3.696 61.888C3.52533 61.9093 3.376 61.92 3.248 61.92C3.10933 61.92 2.95467 61.8773 2.784 61.792C2.61333 61.696 2.43733 61.5467 2.256 61.344C2.192 61.28 2.16 61.2107 2.16 61.136C2.16 61.0613 2.176 60.9973 2.208 60.944C2.24 60.88 2.288 60.8373 2.352 60.816C2.416 60.7947 2.48533 60.8 2.56 60.832C2.69867 60.896 2.92267 60.9333 3.232 60.944C3.54133 60.9547 3.90933 60.96 4.336 60.96H9.92C10.2613 60.96 10.512 60.944 10.672 60.912C10.832 60.88 10.9707 60.864 11.088 60.864C11.2267 60.864 11.3653 60.9227 11.504 61.04C11.6533 61.1467 11.728 61.2533 11.728 61.36C11.728 61.4347 11.7227 61.5307 11.712 61.648C11.7013 61.7653 11.6907 61.9307 11.68 62.144ZM19.1903 71.824C19.1903 71.28 19.2969 70.8213 19.5103 70.448C19.7236 70.064 20.0116 69.7547 20.3743 69.52C20.7476 69.2853 21.1796 69.1147 21.6703 69.008C22.1609 68.9013 22.6889 68.848 23.2543 68.848C23.8089 68.848 24.3316 68.9013 24.8223 69.008C25.3236 69.1147 25.7556 69.2853 26.1183 69.52C26.4916 69.7547 26.7849 70.064 26.9983 70.448C27.2116 70.8213 27.3183 71.28 27.3183 71.824C27.3183 72.368 27.2116 72.8267 26.9983 73.2C26.7849 73.584 26.4916 73.888 26.1183 74.112C25.7556 74.3467 25.3236 74.5173 24.8223 74.624C24.3316 74.7307 23.8089 74.784 23.2543 74.784C22.6889 74.784 22.1609 74.7307 21.6703 74.624C21.1796 74.5173 20.7476 74.3467 20.3743 74.112C20.0116 73.888 19.7236 73.584 19.5103 73.2C19.2969 72.8267 19.1903 72.368 19.1903 71.824ZM24.0383 63.728H26.2623V61.184C26.2623 60.8107 26.1716 60.5493 25.9903 60.4C25.8196 60.2507 25.5316 60.1227 25.1263 60.016C25.0516 59.9947 25.0036 59.952 24.9823 59.888C24.9609 59.8133 24.9609 59.744 24.9823 59.68C25.0036 59.6053 25.0409 59.5413 25.0943 59.488C25.1583 59.4347 25.2329 59.4133 25.3183 59.424L27.0943 59.68C27.2649 59.7013 27.3556 59.7547 27.3663 59.84C27.3876 59.9147 27.3983 59.9787 27.3983 60.032C27.3983 60.096 27.3876 60.1973 27.3663 60.336C27.3449 60.4747 27.3343 60.656 27.3343 60.88V67.632C27.3343 67.9413 27.2756 68.2187 27.1583 68.464C27.0516 68.6987 26.8809 68.816 26.6463 68.816C26.5396 68.816 26.4489 68.752 26.3743 68.624C26.2996 68.496 26.2623 68.2933 26.2623 68.016V64.592H24.0383V67.04C24.0383 67.3493 23.9796 67.6267 23.8623 67.872C23.7556 68.1067 23.5903 68.224 23.3663 68.224C23.2596 68.224 23.1689 68.16 23.0943 68.032C23.0196 67.904 22.9823 67.7013 22.9823 67.424V61.504C22.9823 61.1413 22.9023 60.8907 22.7423 60.752C22.5823 60.6027 22.3049 60.4747 21.9103 60.368C21.8356 60.3467 21.7876 60.304 21.7663 60.24C21.7449 60.176 21.7449 60.1067 21.7663 60.032C21.7876 59.9573 21.8249 59.8987 21.8783 59.856C21.9423 59.8027 22.0169 59.7813 22.1023 59.792L23.7983 60.016C23.9689 60.0373 24.0596 60.0907 24.0703 60.176C24.0916 60.2507 24.1023 60.3147 24.1023 60.368C24.1023 60.432 24.0916 60.5333 24.0703 60.672C24.0489 60.8107 24.0383 60.992 24.0383 61.216V63.728ZM20.3423 71.84C20.3423 72.224 20.4169 72.544 20.5663 72.8C20.7263 73.0667 20.9396 73.28 21.2063 73.44C21.4729 73.6107 21.7823 73.7333 22.1343 73.808C22.4863 73.8827 22.8596 73.92 23.2543 73.92C23.6596 73.92 24.0383 73.8827 24.3903 73.808C24.7529 73.7333 25.0623 73.6107 25.3183 73.44C25.5849 73.28 25.7929 73.0667 25.9423 72.8C26.1023 72.544 26.1823 72.224 26.1823 71.84C26.1823 71.456 26.1023 71.1307 25.9423 70.864C25.7929 70.5867 25.5849 70.3627 25.3183 70.192C25.0623 70.0213 24.7529 69.8987 24.3903 69.824C24.0383 69.7493 23.6596 69.712 23.2543 69.712C22.8596 69.712 22.4863 69.7493 22.1343 69.824C21.7823 69.8987 21.4729 70.0213 21.2063 70.192C20.9396 70.3627 20.7263 70.5867 20.5663 70.864C20.4169 71.1307 20.3423 71.456 20.3423 71.84ZM21.8463 67.04C21.8249 67.1573 21.7503 67.248 21.6223 67.312C21.4943 67.3653 21.3716 67.3227 21.2543 67.184C20.8063 66.672 20.3529 66.1813 19.8943 65.712C19.4356 65.2427 18.9556 64.7787 18.4543 64.32C18.1129 64.9067 17.6916 65.456 17.1903 65.968C16.6996 66.48 16.1183 66.9653 15.4463 67.424C15.3823 67.4773 15.3076 67.4987 15.2223 67.488C15.1476 67.4667 15.0783 67.4293 15.0143 67.376C14.9609 67.3227 14.9236 67.264 14.9023 67.2C14.8916 67.1253 14.9183 67.0613 14.9823 67.008C16.7636 65.4507 17.8783 63.744 18.3263 61.888C18.3263 61.6427 18.2516 61.4507 18.1023 61.312C17.9636 61.1733 17.7183 61.04 17.3663 60.912C17.2916 60.88 17.2436 60.832 17.2223 60.768C17.2009 60.6933 17.2009 60.624 17.2223 60.56C17.2436 60.4853 17.2863 60.4267 17.3503 60.384C17.4143 60.3307 17.4943 60.3147 17.5903 60.336L19.3183 60.752C19.4783 60.7947 19.5636 60.8693 19.5743 60.976C19.5849 61.072 19.5849 61.1467 19.5743 61.2C19.4463 62.0107 19.2116 62.784 18.8703 63.52C19.2969 63.9573 19.7343 64.3733 20.1823 64.768C20.6409 65.152 21.1209 65.5307 21.6223 65.904C21.6969 66.0213 21.7609 66.192 21.8143 66.416C21.8676 66.64 21.8783 66.848 21.8463 67.04ZM35.6169 66.352C35.2649 66.352 34.9982 66.2507 34.8169 66.048C34.6355 65.8347 34.5449 65.568 34.5449 65.248V62.208C34.5449 61.9307 34.5075 61.7387 34.4329 61.632C34.3582 61.5253 34.1662 61.4453 33.8569 61.392C33.7715 61.3813 33.7129 61.344 33.6809 61.28C33.6489 61.2053 33.6382 61.1307 33.6489 61.056C33.6595 60.9813 33.6862 60.9173 33.7289 60.864C33.7822 60.8 33.8409 60.768 33.9049 60.768H39.6809C39.9475 60.7573 40.1395 60.7413 40.2569 60.72C40.3742 60.688 40.4915 60.672 40.6089 60.672C40.7475 60.672 40.8862 60.7307 41.0249 60.848C41.1742 60.9547 41.2489 61.0613 41.2489 61.168C41.2489 61.2427 41.2382 61.3387 41.2169 61.456C41.2062 61.5733 41.2009 61.7387 41.2009 61.952V65.712C41.2009 65.8507 41.1315 65.9947 40.9929 66.144C40.8649 66.2827 40.7102 66.352 40.5289 66.352H35.6169ZM40.2569 72.864C40.2569 72.5013 40.3262 72.1973 40.4649 71.952C40.6142 71.7067 40.8115 71.5093 41.0569 71.36C41.3022 71.2 41.5849 71.088 41.9049 71.024C42.2355 70.9493 42.5875 70.912 42.9609 70.912C43.3235 70.912 43.6702 70.9493 44.0009 71.024C44.3315 71.088 44.6195 71.2 44.8649 71.36C45.1102 71.5093 45.3022 71.7067 45.4409 71.952C45.5902 72.1973 45.6649 72.5013 45.6649 72.864C45.6649 73.2267 45.5902 73.5307 45.4409 73.776C45.3022 74.032 45.1102 74.2347 44.8649 74.384C44.6195 74.5333 44.3315 74.64 44.0009 74.704C43.6702 74.7787 43.3235 74.816 42.9609 74.816C42.5875 74.816 42.2355 74.7787 41.9049 74.704C41.5849 74.64 41.3022 74.5333 41.0569 74.384C40.8115 74.2347 40.6142 74.032 40.4649 73.776C40.3262 73.5307 40.2569 73.2267 40.2569 72.864ZM35.6489 65.104C35.6489 65.3493 35.7662 65.472 36.0009 65.472H40.0969V61.648H35.6489V65.104ZM45.0569 63.248H46.7369C46.8862 63.248 46.9982 63.2373 47.0729 63.216C47.1475 63.1947 47.2222 63.184 47.2969 63.184C47.3609 63.184 47.4195 63.216 47.4729 63.28C47.5369 63.344 47.5689 63.4133 47.5689 63.488C47.5689 63.552 47.5422 63.6213 47.4889 63.696C47.4355 63.7707 47.3662 63.84 47.2809 63.904C47.2062 63.968 47.1155 64.0213 47.0089 64.064C46.9129 64.1067 46.8222 64.128 46.7369 64.128H45.0569V66.112C45.0569 66.4213 44.9982 66.704 44.8809 66.96C44.7742 67.2053 44.5982 67.328 44.3529 67.328C44.2355 67.328 44.1395 67.264 44.0649 67.136C43.9902 67.008 43.9529 66.8 43.9529 66.512V61.184C43.9529 60.8107 43.8622 60.5493 43.6809 60.4C43.5102 60.2507 43.2222 60.1227 42.8169 60.016C42.7422 59.9947 42.6942 59.952 42.6729 59.888C42.6515 59.8133 42.6515 59.744 42.6729 59.68C42.6942 59.6053 42.7315 59.5413 42.7849 59.488C42.8489 59.4347 42.9235 59.4133 43.0089 59.424L44.8169 59.68C44.9875 59.7013 45.0782 59.7547 45.0889 59.84C45.1102 59.9147 45.1209 59.9787 45.1209 60.032C45.1209 60.096 45.1102 60.1973 45.0889 60.336C45.0675 60.4747 45.0569 60.656 45.0569 60.88V63.248ZM36.1449 70.416C36.1449 70.2453 36.1289 70.1067 36.0969 70C36.0649 69.8827 36.0062 69.7867 35.9209 69.712C35.8462 69.6373 35.7395 69.5787 35.6009 69.536C35.4729 69.4827 35.3075 69.4293 35.1049 69.376C35.0302 69.3547 34.9769 69.312 34.9449 69.248C34.9235 69.1733 34.9182 69.104 34.9289 69.04C34.9502 68.9653 34.9875 68.9013 35.0409 68.848C35.1049 68.7947 35.1849 68.7733 35.2809 68.784L37.0089 68.976C37.1689 68.9973 37.2542 69.0507 37.2649 69.136C37.2862 69.2107 37.2969 69.2747 37.2969 69.328C37.2969 69.4027 37.2862 69.4987 37.2649 69.616C37.2542 69.7333 37.2489 69.8987 37.2489 70.112V73.152C37.2489 73.3973 37.3662 73.52 37.6009 73.52H39.2969C39.4462 73.52 39.5689 73.504 39.6649 73.472C39.7715 73.4507 39.8622 73.44 39.9369 73.44C40.0009 73.44 40.0595 73.472 40.1129 73.536C40.1769 73.6 40.2089 73.6693 40.2089 73.744C40.2089 73.808 40.1769 73.8773 40.1129 73.952C40.0595 74.0373 39.9849 74.112 39.8889 74.176C39.8035 74.24 39.7075 74.2933 39.6009 74.336C39.4942 74.3787 39.3929 74.4 39.2969 74.4H37.2169C36.8649 74.4 36.5982 74.2933 36.4169 74.08C36.2355 73.8773 36.1449 73.616 36.1449 73.296V70.416ZM41.3609 72.88C41.3609 73.2853 41.5155 73.5627 41.8249 73.712C42.1342 73.872 42.5129 73.952 42.9609 73.952C43.4089 73.952 43.7875 73.872 44.0969 73.712C44.4062 73.5627 44.5609 73.2853 44.5609 72.88C44.5609 72.464 44.4062 72.176 44.0969 72.016C43.7875 71.856 43.4089 71.776 42.9609 71.776C42.7475 71.776 42.5395 71.7973 42.3369 71.84C42.1449 71.872 41.9742 71.9307 41.8249 72.016C41.6862 72.1013 41.5742 72.2133 41.4889 72.352C41.4035 72.5013 41.3609 72.6773 41.3609 72.88ZM41.6009 70.336C41.3555 70.336 41.1422 70.352 40.9609 70.384C40.7902 70.4053 40.6409 70.416 40.5129 70.416C40.3742 70.416 40.2195 70.3733 40.0489 70.288C39.8782 70.2027 39.7022 70.0587 39.5209 69.856C39.4569 69.792 39.4195 69.728 39.4089 69.664C39.4089 69.5893 39.4249 69.5307 39.4569 69.488C39.4995 69.4347 39.5529 69.3973 39.6169 69.376C39.6809 69.3547 39.7502 69.36 39.8249 69.392C39.9635 69.456 40.1875 69.4933 40.4969 69.504C40.8062 69.5147 41.1742 69.52 41.6009 69.52H45.6649C45.8142 69.52 45.9262 69.5093 46.0009 69.488C46.0755 69.4667 46.1502 69.456 46.2249 69.456C46.2889 69.456 46.3475 69.4827 46.4009 69.536C46.4649 69.5893 46.4969 69.6533 46.4969 69.728C46.4969 69.792 46.4702 69.8613 46.4169 69.936C46.3635 70.0107 46.2942 70.08 46.2089 70.144C46.1342 70.1973 46.0435 70.2453 45.9369 70.288C45.8409 70.32 45.7502 70.336 45.6649 70.336H41.6009ZM42.8809 68.832C42.6782 68.832 42.5022 68.832 42.3529 68.832C42.2142 68.8213 42.0809 68.8 41.9529 68.768C41.8249 68.7253 41.6969 68.6613 41.5689 68.576C41.4409 68.4907 41.2915 68.3733 41.1209 68.224C41.0569 68.16 41.0195 68.096 41.0089 68.032C41.0089 67.9573 41.0249 67.8933 41.0569 67.84C41.0995 67.776 41.1529 67.7333 41.2169 67.712C41.2809 67.6907 41.3502 67.696 41.4249 67.728C41.4889 67.76 41.5529 67.792 41.6169 67.824C41.6915 67.8453 41.7769 67.8667 41.8729 67.888C41.9795 67.8987 42.1075 67.9093 42.2569 67.92C42.4169 67.9307 42.6249 67.936 42.8809 67.936H44.4809C44.5449 67.936 44.6035 67.968 44.6569 68.032C44.7102 68.096 44.7369 68.1707 44.7369 68.256C44.7369 68.32 44.7102 68.3893 44.6569 68.464C44.6035 68.528 44.5075 68.592 44.3689 68.656C44.2302 68.7093 44.0382 68.752 43.7929 68.784C43.5582 68.816 43.2542 68.832 42.8809 68.832ZM48.5991 63.888C48.5991 63.3013 48.6898 62.8 48.8711 62.384C49.0631 61.968 49.3245 61.632 49.6551 61.376C49.9858 61.12 50.3645 60.9333 50.7911 60.816C51.2285 60.6987 51.6978 60.64 52.1991 60.64C52.6898 60.64 53.1538 60.6987 53.5911 60.816C54.0391 60.9333 54.4231 61.12 54.7431 61.376C55.0738 61.632 55.3351 61.968 55.5271 62.384C55.7191 62.8 55.8151 63.3013 55.8151 63.888C55.8151 64.4747 55.7191 64.9707 55.5271 65.376C55.3351 65.7813 55.0738 66.112 54.7431 66.368C54.4231 66.624 54.0391 66.8107 53.5911 66.928C53.1538 67.0347 52.6898 67.088 52.1991 67.088C51.6978 67.088 51.2285 67.0347 50.7911 66.928C50.3645 66.8107 49.9858 66.624 49.6551 66.368C49.3245 66.112 49.0631 65.7813 48.8711 65.376C48.6898 64.9707 48.5991 64.4747 48.5991 63.888ZM58.5031 69.28C58.3858 69.632 58.2525 69.9787 58.1031 70.32C57.9538 70.6507 57.7885 70.976 57.6071 71.296C58.0978 71.744 58.5831 72.1493 59.0631 72.512C59.5431 72.8853 60.0285 73.2373 60.5191 73.568C60.6151 73.664 60.6791 73.7867 60.7111 73.936C60.7431 74.096 60.7591 74.2773 60.7591 74.48C60.7591 74.5333 60.7378 74.5867 60.6951 74.64C60.6631 74.6933 60.6151 74.7307 60.5511 74.752C60.4978 74.784 60.4338 74.7947 60.3591 74.784C60.2951 74.784 60.2311 74.752 60.1671 74.688C59.7298 74.2293 59.2551 73.776 58.7431 73.328C58.2418 72.8907 57.7085 72.448 57.1431 72C56.4071 73.0347 55.4418 73.9573 54.2471 74.768C54.1725 74.8213 54.0925 74.8373 54.0071 74.816C53.9325 74.8053 53.8631 74.7733 53.7991 74.72C53.7458 74.6667 53.7138 74.6027 53.7031 74.528C53.6925 74.464 53.7191 74.4053 53.7831 74.352C53.9325 74.224 54.0765 74.096 54.2151 73.968C54.3645 73.84 54.5031 73.7067 54.6311 73.568C54.2898 73.2693 53.9325 72.9707 53.5591 72.672C53.1858 72.3733 52.7965 72.08 52.3911 71.792C52.0071 72.336 51.5538 72.848 51.0311 73.328C50.5085 73.808 49.9218 74.2613 49.2711 74.688C49.1965 74.7413 49.1165 74.7573 49.0311 74.736C48.9565 74.7253 48.8871 74.6933 48.8231 74.64C48.7698 74.5867 48.7378 74.5227 48.7271 74.448C48.7165 74.384 48.7431 74.3253 48.8071 74.272C49.6391 73.6213 50.3325 72.9387 50.8871 72.224C51.4418 71.52 51.8578 70.7947 52.1351 70.048C52.1885 69.8347 52.1725 69.6587 52.0871 69.52C52.0125 69.3813 51.8045 69.264 51.4631 69.168C51.3885 69.1467 51.3405 69.104 51.3191 69.04C51.2978 68.9653 51.2978 68.896 51.3191 68.832C51.3405 68.7573 51.3831 68.6933 51.4471 68.64C51.5111 68.5867 51.5911 68.5707 51.6871 68.592L53.3671 68.944C53.5271 68.976 53.6125 69.0453 53.6231 69.152C53.6445 69.2587 53.6445 69.3387 53.6231 69.392C53.4205 69.968 53.1645 70.5333 52.8551 71.088C53.2605 71.4293 53.6551 71.7493 54.0391 72.048C54.4338 72.3467 54.8338 72.6347 55.2391 72.912C56.0178 72.0053 56.6098 71.0133 57.0151 69.936C57.0685 69.7227 57.0418 69.5413 56.9351 69.392C56.8391 69.2427 56.6205 69.12 56.2791 69.024C56.2045 69.0027 56.1565 68.96 56.1351 68.896C56.1138 68.8213 56.1138 68.752 56.1351 68.688C56.1565 68.6133 56.1991 68.5493 56.2631 68.496C56.3271 68.4427 56.4071 68.4267 56.5031 68.448L58.2471 68.832C58.4071 68.864 58.4925 68.9333 58.5031 69.04C58.5245 69.1467 58.5245 69.2267 58.5031 69.28ZM49.7511 63.904C49.7511 64.3413 49.8151 64.7093 49.9431 65.008C50.0711 65.296 50.2471 65.5307 50.4711 65.712C50.6951 65.8933 50.9511 66.0267 51.2391 66.112C51.5378 66.1867 51.8578 66.224 52.1991 66.224C52.5298 66.224 52.8445 66.1867 53.1431 66.112C53.4525 66.0267 53.7191 65.8933 53.9431 65.712C54.1671 65.5307 54.3431 65.296 54.4711 65.008C54.6098 64.7093 54.6791 64.3413 54.6791 63.904C54.6791 63.456 54.6098 63.0827 54.4711 62.784C54.3431 62.4747 54.1671 62.224 53.9431 62.032C53.7191 61.84 53.4525 61.7067 53.1431 61.632C52.8445 61.5467 52.5298 61.504 52.1991 61.504C51.8578 61.504 51.5378 61.5467 51.2391 61.632C50.9511 61.7067 50.6951 61.84 50.4711 62.032C50.2471 62.224 50.0711 62.4747 49.9431 62.784C49.8151 63.0827 49.7511 63.456 49.7511 63.904ZM59.4631 64.448V67.04C59.4631 67.3493 59.4045 67.632 59.2871 67.888C59.1805 68.1333 59.0045 68.256 58.7591 68.256C58.6418 68.256 58.5458 68.192 58.4711 68.064C58.3965 67.936 58.3591 67.728 58.3591 67.44V61.184C58.3591 60.8107 58.2685 60.5493 58.0871 60.4C57.9165 60.2507 57.6285 60.1227 57.2231 60.016C57.1485 59.9947 57.1005 59.952 57.0791 59.888C57.0578 59.8133 57.0578 59.744 57.0791 59.68C57.1005 59.6053 57.1378 59.5413 57.1911 59.488C57.2551 59.4347 57.3298 59.4133 57.4151 59.424L59.2231 59.68C59.3938 59.7013 59.4845 59.7547 59.4951 59.84C59.5165 59.9147 59.5271 59.9787 59.5271 60.032C59.5271 60.096 59.5165 60.1973 59.4951 60.336C59.4738 60.4747 59.4631 60.656 59.4631 60.88V63.568H61.1431C61.2925 63.568 61.4045 63.5573 61.4791 63.536C61.5538 63.5147 61.6285 63.504 61.7031 63.504C61.7671 63.504 61.8258 63.536 61.8791 63.6C61.9431 63.664 61.9751 63.7333 61.9751 63.808C61.9751 63.872 61.9485 63.9413 61.8951 64.016C61.8418 64.0907 61.7725 64.16 61.6871 64.224C61.6125 64.288 61.5218 64.3413 61.4151 64.384C61.3191 64.4267 61.2285 64.448 61.1431 64.448H59.4631ZM63.4054 65.536C63.4054 64.7787 63.496 64.1387 63.6774 63.616C63.8694 63.0827 64.1254 62.6507 64.4454 62.32C64.776 61.9893 65.1547 61.7493 65.5814 61.6C66.0187 61.4507 66.488 61.376 66.9894 61.376C67.448 61.376 67.88 61.4453 68.2854 61.584C68.7014 61.712 69.0694 61.92 69.3894 62.208C69.7094 62.496 69.9707 62.8747 70.1734 63.344C70.376 63.8027 70.504 64.3573 70.5574 65.008C70.696 65.0613 70.92 65.0933 71.2294 65.104C71.5387 65.1147 71.9014 65.12 72.3174 65.12H73.5654V61.184C73.5654 60.8107 73.4747 60.5493 73.2934 60.4C73.1227 60.2507 72.8347 60.1227 72.4294 60.016C72.3547 59.9947 72.3067 59.952 72.2854 59.888C72.264 59.8133 72.264 59.744 72.2854 59.68C72.3067 59.6053 72.344 59.5413 72.3974 59.488C72.4614 59.4347 72.536 59.4133 72.6214 59.424L74.4294 59.68C74.6 59.7013 74.6907 59.7547 74.7014 59.84C74.7227 59.9147 74.7334 59.9787 74.7334 60.032C74.7334 60.096 74.7227 60.1973 74.7014 60.336C74.68 60.4747 74.6694 60.656 74.6694 60.88V72.832C74.6694 73.1413 74.6107 73.4187 74.4934 73.664C74.3867 73.92 74.2107 74.048 73.9654 74.048C73.848 74.048 73.752 73.984 73.6774 73.856C73.6027 73.728 73.5654 73.52 73.5654 73.232V65.984H72.3174C72.072 65.984 71.8747 66 71.7254 66.032C71.576 66.0533 71.4374 66.064 71.3094 66.064C71.2134 66.064 71.1014 66.0427 70.9734 66C70.8454 65.9573 70.712 65.888 70.5734 65.792C70.552 66.496 70.44 67.0987 70.2374 67.6C70.0347 68.0907 69.7734 68.4907 69.4534 68.8C69.1334 69.0987 68.76 69.3173 68.3334 69.456C67.9067 69.5947 67.4587 69.664 66.9894 69.664C66.488 69.664 66.0187 69.5947 65.5814 69.456C65.1547 69.3067 64.776 69.0667 64.4454 68.736C64.1254 68.4053 63.8694 67.9787 63.6774 67.456C63.496 66.9333 63.4054 66.2933 63.4054 65.536ZM64.5574 65.552C64.5574 66.1493 64.6214 66.656 64.7494 67.072C64.8774 67.488 65.0534 67.824 65.2774 68.08C65.5014 68.336 65.7574 68.5227 66.0454 68.64C66.344 68.7467 66.6587 68.8 66.9894 68.8C67.32 68.8 67.6347 68.7467 67.9334 68.64C68.232 68.5227 68.488 68.336 68.7014 68.08C68.9254 67.824 69.1014 67.488 69.2294 67.072C69.3574 66.656 69.4214 66.1493 69.4214 65.552C69.4214 64.944 69.3574 64.432 69.2294 64.016C69.1014 63.5893 68.9254 63.248 68.7014 62.992C68.488 62.7253 68.232 62.5333 67.9334 62.416C67.6347 62.2987 67.32 62.24 66.9894 62.24C66.6587 62.24 66.344 62.2987 66.0454 62.416C65.7574 62.5333 65.5014 62.7253 65.2774 62.992C65.0534 63.248 64.8774 63.5893 64.7494 64.016C64.6214 64.432 64.5574 64.944 64.5574 65.552ZM79.4276 63.792C79.4276 63.152 79.5396 62.6133 79.7636 62.176C79.9876 61.7387 80.2916 61.3813 80.6756 61.104C81.0596 60.8267 81.5076 60.6293 82.0196 60.512C82.5423 60.384 83.1023 60.32 83.6996 60.32C84.2863 60.32 84.841 60.384 85.3636 60.512C85.8863 60.6293 86.3396 60.8267 86.7236 61.104C87.1183 61.3813 87.4276 61.7387 87.6516 62.176C87.8756 62.6133 87.9876 63.152 87.9876 63.792C87.9876 64.4213 87.8756 64.9547 87.6516 65.392C87.4276 65.8293 87.1183 66.1867 86.7236 66.464C86.3396 66.7307 85.8863 66.928 85.3636 67.056C84.841 67.1733 84.2863 67.232 83.6996 67.232C83.1023 67.232 82.5423 67.1733 82.0196 67.056C81.5076 66.928 81.0596 66.7307 80.6756 66.464C80.2916 66.1867 79.9876 65.8293 79.7636 65.392C79.5396 64.9547 79.4276 64.4213 79.4276 63.792ZM80.5636 63.808C80.5636 64.2773 80.6436 64.6773 80.8036 65.008C80.9743 65.328 81.2036 65.5893 81.4916 65.792C81.7796 65.9947 82.1103 66.144 82.4836 66.24C82.8676 66.3253 83.273 66.368 83.6996 66.368C84.137 66.368 84.5476 66.3253 84.9316 66.24C85.3156 66.144 85.6516 65.9947 85.9396 65.792C86.2276 65.5893 86.4516 65.328 86.6116 65.008C86.7823 64.6773 86.8676 64.2773 86.8676 63.808C86.8676 63.328 86.7823 62.9227 86.6116 62.592C86.4516 62.2613 86.2276 61.9947 85.9396 61.792C85.6516 61.5787 85.3156 61.424 84.9316 61.328C84.5476 61.232 84.137 61.184 83.6996 61.184C83.273 61.184 82.8676 61.232 82.4836 61.328C82.1103 61.424 81.7796 61.5787 81.4916 61.792C81.2036 61.9947 80.9743 62.2613 80.8036 62.592C80.6436 62.9227 80.5636 63.328 80.5636 63.808ZM76.9636 71.088C76.8996 71.024 76.8676 70.9547 76.8676 70.88C76.8676 70.8053 76.8836 70.7413 76.9156 70.688C76.9476 70.624 76.9956 70.5813 77.0596 70.56C77.1236 70.5387 77.193 70.544 77.2676 70.576C77.4063 70.64 77.6303 70.6773 77.9396 70.688C78.249 70.6987 78.617 70.704 79.0436 70.704H80.9156V69.168C80.9156 69.008 80.905 68.88 80.8836 68.784C80.873 68.6773 80.8356 68.592 80.7716 68.528C80.7183 68.4533 80.633 68.3947 80.5156 68.352C80.409 68.2987 80.265 68.2453 80.0836 68.192C80.009 68.1707 79.9556 68.128 79.9236 68.064C79.9023 67.9893 79.897 67.92 79.9076 67.856C79.929 67.7813 79.9663 67.7173 80.0196 67.664C80.0836 67.6107 80.1636 67.5893 80.2596 67.6L81.7796 67.76C81.9396 67.7813 82.025 67.8347 82.0356 67.92C82.057 67.9947 82.0676 68.0587 82.0676 68.112C82.0676 68.1867 82.057 68.2827 82.0356 68.4C82.025 68.5173 82.0196 68.6827 82.0196 68.896V70.704H85.8436V69.104C85.8436 68.944 85.833 68.816 85.8116 68.72C85.7903 68.6133 85.7476 68.5227 85.6836 68.448C85.6303 68.3733 85.5503 68.3147 85.4436 68.272C85.337 68.2187 85.193 68.1653 85.0116 68.112C84.937 68.0907 84.8836 68.048 84.8516 67.984C84.8303 67.9093 84.825 67.84 84.8356 67.776C84.857 67.7013 84.8943 67.6373 84.9476 67.584C85.0116 67.5307 85.0916 67.5093 85.1876 67.52L86.7076 67.696C86.8676 67.7173 86.953 67.7707 86.9636 67.856C86.985 67.9307 86.9956 67.9947 86.9956 68.048C86.9956 68.1227 86.985 68.2187 86.9636 68.336C86.953 68.4533 86.9476 68.6187 86.9476 68.832V70.704H89.7636C89.913 70.704 90.025 70.6933 90.0996 70.672C90.1743 70.6507 90.249 70.64 90.3236 70.64C90.505 70.64 90.5956 70.7413 90.5956 70.944C90.5956 71.104 90.5156 71.2533 90.3556 71.392C90.1956 71.52 89.9983 71.584 89.7636 71.584H79.0436C78.7983 71.584 78.585 71.6 78.4036 71.632C78.233 71.6533 78.0836 71.664 77.9556 71.664C77.817 71.664 77.6623 71.6213 77.4916 71.536C77.321 71.44 77.145 71.2907 76.9636 71.088ZM92.2819 74.704C92.2499 74.736 92.2125 74.7467 92.1699 74.736C92.1272 74.736 92.0845 74.72 92.0419 74.688C92.0099 74.6667 91.9832 74.64 91.9619 74.608C91.9512 74.576 91.9565 74.544 91.9779 74.512C92.1272 74.3413 92.2765 74.1173 92.4259 73.84C92.5859 73.5627 92.6659 73.296 92.6659 73.04C92.6659 72.944 92.6445 72.8747 92.6019 72.832C92.5592 72.8 92.4792 72.7733 92.3619 72.752C92.2125 72.7307 92.0579 72.6667 91.8979 72.56C91.7485 72.4533 91.6739 72.272 91.6739 72.016C91.6739 71.728 91.7699 71.5147 91.9619 71.376C92.1539 71.2373 92.3672 71.168 92.6019 71.168C92.7832 71.168 92.9379 71.2053 93.0659 71.28C93.1939 71.3547 93.2952 71.4507 93.3699 71.568C93.4552 71.6747 93.5139 71.7973 93.5459 71.936C93.5885 72.064 93.6099 72.192 93.6099 72.32C93.6099 72.5973 93.5459 72.8693 93.4179 73.136C93.3005 73.4027 93.1619 73.6427 93.0019 73.856C92.8525 74.08 92.7032 74.2667 92.5539 74.416C92.4152 74.5653 92.3245 74.6613 92.2819 74.704ZM101.912 63.84C101.912 63.2 102.024 62.656 102.248 62.208C102.472 61.76 102.776 61.3973 103.16 61.12C103.544 60.832 103.992 60.6293 104.504 60.512C105.027 60.384 105.587 60.32 106.184 60.32C106.771 60.32 107.325 60.384 107.848 60.512C108.371 60.6293 108.824 60.832 109.208 61.12C109.603 61.3973 109.912 61.76 110.136 62.208C110.36 62.656 110.472 63.2 110.472 63.84C110.472 64.48 110.36 65.0187 110.136 65.456C109.912 65.8933 109.603 66.2507 109.208 66.528C108.824 66.8053 108.371 67.008 107.848 67.136C107.325 67.2533 106.771 67.312 106.184 67.312C105.587 67.312 105.027 67.2533 104.504 67.136C103.992 67.008 103.544 66.8053 103.16 66.528C102.776 66.2507 102.472 65.8933 102.248 65.456C102.024 65.0187 101.912 64.48 101.912 63.84ZM103.048 63.856C103.048 64.336 103.128 64.7413 103.288 65.072C103.459 65.392 103.688 65.6587 103.976 65.872C104.264 66.0747 104.595 66.224 104.968 66.32C105.352 66.4053 105.757 66.448 106.184 66.448C106.621 66.448 107.032 66.4053 107.416 66.32C107.8 66.224 108.136 66.0747 108.424 65.872C108.712 65.6587 108.936 65.392 109.096 65.072C109.267 64.7413 109.352 64.336 109.352 63.856C109.352 63.3653 109.267 62.9493 109.096 62.608C108.936 62.2667 108.712 61.9947 108.424 61.792C108.136 61.5787 107.8 61.424 107.416 61.328C107.032 61.232 106.621 61.184 106.184 61.184C105.757 61.184 105.352 61.232 104.968 61.328C104.595 61.424 104.264 61.5787 103.976 61.792C103.688 61.9947 103.459 62.2667 103.288 62.608C103.128 62.9493 103.048 63.3653 103.048 63.856ZM99.448 71.088C99.384 71.024 99.352 70.9547 99.352 70.88C99.352 70.8053 99.368 70.7413 99.4 70.688C99.432 70.624 99.48 70.5813 99.544 70.56C99.608 70.5387 99.6773 70.544 99.752 70.576C99.8907 70.64 100.115 70.6773 100.424 70.688C100.733 70.6987 101.101 70.704 101.528 70.704H105.784V69.472C105.784 69.312 105.768 69.1787 105.736 69.072C105.715 68.9653 105.667 68.88 105.592 68.816C105.528 68.7413 105.432 68.6827 105.304 68.64C105.187 68.5867 105.032 68.5333 104.84 68.48C104.765 68.4587 104.712 68.416 104.68 68.352C104.659 68.2773 104.653 68.208 104.664 68.144C104.685 68.0693 104.723 68.0053 104.776 67.952C104.84 67.8987 104.92 67.8773 105.016 67.888L106.648 68.064C106.808 68.0853 106.893 68.1387 106.904 68.224C106.925 68.2987 106.936 68.3627 106.936 68.416C106.936 68.4907 106.925 68.5867 106.904 68.704C106.893 68.8213 106.888 68.9867 106.888 69.2V70.704H112.248C112.397 70.704 112.509 70.6933 112.584 70.672C112.659 70.6507 112.733 70.64 112.808 70.64C112.989 70.64 113.08 70.7413 113.08 70.944C113.08 71.104 113 71.2533 112.84 71.392C112.68 71.52 112.483 71.584 112.248 71.584H101.528C101.283 71.584 101.069 71.6 100.888 71.632C100.717 71.6533 100.568 71.664 100.44 71.664C100.301 71.664 100.147 71.6213 99.976 71.536C99.8053 71.44 99.6293 71.2907 99.448 71.088ZM124.254 68.352C124.393 68.352 124.532 68.4107 124.67 68.528C124.82 68.6347 124.894 68.7413 124.894 68.848C124.894 68.9227 124.884 69.0187 124.862 69.136C124.852 69.2533 124.846 69.4187 124.846 69.632V71.28C124.846 71.408 124.793 71.5467 124.686 71.696C124.58 71.8347 124.436 71.904 124.254 71.904H117.71V73.328C117.71 73.5733 117.828 73.696 118.062 73.696H124.59C124.74 73.696 124.862 73.68 124.958 73.648C125.065 73.6267 125.156 73.616 125.23 73.616C125.294 73.616 125.353 73.648 125.406 73.712C125.47 73.776 125.502 73.8453 125.502 73.92C125.502 73.984 125.47 74.0533 125.406 74.128C125.353 74.2027 125.278 74.272 125.182 74.336C125.097 74.4 125.001 74.4533 124.894 74.496C124.788 74.5387 124.686 74.56 124.59 74.56H117.678C117.326 74.56 117.06 74.4533 116.878 74.24C116.697 74.0373 116.606 73.776 116.606 73.456V72.384C116.606 72.1387 116.569 71.968 116.494 71.872C116.43 71.7653 116.238 71.6907 115.918 71.648C115.833 71.6373 115.774 71.6 115.742 71.536C115.71 71.472 115.7 71.4027 115.71 71.328C115.721 71.2533 115.748 71.1893 115.79 71.136C115.844 71.072 115.902 71.04 115.966 71.04H123.742V69.312H118.158C117.913 69.312 117.7 69.328 117.518 69.36C117.348 69.3813 117.198 69.392 117.07 69.392C116.932 69.392 116.777 69.3493 116.606 69.264C116.436 69.168 116.26 69.0187 116.078 68.816C116.014 68.752 115.977 68.688 115.966 68.624C115.966 68.5493 115.982 68.4853 116.014 68.432C116.057 68.368 116.11 68.3253 116.174 68.304C116.238 68.2827 116.308 68.288 116.382 68.32C116.521 68.384 116.745 68.4213 117.054 68.432C117.364 68.4427 117.732 68.448 118.158 68.448H123.326C123.593 68.4373 123.785 68.4213 123.902 68.4C124.02 68.368 124.137 68.352 124.254 68.352ZM113.854 66.368C113.79 66.304 113.758 66.2347 113.758 66.16C113.758 66.0853 113.774 66.0213 113.806 65.968C113.838 65.904 113.886 65.8613 113.95 65.84C114.014 65.8187 114.084 65.824 114.158 65.856C114.297 65.92 114.521 65.9573 114.83 65.968C115.14 65.9787 115.508 65.984 115.934 65.984H126.654C126.804 65.984 126.916 65.9733 126.99 65.952C127.065 65.9307 127.14 65.92 127.214 65.92C127.396 65.92 127.486 66.0213 127.486 66.224C127.486 66.384 127.406 66.5333 127.246 66.672C127.086 66.8 126.889 66.864 126.654 66.864H115.934C115.689 66.864 115.476 66.88 115.294 66.912C115.124 66.9333 114.974 66.944 114.846 66.944C114.708 66.944 114.553 66.9013 114.382 66.816C114.212 66.72 114.036 66.5707 113.854 66.368ZM117.598 64.48C117.246 64.48 116.98 64.3787 116.798 64.176C116.617 63.9627 116.526 63.696 116.526 63.376V61.504C116.526 61.344 116.51 61.216 116.478 61.12C116.457 61.0133 116.409 60.9227 116.334 60.848C116.26 60.7733 116.158 60.7147 116.03 60.672C115.902 60.6187 115.737 60.5653 115.534 60.512C115.46 60.4907 115.406 60.448 115.374 60.384C115.353 60.3093 115.348 60.24 115.358 60.176C115.38 60.1013 115.417 60.0373 115.47 59.984C115.534 59.9307 115.614 59.9093 115.71 59.92L117.39 60.096C117.55 60.1173 117.636 60.1707 117.646 60.256C117.668 60.3307 117.678 60.3947 117.678 60.448C117.678 60.5227 117.668 60.6187 117.646 60.736C117.636 60.8533 117.63 61.0187 117.63 61.232V63.232C117.63 63.4773 117.748 63.6 117.982 63.6H124.158C124.308 63.6 124.42 63.5893 124.494 63.568C124.569 63.5467 124.644 63.536 124.718 63.536C124.782 63.536 124.841 63.568 124.894 63.632C124.958 63.696 124.99 63.7653 124.99 63.84C124.99 63.904 124.964 63.9733 124.91 64.048C124.857 64.1227 124.788 64.192 124.702 64.256C124.628 64.32 124.537 64.3733 124.43 64.416C124.334 64.4587 124.244 64.48 124.158 64.48H117.598ZM130.917 62.272C130.917 61.9947 130.858 61.8027 130.741 61.696C130.634 61.5893 130.41 61.5093 130.069 61.456C129.983 61.4453 129.925 61.408 129.893 61.344C129.861 61.2693 129.85 61.1947 129.861 61.12C129.871 61.0453 129.898 60.9813 129.941 60.928C129.994 60.864 130.053 60.832 130.117 60.832H138.389C138.538 60.832 138.65 60.8213 138.725 60.8C138.799 60.7787 138.874 60.768 138.949 60.768C139.013 60.768 139.071 60.8 139.125 60.864C139.189 60.928 139.221 60.9973 139.221 61.072C139.221 61.136 139.194 61.2053 139.141 61.28C139.087 61.3547 139.018 61.424 138.933 61.488C138.858 61.552 138.767 61.6053 138.661 61.648C138.565 61.6907 138.474 61.712 138.389 61.712H132.021V65.968C132.021 66.2133 132.138 66.336 132.373 66.336H138.597C138.746 66.336 138.858 66.3253 138.933 66.304C139.007 66.2827 139.082 66.272 139.157 66.272C139.221 66.272 139.279 66.304 139.333 66.368C139.397 66.432 139.429 66.5013 139.429 66.576C139.429 66.64 139.402 66.7093 139.349 66.784C139.295 66.8587 139.226 66.928 139.141 66.992C139.066 67.056 138.975 67.1093 138.869 67.152C138.773 67.1947 138.682 67.216 138.597 67.216H131.989C131.637 67.216 131.37 67.1147 131.189 66.912C131.007 66.6987 130.917 66.432 130.917 66.112V62.272ZM128.261 71.088C128.197 71.024 128.165 70.9547 128.165 70.88C128.165 70.8053 128.181 70.7413 128.213 70.688C128.245 70.624 128.293 70.5813 128.357 70.56C128.421 70.5387 128.49 70.544 128.565 70.576C128.703 70.64 128.927 70.6773 129.237 70.688C129.546 70.6987 129.914 70.704 130.341 70.704H134.597V69.472C134.597 69.312 134.581 69.1787 134.549 69.072C134.527 68.9653 134.479 68.88 134.405 68.816C134.341 68.7413 134.245 68.6827 134.117 68.64C133.999 68.5867 133.845 68.5333 133.653 68.48C133.578 68.4587 133.525 68.416 133.493 68.352C133.471 68.2773 133.466 68.208 133.477 68.144C133.498 68.0693 133.535 68.0053 133.589 67.952C133.653 67.8987 133.733 67.8773 133.829 67.888L135.461 68.064C135.621 68.0853 135.706 68.1387 135.717 68.224C135.738 68.2987 135.749 68.3627 135.749 68.416C135.749 68.4907 135.738 68.5867 135.717 68.704C135.706 68.8213 135.701 68.9867 135.701 69.2V70.704H141.061C141.21 70.704 141.322 70.6933 141.397 70.672C141.471 70.6507 141.546 70.64 141.621 70.64C141.802 70.64 141.893 70.7413 141.893 70.944C141.893 71.104 141.813 71.2533 141.653 71.392C141.493 71.52 141.295 71.584 141.061 71.584H130.341C130.095 71.584 129.882 71.6 129.701 71.632C129.53 71.6533 129.381 71.664 129.253 71.664C129.114 71.664 128.959 71.6213 128.789 71.536C128.618 71.44 128.442 71.2907 128.261 71.088Z" fill="#434343"/>
<path d="M19 19.6653C16.2503 21.885 11.2446 22.9419 6.7577 20.9324C2.06135 18.8292 -0.653562 14.0688 0.135535 9.29524C0.930716 4.48179 4.9831 0.647823 9.98882 0C5.8591 3.67344 4.40431 8.03708 6.68991 12.9996C8.97377 17.9573 13.3512 19.957 19 19.6653Z" fill="#747474"/>
</svg>
