<svg width="60" height="40" viewBox="0 0 60 40" fill="none" xmlns="http://www.w3.org/2000/svg">
<g clip-path="url(#clip0_21_248)">
<path d="M13.0608 30.1577C12.0037 31.0133 10.6724 31.5484 9.20406 31.5484H4.2666C1.90946 31.5484 0 33.4406 0 35.7749C0 38.1091 1.91077 40 4.2666 40H9.20276C12.2007 40 14.9886 39.1017 17.3144 37.5663C14.7106 35.3044 13.5594 32.2671 13.0608 30.1577Z" fill="#5A8835"/>
<path d="M55.732 31.5487H50.7959C47.4599 31.5487 44.7425 28.8952 44.6694 25.6084C44.6694 25.5632 44.6733 25.5192 44.6733 25.474V17.5123C44.6733 15.178 42.7625 13.2871 40.4054 13.2871C38.0483 13.2871 36.1375 15.178 36.1375 17.5123V25.2724C36.1349 25.3396 36.1271 25.4055 36.1271 25.474C36.1271 25.5192 36.1297 25.5632 36.131 25.6084C36.0579 28.8952 33.3405 31.5487 30.0045 31.5487C26.6685 31.5487 23.8715 28.8241 23.8715 25.4753V17.5136C23.8715 15.1793 21.9607 13.2884 19.6036 13.2884C17.2465 13.2884 15.3357 15.1793 15.3357 17.5136V25.4753C15.3357 33.4849 21.9164 40.0003 30.0032 40.0003C34.0623 40.0003 37.7403 38.3588 40.3989 35.7118C43.0575 38.3588 46.7355 40.0003 50.7946 40.0003H55.7307C58.0879 40.0003 59.9973 38.1081 59.9973 35.7752C59.9973 33.4422 58.0879 31.55 55.7307 31.55L55.732 31.5487Z" fill="#7DB74B"/>
<path d="M45.5926 6.37895C46.5774 4.02458 45.4484 1.32542 43.0709 0.350213C40.6935 -0.624998 37.9678 0.49303 36.983 2.8474C35.9983 5.20176 37.1273 7.90092 39.5047 8.87613C41.8822 9.85134 44.6078 8.73331 45.5926 6.37895Z" fill="#7DB74B"/>
<path d="M19.605 9.22838C22.1784 9.22838 24.2645 7.16254 24.2645 4.61419C24.2645 2.06584 22.1784 0 19.605 0C17.0317 0 14.9456 2.06584 14.9456 4.61419C14.9456 7.16254 17.0317 9.22838 19.605 9.22838Z" fill="#7DB74B"/>
</g>
<defs>
<clipPath id="clip0_21_248">
<rect width="60" height="40" fill="white"/>
</clipPath>
</defs>
</svg>
