<svg width="18" height="18" viewBox="0 0 18 18" fill="none" xmlns="http://www.w3.org/2000/svg">
<path d="M17.7877 8.51818C17.7535 8.47768 16.9375 7.52129 15.6604 6.90507C15.4045 6.78146 15.1519 6.68609 14.9071 6.60449C15.0109 6.55769 15.1147 6.5127 15.2191 6.45838C16.477 5.80317 17.2633 4.82249 17.2963 4.78107C17.5168 4.50299 17.5534 4.12109 17.3893 3.80609C17.2336 3.50729 16.9252 3.32188 16.5913 3.32188C16.5733 3.32188 16.5553 3.32248 16.537 3.32339C16.4842 3.3267 15.2296 3.40861 13.972 4.06378C13.0726 4.53238 12.4204 5.1621 12.1063 5.50107C11.9815 5.43688 11.8438 5.39996 11.7001 5.39996H9.75516C9.49567 3.97498 9.51817 2.53856 9.87335 1.11836C9.94054 0.849551 9.88024 0.564539 9.70956 0.346148C9.53888 0.127758 9.27728 0 9.00007 0H6.30007C6.02286 0 5.76127 0.127793 5.59058 0.346184C5.4199 0.564574 5.35957 0.849586 5.42679 1.11839C5.7382 2.36461 5.812 3.6237 5.65211 4.87621C5.57111 4.78501 4.75692 3.89011 3.50831 3.31502C2.22036 2.7219 0.963353 2.7006 0.910548 2.7C0.906962 2.7 0.903341 2.7 0.900036 2.7C0.549036 2.7 0.229853 2.90401 0.0825482 3.22351C-0.0659518 3.546 -0.0110378 3.92551 0.222646 4.1928C0.252036 4.22641 0.852646 4.89871 1.80995 5.46511C1.07044 5.61691 0.564048 5.83622 0.532548 5.85032C0.208865 5.99523 3.64494e-05 6.31712 3.64494e-05 6.67202C3.64494e-05 7.02724 0.208829 7.34882 0.532829 7.49373C0.581134 7.51532 1.73162 8.02202 3.15004 8.02202C4.30474 8.02202 5.27105 7.68962 5.62022 7.55311C5.80982 8.86201 5.75251 10.1787 5.42672 11.4816C5.391 11.625 5.391 11.775 5.42672 11.9181C5.83833 13.5648 5.83833 15.2349 5.42672 16.8816C5.35954 17.1504 5.41983 17.4354 5.59051 17.6538C5.7612 17.8722 6.02286 18 6.30007 18H11.7001C11.9773 18 12.2389 17.8722 12.4096 17.6538C12.5802 17.4354 12.6406 17.1504 12.5734 16.8816C12.1617 15.2349 12.1617 13.5648 12.5734 11.9181C12.6091 11.7747 12.6091 11.6247 12.5734 11.4816C12.4333 10.9215 12.3585 10.3581 12.3139 9.79443C12.4651 10.0905 12.6487 10.4031 12.8767 10.7115C13.72 11.8518 14.8117 12.4755 14.8579 12.5013C14.9956 12.579 15.1483 12.6174 15.3001 12.6174C15.4891 12.6174 15.6772 12.558 15.8353 12.441C16.1209 12.2298 16.2553 11.8707 16.1791 11.5239C16.1698 11.4813 15.9736 10.6365 15.433 9.70232C16.3225 9.97172 17.0338 9.99661 17.0734 9.9978C17.0824 9.99812 17.0914 9.99812 17.1001 9.99812C17.4448 9.99812 17.7601 9.80103 17.9104 9.4893C18.0649 9.17009 18.0169 8.78941 17.7877 8.51818ZM0.900072 3.6C0.900072 3.6 2.00317 3.61259 3.13207 4.13251C4.26066 4.6524 4.98758 5.48251 4.98758 5.48251C4.98758 5.48251 3.88449 5.46993 2.75558 4.95C1.62668 4.43011 0.900072 3.6 0.900072 3.6ZM3.15007 7.12199C1.90747 7.12199 0.900072 6.67199 0.900072 6.67199C0.900072 6.67199 1.90747 6.22199 3.15007 6.22199C4.39267 6.22199 5.40007 6.67199 5.40007 6.67199C5.40007 6.67199 4.39267 7.12199 3.15007 7.12199ZM8.12707 16.8816C8.10907 16.9542 8.12317 17.0268 8.12317 17.1C7.51535 17.1 6.90785 17.1 6.30007 17.1C6.71256 15.45 6.72817 13.8 6.38438 12.15H8.17028C8.52606 13.7217 8.51945 15.312 8.12707 16.8816ZM6.38438 6.75H8.17028C8.50869 8.2446 8.50869 9.7554 8.17028 11.25H6.38438C6.69695 9.74999 6.69695 8.25001 6.38438 6.75ZM8.29055 5.7459C8.26654 5.7768 8.26175 5.81639 8.24224 5.84972H6.38438C6.72817 4.20001 6.71259 2.55002 6.30007 0.9C7.20007 0.9 8.10007 0.9 9.00007 0.9C8.62207 2.4114 8.59236 3.9228 8.85157 5.43421C8.63346 5.47232 8.42917 5.56861 8.29055 5.7459ZM9.00007 17.1C9.41256 15.45 9.42817 13.8 9.08438 12.15H11.6155C11.272 13.8 11.2876 15.45 11.7001 17.1C10.8001 17.1 9.90007 17.1 9.00007 17.1ZM11.6158 11.25H9.08466C9.42817 9.60001 9.41256 7.94999 9.00007 6.3C9.90007 6.3 10.8001 6.3 11.7001 6.3C11.2875 7.94999 11.272 9.60001 11.6158 11.25ZM14.3878 4.86151C15.49 4.28762 16.5913 4.22132 16.5913 4.22132C16.5913 4.22132 15.9057 5.08591 14.8036 5.6598C14.1178 6.0171 13.4326 6.1773 13.0126 6.24751C12.9373 6.2505 12.8629 6.25922 12.7921 6.28021C12.6703 6.29582 12.6001 6.3 12.6001 6.3C12.6001 6.3 13.2855 5.4354 14.3878 4.86151ZM13.6003 10.1766C12.8614 9.17761 12.6241 8.1 12.6241 8.1C12.6241 8.1 12.7723 8.1849 12.994 8.3442C13.1242 8.45638 13.2766 8.5764 13.4419 8.69818C13.7242 8.94238 14.0401 9.2571 14.3239 9.64107C15.0628 10.6404 15.3001 11.7177 15.3001 11.7177C15.3001 11.7177 14.3392 11.1756 13.6003 10.1766ZM14.8783 8.52599C14.5417 8.36367 14.2477 8.17439 13.993 7.9881C13.8313 7.85011 13.6813 7.73279 13.5496 7.6371C13.2451 7.371 13.0726 7.1718 13.0546 7.15078C13.0678 7.14867 13.0792 7.1472 13.093 7.14509C13.3035 7.15707 14.2783 7.2372 15.2698 7.71539C16.3888 8.25539 17.1007 9.09868 17.1007 9.09868C17.1007 9.09868 15.9973 9.06599 14.8783 8.52599Z" fill="black"/>
</svg>
