<svg width="18" height="18" viewBox="0 0 18 18" fill="none" xmlns="http://www.w3.org/2000/svg">
<path d="M15.3582 2.63721C13.6571 0.936152 11.4004 0 8.99537 0C6.59029 0 4.33363 0.936152 2.63258 2.63721C-0.655372 5.92516 -0.883701 11.1882 2.06556 14.7387C1.77634 15.3209 1.31207 15.9983 0.623275 16.337C0.292197 16.5006 0.105728 16.8545 0.16281 17.2199C0.219893 17.5852 0.501499 17.8706 0.866827 17.9277C1.03807 17.9543 1.28163 17.981 1.57845 17.981C2.3738 17.981 3.5459 17.7945 4.74463 16.9307C6.08036 17.6499 7.54167 18 8.99156 18C11.3205 18 13.6267 17.0981 15.362 15.3628C17.063 13.6617 17.9992 11.4051 17.9992 9C17.9992 6.59493 17.0592 4.33827 15.3582 2.63721ZM14.6313 14.6359C12.0626 17.2047 8.08585 17.7146 4.95774 15.8765C4.75224 15.7548 4.49727 15.7928 4.33363 15.9564C4.31841 15.9641 4.30319 15.9755 4.29177 15.9869C3.26048 16.786 2.24822 16.9535 1.57845 16.9535H1.57465C2.34717 16.3903 2.83427 15.5531 3.11968 14.9023C3.16535 14.792 3.17296 14.6778 3.14632 14.5712C3.1349 14.4685 3.09304 14.3658 3.02074 14.282C0.235115 11.1349 0.379724 6.33996 3.35562 3.36406C6.46471 0.254968 11.5222 0.254968 14.6275 3.36406C17.7404 6.47315 17.7404 11.5269 14.6313 14.6359Z" fill="black"/>
<path d="M8.99548 9.63159C9.34437 9.63159 9.62719 9.34876 9.62719 8.99988C9.62719 8.65099 9.34437 8.36816 8.99548 8.36816C8.6466 8.36816 8.36377 8.65099 8.36377 8.99988C8.36377 9.34876 8.6466 9.63159 8.99548 9.63159Z" fill="black"/>
<path d="M12.2529 9.63159C12.6018 9.63159 12.8846 9.34876 12.8846 8.99988C12.8846 8.65099 12.6018 8.36816 12.2529 8.36816C11.904 8.36816 11.6212 8.65099 11.6212 8.99988C11.6212 9.34876 11.904 9.63159 12.2529 9.63159Z" fill="black"/>
<path d="M5.73791 9.63159C6.0868 9.63159 6.36963 9.34876 6.36963 8.99988C6.36963 8.65099 6.0868 8.36816 5.73791 8.36816C5.38903 8.36816 5.1062 8.65099 5.1062 8.99988C5.1062 9.34876 5.38903 9.63159 5.73791 9.63159Z" fill="black"/>
</svg>
