<svg width="100" height="90" viewBox="0 0 100 90" fill="none" xmlns="http://www.w3.org/2000/svg">
<path d="M99.1226 34.4178C99.0867 34.4178 99.0518 34.4068 99.0224 34.3863L50.5033 0.508697C50.3557 0.406081 50.1802 0.351241 50.0006 0.351549C49.8209 0.351856 49.6456 0.407295 49.4983 0.510415L1.32873 34.386C1.29062 34.4127 1.24347 34.4233 1.19763 34.4152C1.1518 34.4071 1.11103 34.3811 1.08431 34.3429C1.05758 34.3047 1.04709 34.2575 1.05513 34.2115C1.06318 34.1656 1.0891 34.1247 1.1272 34.0979L49.2968 0.222356C49.5031 0.0780093 49.7485 0.000416096 50 1.6688e-06C50.2515 -0.000412759 50.4971 0.0763708 50.7039 0.220037L99.2229 34.0975C99.2536 34.119 99.2766 34.1496 99.2887 34.1851C99.3008 34.2205 99.3012 34.2589 99.29 34.2946C99.2788 34.3304 99.2566 34.3616 99.2264 34.3837C99.1963 34.4059 99.1599 34.4178 99.1226 34.4178L99.1226 34.4178Z" fill="#3F3D56"/>
<path d="M4.0813 35.6188L50.0483 1.46338L96.3641 38.0491L52.4167 64.1692L28.5571 58.7165L4.0813 35.6188Z" fill="#E6E6E6"/>
<path d="M30.5712 80.3022H7.86235C7.72292 80.3024 7.58481 80.275 7.45593 80.2216C7.32705 80.1682 7.20994 80.0899 7.11127 79.9911C7.01261 79.8923 6.93434 79.775 6.88094 79.6459C6.82754 79.5167 6.80005 79.3783 6.80005 79.2385C6.80005 79.0987 6.82754 78.9603 6.88094 78.8311C6.93434 78.702 7.01261 78.5847 7.11127 78.4859C7.20994 78.3871 7.32705 78.3088 7.45593 78.2554C7.58481 78.202 7.72292 78.1746 7.86235 78.1748H30.5712C30.7106 78.1746 30.8487 78.202 30.9776 78.2554C31.1065 78.3088 31.2236 78.3871 31.3223 78.4859C31.4209 78.5847 31.4992 78.702 31.5526 78.8311C31.606 78.9603 31.6335 79.0987 31.6335 79.2385C31.6335 79.3783 31.606 79.5167 31.5526 79.6459C31.4992 79.775 31.4209 79.8923 31.3223 79.9911C31.2236 80.0899 31.1065 80.1682 30.9776 80.2216C30.8487 80.275 30.7106 80.3024 30.5712 80.3022Z" fill="#5A8835"/>
<path d="M16.0098 75.7289H7.86235C7.72292 75.7291 7.58481 75.7017 7.45593 75.6484C7.32705 75.595 7.20994 75.5167 7.11127 75.4179C7.01261 75.3191 6.93434 75.2018 6.88094 75.0726C6.82754 74.9435 6.80005 74.8051 6.80005 74.6653C6.80005 74.5255 6.82754 74.387 6.88094 74.2579C6.93434 74.1287 7.01261 74.0114 7.11127 73.9126C7.20994 73.8138 7.32705 73.7355 7.45593 73.6821C7.58481 73.6288 7.72292 73.6014 7.86235 73.6016H16.0098C16.1492 73.6014 16.2873 73.6288 16.4162 73.6821C16.5451 73.7355 16.6622 73.8138 16.7609 73.9126C16.8595 74.0114 16.9378 74.1287 16.9912 74.2579C17.0446 74.387 17.0721 74.5255 17.0721 74.6653C17.0721 74.8051 17.0446 74.9435 16.9912 75.0726C16.9378 75.2018 16.8595 75.3191 16.7609 75.4179C16.6622 75.5167 16.5451 75.595 16.4162 75.6484C16.2873 75.7017 16.1492 75.7291 16.0098 75.7289Z" fill="#5A8835"/>
<path d="M50.6947 54.6429C50.5221 54.6431 50.3511 54.6095 50.1913 54.544L21.842 42.7506V5.83525C21.8424 5.50882 21.9719 5.19587 22.2021 4.96505C22.4324 4.73423 22.7445 4.60438 23.0701 4.604H77.4561C77.7817 4.60438 78.0938 4.73423 78.324 4.96505C78.5543 5.19587 78.6838 5.50882 78.6841 5.83525V42.7764L78.6309 42.7992L51.2133 54.5383C51.0491 54.6074 50.8728 54.643 50.6947 54.6429Z" fill="white"/>
<path d="M50.6947 54.7308C50.5107 54.731 50.3284 54.6952 50.158 54.6255L21.7544 42.8094V5.83531C21.7548 5.48556 21.8935 5.15025 22.1402 4.90293C22.3869 4.65562 22.7213 4.51651 23.0702 4.51611H77.4561C77.805 4.51651 78.1394 4.65562 78.3861 4.90293C78.6328 5.15025 78.7715 5.48556 78.7719 5.83531V42.8345L51.2478 54.6192C51.0727 54.693 50.8847 54.731 50.6947 54.7308ZM22.1053 42.5744L50.2918 54.3003C50.5547 54.4072 50.8491 54.4054 51.1107 54.2954L78.4211 42.6023V5.83531C78.4208 5.57883 78.319 5.33294 78.1381 5.15158C77.9572 4.97022 77.712 4.8682 77.4562 4.8679H23.0702C22.8144 4.8682 22.5691 4.97022 22.3882 5.15158C22.2073 5.33294 22.1056 5.57883 22.1053 5.83531L22.1053 42.5744Z" fill="#3F3D56"/>
<path d="M98.7719 34.0659H98.7368L78.5965 42.6882L51.0404 54.4853C50.9327 54.5307 50.8172 54.5544 50.7004 54.555C50.5835 54.5556 50.4678 54.5331 50.3596 54.4889L21.9298 42.6636L1.29472 34.08L1.26319 34.0659H1.22807C0.902477 34.0663 0.590321 34.1961 0.360091 34.4269C0.129862 34.6578 0.000361272 34.9707 0 35.2972V88.7686C0.000361735 89.0951 0.129862 89.408 0.360091 89.6388C0.590321 89.8697 0.902477 89.9995 1.22807 89.9999H98.7719C99.0975 89.9995 99.4097 89.8697 99.6399 89.6388C99.8701 89.408 99.9996 89.0951 100 88.7686V35.2972C99.9996 34.9707 99.8701 34.6578 99.6399 34.4269C99.4097 34.1961 99.0975 34.0663 98.7719 34.0659ZM99.6491 88.7686C99.649 89.0018 99.5566 89.2255 99.3921 89.3904C99.2276 89.5553 99.0045 89.648 98.7719 89.6481H1.22807C0.995453 89.648 0.77239 89.5553 0.607905 89.3904C0.443419 89.2255 0.35097 89.0018 0.350877 88.7686V35.2972C0.351195 35.0697 0.439186 34.8512 0.596453 34.6873C0.753719 34.5234 0.968087 34.4268 1.19475 34.4177L21.9298 43.0435L50.2246 54.8142C50.5309 54.9392 50.8741 54.9373 51.179 54.809L78.5965 43.0699L98.8071 34.4177C99.0333 34.4275 99.2471 34.5244 99.4039 34.6882C99.5608 34.852 99.6486 35.0701 99.6491 35.2972V88.7686Z" fill="#3F3D56"/>
<path d="M50.4114 44.1748C49.3648 44.1768 48.346 43.8375 47.5086 43.2081L47.4567 43.169L36.5249 34.7776C36.0187 34.3887 35.5938 33.9036 35.2745 33.3501C34.9552 32.7965 34.7478 32.1853 34.6641 31.5514C34.5804 30.9175 34.622 30.2733 34.7867 29.6555C34.9513 29.0377 35.2357 28.4585 35.6236 27.9509C36.0115 27.4433 36.4953 27.0173 37.0475 26.6972C37.5996 26.3771 38.2092 26.1692 38.8415 26.0852C39.4737 26.0013 40.1163 26.0431 40.7325 26.2082C41.3487 26.3732 41.9264 26.6584 42.4327 27.0473L49.5134 32.4908L66.2464 10.612C66.6345 10.1046 67.1184 9.67871 67.6707 9.35879C68.2229 9.03886 68.8326 8.83113 69.4649 8.74744C70.0972 8.66376 70.7398 8.70576 71.3559 8.87106C71.972 9.03636 72.5496 9.32171 73.0557 9.71082L72.9517 9.85244L73.0584 9.71288C74.0794 10.4996 74.7474 11.6602 74.9159 12.94C75.0844 14.2199 74.7397 15.5145 73.9573 16.5399L54.2753 42.2745C53.8201 42.8676 53.2348 43.3475 52.5647 43.677C51.8946 44.0066 51.1578 44.1769 50.4114 44.1748Z" fill="#5A8835"/>
</svg>
