<svg width="16" height="16" viewBox="0 0 16 16" fill="none" xmlns="http://www.w3.org/2000/svg">
<path fill-rule="evenodd" clip-rule="evenodd" d="M8.5 2.5C8.5 2.22386 8.27614 2 8 2C7.72386 2 7.5 2.22386 7.5 2.5V3.5C7.5 3.77614 7.72386 4 8 4C8.27614 4 8.5 3.77614 8.5 3.5V2.5ZM11.5 10V8.5C11.5 6.567 9.933 5 8 5C6.067 5 4.5 6.567 4.5 8.5V10H11.5ZM4 8.5V10C2.89543 10 2 10.8954 2 12V13.5V14H2.5H13.5H14V13.5V12C14 10.8954 13.1046 10 12 10V8.5C12 6.29086 10.2091 4.5 8 4.5C5.79086 4.5 4 6.29086 4 8.5ZM11.5 10.5H12C12.8284 10.5 13.5 11.1716 13.5 12V13.5H2.5V12C2.5 11.1716 3.17157 10.5 4 10.5H4.5H11.5ZM13.3536 4.35355C13.5488 4.54882 13.5488 4.8654 13.3536 5.06066L12.6464 5.76777C12.4512 5.96303 12.1346 5.96303 11.9393 5.76777C11.7441 5.5725 11.7441 5.25592 11.9393 5.06066L12.6464 4.35355C12.8417 4.15829 13.1583 4.15829 13.3536 4.35355ZM3.35355 5.76762C3.54882 5.96288 3.8654 5.96288 4.06066 5.76762C4.25592 5.57235 4.25592 5.25577 4.06066 5.06051L3.35355 4.3534C3.15829 4.15814 2.84171 4.15814 2.64645 4.3534C2.45119 4.54866 2.45119 4.86525 2.64645 5.06051L3.35355 5.76762Z" fill="#606060"/>
</svg>
