<svg width="250" height="160" viewBox="0 0 250 160" fill="none" xmlns="http://www.w3.org/2000/svg">
<g clip-path="url(#clip0_25_527)">
<path d="M127.68 159.661C135.199 159.661 141.295 154.125 141.295 147.296C141.295 140.468 135.199 134.932 127.68 134.932C120.161 134.932 114.065 140.468 114.065 147.296C114.065 154.125 120.161 159.661 127.68 159.661Z" fill="#5A8835"/>
<path d="M209.015 158.966C216.632 156.889 224.729 154.722 230.77 149.784C236.168 145.371 239.812 138.632 237.576 132.014C235.344 125.409 228.66 121.005 221.758 118.815C217.844 117.573 213.749 116.883 209.656 116.342C205.206 115.753 200.736 115.271 196.269 114.807C178.18 112.928 160.022 111.78 141.797 111.364C132.804 111.158 123.813 111.163 114.819 111.282C106.786 111.387 98.3264 111.385 90.8747 108.284C85.0801 105.873 79.8208 101.487 78.2062 95.7229C76.3424 89.0691 79.7801 82.2931 84.7116 77.4742C87.311 74.9341 90.3491 72.7963 93.4831 70.8305C96.883 68.6978 100.402 66.7162 103.996 64.8665C111.076 61.2252 118.478 58.1262 126.125 55.6017C129.897 54.3561 133.726 53.2813 137.587 52.2899C140.848 51.4527 144.119 50.6143 147.27 49.4736C153.362 47.2686 159.157 43.5334 160.706 37.41C162.174 31.6064 159.699 25.3062 155.359 20.9949C150.339 16.0069 142.769 13.8204 135.511 13.4666C127.364 13.0694 119.404 14.9213 111.746 17.2716C103.578 19.7783 95.586 22.6606 87.2456 24.691C78.9749 26.7025 70.5443 28.1257 62.0301 28.9477C57.8622 29.3508 53.5682 29.8059 49.3755 29.4973C45.8616 29.2387 42.3656 28.3002 39.7759 26.0354C37.5554 24.0935 36.2326 21.4246 36.6873 18.6081C36.7699 18.0966 37.6256 18.314 37.5435 18.8225C36.99 22.2509 39.5561 25.4101 42.7184 27.0284C46.3731 28.8988 50.8203 28.9013 54.8892 28.6874C63.7118 28.2035 72.4747 27.0531 81.087 25.2481C89.5496 23.4927 97.7099 20.9834 105.861 18.3028C113.602 15.757 121.517 13.2722 129.787 12.7208C136.964 12.2423 144.512 13.1918 150.764 16.5976C156.259 19.5908 160.299 24.5826 161.586 30.3107C162.844 35.9081 161.102 41.5421 156.436 45.4481C151.606 49.4924 144.982 51.2215 138.809 52.814C130.98 54.8338 123.319 57.1947 115.903 60.2603C108.387 63.3588 101.178 67.0394 94.3565 71.2613C87.7723 75.3475 81.2744 80.489 79.192 87.7787C78.2219 91.1744 78.401 94.7759 80.0241 97.9832C81.4673 100.835 83.8441 103.234 86.6129 105.084C93.2192 109.499 101.545 110.405 109.525 110.496C118.488 110.597 127.451 110.322 136.416 110.456C154.687 110.728 172.921 111.738 191.117 113.486C195.676 113.924 200.23 114.408 204.778 114.939C208.869 115.416 212.974 115.891 216.996 116.739C224.147 118.246 231.106 121.144 235.551 126.651C237.523 129.038 238.745 131.866 239.087 134.835C239.398 137.932 238.563 141.035 237.021 143.791C233.607 149.89 227.214 153.769 220.424 156.318C216.788 157.683 213.016 158.717 209.251 159.744C208.703 159.893 208.468 159.115 209.015 158.966L209.015 158.966Z" fill="#F2F2F2"/>
<path d="M37.2608 25.1319C41.1838 25.1319 44.3641 22.2437 44.3641 18.6809C44.3641 15.1182 41.1838 12.23 37.2608 12.23C33.3377 12.23 30.1575 15.1182 30.1575 18.6809C30.1575 22.2437 33.3377 25.1319 37.2608 25.1319Z" fill="#F2F2F2"/>
<path d="M86.5401 37.3619C90.4631 37.3619 93.6434 34.4737 93.6434 30.9109C93.6434 27.3481 90.4631 24.46 86.5401 24.46C82.617 24.46 79.4368 27.3481 79.4368 30.9109C79.4368 34.4737 82.617 37.3619 86.5401 37.3619Z" fill="#F2F2F2"/>
<path d="M128.272 12.9019C132.195 12.9019 135.375 10.0137 135.375 6.45094C135.375 2.88819 132.195 0 128.272 0C124.349 0 121.169 2.88819 121.169 6.45094C121.169 10.0137 124.349 12.9019 128.272 12.9019Z" fill="#F2F2F2"/>
<path d="M154.317 40.3184C158.24 40.3184 161.421 37.4302 161.421 33.8674C161.421 30.3047 158.24 27.4165 154.317 27.4165C150.394 27.4165 147.214 30.3047 147.214 33.8674C147.214 37.4302 150.394 40.3184 154.317 40.3184Z" fill="#F2F2F2"/>
<path d="M119.097 72.0357C123.02 72.0357 126.2 69.1475 126.2 65.5847C126.2 62.022 123.02 59.1338 119.097 59.1338C115.174 59.1338 111.994 62.022 111.994 65.5847C111.994 69.1475 115.174 72.0357 119.097 72.0357Z" fill="#F2F2F2"/>
<path d="M74.4051 87.3565C78.3281 87.3565 81.5084 84.4683 81.5084 80.9055C81.5084 77.3428 78.3281 74.4546 74.4051 74.4546C70.482 74.4546 67.3018 77.3428 67.3018 80.9055C67.3018 84.4683 70.482 87.3565 74.4051 87.3565Z" fill="#F2F2F2"/>
<path d="M121.761 111.279C125.684 111.279 128.864 108.391 128.864 104.828C128.864 101.265 125.684 98.377 121.761 98.377C117.837 98.377 114.657 101.265 114.657 104.828C114.657 108.391 117.837 111.279 121.761 111.279Z" fill="#F2F2F2"/>
<path d="M172.668 124.718C176.591 124.718 179.771 121.83 179.771 118.267C179.771 114.705 176.591 111.816 172.668 111.816C168.745 111.816 165.564 114.705 165.564 118.267C165.564 121.83 168.745 124.718 172.668 124.718Z" fill="#F2F2F2"/>
<path d="M232.158 121.762C236.081 121.762 239.261 118.874 239.261 115.311C239.261 111.748 236.081 108.86 232.158 108.86C228.235 108.86 225.055 111.748 225.055 115.311C225.055 118.874 228.235 121.762 232.158 121.762Z" fill="#F2F2F2"/>
<path d="M126.222 18.2788C104.944 18.4153 87.5215 34.1185 87.2193 53.4408C87.2165 53.6192 87.2152 54.8736 87.2153 56.5142C87.2155 58.9197 88.2677 61.2267 90.1407 62.9277C92.0136 64.6287 94.5538 65.5845 97.2026 65.5848H97.2026C98.5156 65.5845 99.8158 65.3493 101.029 64.8925C102.242 64.4358 103.343 63.7665 104.271 62.9228C105.199 62.0792 105.935 61.0777 106.437 59.9757C106.938 58.8737 107.196 57.6928 107.195 56.5003C107.194 55.3843 107.193 54.6118 107.193 54.5644C107.193 51.5782 108.048 48.6432 109.675 46.0482C111.302 43.4532 113.645 41.2876 116.474 39.7644C119.302 38.2412 122.518 37.4128 125.806 37.3608C129.094 37.3088 132.34 38.035 135.225 39.4678C138.109 40.9007 140.534 42.9909 142.26 45.5328C143.985 48.0748 144.953 50.9809 145.067 53.9654C145.18 56.9499 144.437 59.9098 142.909 62.5541C141.381 65.1984 139.121 67.4359 136.353 69.0466L136.356 69.0504C136.356 69.0504 122.141 77.3613 117.807 88.7622L117.811 88.763C117.049 91.0986 116.663 93.522 116.664 95.958C116.664 96.9593 116.729 105.721 116.855 112.832C116.898 115.286 118.003 117.625 119.929 119.346C121.855 121.067 124.449 122.031 127.151 122.031H127.152C128.509 122.031 129.854 121.787 131.107 121.313C132.361 120.839 133.499 120.145 134.456 119.271C135.413 118.396 136.17 117.358 136.684 116.217C137.198 115.075 137.458 113.853 137.45 112.62C137.406 106.108 137.382 98.5243 137.382 97.9739C137.382 90.9734 144.819 83.9983 150.927 79.4496C157.961 74.2117 163.023 67.0738 165.056 59.0219C165.506 57.3641 165.754 55.6666 165.796 53.9596C165.796 49.2521 164.77 44.5912 162.778 40.2453C160.785 35.8994 157.866 31.9545 154.187 28.6378C150.509 25.3212 146.144 22.6983 141.344 20.9205C136.545 19.1426 131.405 18.2448 126.222 18.2788Z" fill="#5A8835"/>
<path d="M249.648 160H0.352366C0.259078 160 0.169706 159.966 0.103837 159.906C0.0379678 159.846 0.000976562 159.765 0.000976562 159.68C0.000976562 159.595 0.0379678 159.514 0.103837 159.454C0.169706 159.394 0.259078 159.36 0.352366 159.36H249.648C249.741 159.36 249.831 159.394 249.897 159.454C249.963 159.514 250 159.595 250 159.68C250 159.765 249.963 159.846 249.897 159.906C249.831 159.966 249.741 160 249.648 160Z" fill="#3F3D56"/>
<path d="M186.003 73.3783C190.907 73.3783 194.882 69.7681 194.882 65.3147C194.882 60.8612 190.907 57.251 186.003 57.251C181.099 57.251 177.124 60.8612 177.124 65.3147C177.124 69.7681 181.099 73.3783 186.003 73.3783Z" fill="#2F2E41"/>
<path d="M169.595 156.47H165.967L164.241 143.76H169.596L169.595 156.47Z" fill="#A0616A"/>
<path d="M163.375 155.528H170.373V159.53H158.969C158.969 159.004 159.083 158.484 159.304 157.998C159.526 157.513 159.85 157.072 160.259 156.7C160.669 156.329 161.154 156.034 161.689 155.833C162.224 155.632 162.796 155.528 163.375 155.528Z" fill="#2F2E41"/>
<path d="M197.713 156.47H194.084L192.358 143.76H197.714L197.713 156.47Z" fill="#A0616A"/>
<path d="M191.492 155.528H198.49V159.53H187.086C187.086 159.004 187.2 158.484 187.422 157.998C187.643 157.513 187.968 157.072 188.377 156.7C188.786 156.329 189.272 156.034 189.806 155.833C190.341 155.632 190.914 155.528 191.492 155.528Z" fill="#2F2E41"/>
<path d="M184.654 73.4257C188.668 73.4257 191.923 70.47 191.923 66.8239C191.923 63.1779 188.668 60.2222 184.654 60.2222C180.639 60.2222 177.384 63.1779 177.384 66.8239C177.384 70.47 180.639 73.4257 184.654 73.4257Z" fill="#A0616A"/>
<path d="M188.986 94.7227L192.239 87.9358C193.029 86.3437 193.255 84.5681 192.887 82.8542C192.519 81.1402 191.574 79.5723 190.182 78.3669C189.896 78.1104 189.593 77.8707 189.273 77.6492C187.669 76.509 185.691 75.8876 183.653 75.8833C182.283 75.8881 180.93 76.1613 179.687 76.6843C179.58 76.7273 179.477 76.773 179.37 76.8187C179.166 76.9074 178.965 77.0042 178.769 77.1036C177.495 77.768 176.411 78.6951 175.604 79.81C174.797 80.925 174.289 82.1966 174.123 83.5223L172.687 94.4459C172.326 95.3033 159.445 126.268 163.95 149.908C163.998 150.16 164.134 150.392 164.337 150.57C164.541 150.747 164.801 150.861 165.081 150.894L169.648 151.459C169.981 151.5 170.32 151.425 170.595 151.249C170.87 151.073 171.061 150.809 171.13 150.51L178.793 117.339C178.841 117.133 178.963 116.947 179.141 116.812C179.319 116.676 179.541 116.599 179.773 116.591C180.005 116.584 180.232 116.648 180.42 116.772C180.607 116.896 180.743 117.074 180.806 117.277L191.632 152.16C191.71 152.414 191.876 152.637 192.107 152.797C192.337 152.956 192.619 153.042 192.908 153.042C192.994 153.042 193.081 153.034 193.166 153.02L198.745 152.045C199.069 151.99 199.359 151.827 199.558 151.587C199.756 151.348 199.85 151.05 199.819 150.752C198.999 142.449 194.642 100.859 188.986 94.7227Z" fill="#2F2E41"/>
<path d="M156.403 72.3179C156.353 72.7104 156.398 73.1081 156.535 73.4831C156.672 73.8581 156.898 74.2013 157.197 74.4884C157.496 74.7755 157.86 74.9996 158.265 75.1448C158.67 75.2901 159.104 75.3531 159.539 75.3292L163.602 84.1972L166.676 80.0594L162.346 72.2726C162.253 71.6126 161.898 71.0064 161.346 70.5687C160.794 70.1311 160.085 69.8925 159.352 69.898C158.62 69.9036 157.915 70.153 157.371 70.599C156.828 71.045 156.483 71.6566 156.403 72.3179L156.403 72.3179Z" fill="#A0616A"/>
<path d="M184.251 103.652C184.683 103.605 185.098 103.473 185.468 103.264C185.837 103.056 186.152 102.776 186.39 102.445C186.628 102.115 186.783 101.74 186.844 101.349C186.905 100.958 186.871 100.559 186.745 100.181L195.294 94.5263L190.147 92.7759L182.818 98.4142C182.132 98.6496 181.566 99.1051 181.226 99.6944C180.886 100.284 180.796 100.966 180.972 101.611C181.149 102.257 181.58 102.821 182.185 103.197C182.789 103.574 183.524 103.735 184.251 103.652Z" fill="#A0616A"/>
<path d="M170.314 90.1092C169.986 90.1089 169.659 90.0796 169.338 90.0218C168.56 89.8874 167.831 89.5813 167.214 89.1305C166.597 88.6798 166.112 88.0982 165.802 87.437L160.109 81.1331C159.988 80.9998 159.901 80.8447 159.852 80.6782C159.803 80.5117 159.794 80.3375 159.825 80.1675C159.856 79.9975 159.927 79.8355 160.032 79.6923C160.138 79.5491 160.276 79.4281 160.438 79.3374L164.488 77.0606C164.637 76.9765 164.804 76.9201 164.977 76.8948C165.151 76.8694 165.328 76.8755 165.499 76.9127C165.67 76.95 165.832 77.0176 165.974 77.1117C166.116 77.2059 166.236 77.3246 166.327 77.4611L170.34 83.4643L178.023 78.3071C178.635 78.0158 179.342 77.9341 180.015 78.077C180.687 78.2198 181.281 78.5776 181.687 79.0851C182.093 79.5926 182.285 80.2158 182.227 80.841C182.169 81.4661 181.865 82.0514 181.371 82.4899L173.702 88.8432C172.8 89.6545 171.583 90.1095 170.314 90.1092Z" fill="#2F2E41"/>
<path d="M191.076 99.5901C191.066 99.5901 191.055 99.5901 191.045 99.5899C190.858 99.5857 190.675 99.546 190.506 99.4733C190.337 99.4006 190.187 99.2965 190.065 99.1678L186.464 95.3527C186.342 95.2228 186.251 95.0707 186.198 94.9065C186.144 94.7424 186.13 94.5698 186.156 94.4003C186.182 94.2307 186.247 94.0681 186.347 93.9231C186.447 93.7781 186.58 93.6541 186.737 93.5591L193.479 89.4769L187.371 82.8076C187.016 82.2696 186.885 81.6335 187.004 81.0154C187.122 80.3974 187.482 79.8387 188.016 79.4414C188.551 79.0441 189.225 78.8347 189.915 78.8515C190.606 78.8684 191.267 79.1103 191.777 79.533L199.201 86.1218C199.785 86.6065 200.231 87.2128 200.501 87.8886C200.77 88.5643 200.855 89.2894 200.748 90.0015C200.641 90.7136 200.346 91.3915 199.887 91.977C199.428 92.5626 198.819 93.0382 198.113 93.3631L192.046 99.2103C191.921 99.3302 191.771 99.4257 191.604 99.491C191.437 99.5563 191.258 99.59 191.076 99.5901Z" fill="#2F2E41"/>
<path d="M182.805 85.5325C182.748 85.5325 182.69 85.5292 182.632 85.5226C182.382 85.4949 182.145 85.4024 181.95 85.2562C181.756 85.11 181.611 84.9162 181.534 84.6977L178.828 77.1637C178.761 76.9732 178.771 76.7669 178.858 76.5829C178.944 76.3988 179.102 76.2495 179.3 76.1626L179.388 76.1249C179.468 76.0905 179.546 76.0565 179.627 76.024C180.889 75.4926 182.262 75.2154 183.653 75.2114C185.459 75.2145 187.224 75.6962 188.732 76.5975C188.935 76.7197 189.076 76.9092 189.126 77.1251C189.176 77.341 189.13 77.5661 188.999 77.7518L183.923 84.9736C183.804 85.145 183.639 85.2863 183.444 85.384C183.248 85.4818 183.028 85.5329 182.805 85.5325Z" fill="#E6E6E6"/>
<path d="M193.003 61.7147C194.608 61.7147 195.909 60.5334 195.909 59.0761C195.909 57.6189 194.608 56.4375 193.003 56.4375C191.399 56.4375 190.098 57.6189 190.098 59.0761C190.098 60.5334 191.399 61.7147 193.003 61.7147Z" fill="#2F2E41"/>
<path d="M183.043 56.1758C181.003 56.1758 179.045 56.9121 177.602 58.2227C176.159 59.5333 175.348 61.3108 175.348 63.1643V66.121H179.352L181.268 63.1643L181.842 66.121H193.994L190.739 63.1643C190.739 61.3108 189.928 59.5333 188.485 58.2227C187.042 56.9121 185.084 56.1758 183.043 56.1758Z" fill="#2F2E41"/>
<path d="M194.497 57.2687C194.818 56.3563 195.483 55.576 196.375 55.0649C197.268 54.5539 198.33 54.3448 199.375 54.4745C201.226 54.7556 202.69 56.1073 203.563 57.6169C204.435 59.1266 204.838 60.8162 205.424 62.4358C206.01 64.0553 206.842 65.6837 208.322 66.7321C209.803 67.7805 212.075 68.0649 213.528 66.9864C213.362 68.1104 212.811 69.1585 211.953 69.9824C211.095 70.8064 209.974 71.3646 208.748 71.578C207.521 71.7914 206.252 71.6493 205.119 71.1717C203.987 70.6941 203.048 69.9052 202.436 68.9166C201.669 67.6771 201.471 66.2242 201.244 64.8173C201.016 63.4104 200.721 61.9548 199.805 60.8015C198.889 59.6482 197.174 58.895 195.719 59.4203L194.497 57.2687Z" fill="#2F2E41"/>
<path d="M100.023 61.2942C97.3739 61.2939 94.8337 60.3381 92.9608 58.6371C91.0878 56.9361 90.0356 54.6291 90.0354 52.2236C90.0353 50.583 90.0366 49.3286 90.0393 49.1502C90.1235 43.5307 91.6818 38.0105 94.5851 33.0474C89.8151 38.9776 87.1923 46.1076 87.0796 53.4508C87.0768 53.6292 87.0755 54.8836 87.0757 56.5242C87.0759 58.9298 88.1281 61.2367 90.0011 62.9378C91.874 64.6388 94.4142 65.5945 97.063 65.5948C99.2396 65.594 101.356 64.9481 103.092 63.7551C104.827 62.5622 106.087 60.8873 106.678 58.9851C104.85 60.4744 102.479 61.2969 100.023 61.2942Z" fill="#3F3D56"/>
<path d="M126.899 37.3912C129.961 37.524 132.942 38.3298 135.585 39.7393C138.229 41.1489 140.457 43.12 142.077 45.4836C143.697 47.8472 144.661 50.5326 144.887 53.3091C145.112 56.0857 144.593 58.8705 143.372 61.4245C145.138 59.5415 146.435 57.335 147.177 54.9553C147.918 52.5756 148.085 50.0787 147.668 47.6349C147.25 45.191 146.257 42.8577 144.757 40.7939C143.256 38.7302 141.283 36.9845 138.973 35.676C136.662 34.3675 134.068 33.5268 131.367 33.2113C128.666 32.8959 125.922 33.113 123.321 33.848C120.721 34.5829 118.326 35.8184 116.299 37.4702C114.273 39.122 112.662 41.1512 111.577 43.4196C113.452 41.4164 115.809 39.831 118.465 38.7858C121.122 37.7406 124.007 37.2635 126.899 37.3912Z" fill="#3F3D56"/>
<path d="M129.971 117.74C127.269 117.741 124.675 116.777 122.749 115.056C120.823 113.335 119.718 110.995 119.675 108.542C119.549 101.431 119.484 92.6691 119.484 91.6677C119.483 89.2318 119.869 86.8084 120.631 84.4728L120.627 84.472C121.077 83.2996 121.621 82.1587 122.253 81.0581C120.311 83.4085 118.766 86.0085 117.668 88.7726L117.671 88.7734C116.909 91.109 116.523 93.5324 116.525 95.9683C116.525 96.9697 116.59 105.731 116.715 112.842C116.759 115.296 117.863 117.636 119.789 119.356C121.716 121.077 124.31 122.041 127.012 122.041C129.24 122.041 131.407 121.384 133.19 120.17C134.972 118.956 136.273 117.25 136.898 115.308C135.004 116.876 132.534 117.744 129.971 117.74Z" fill="#3F3D56"/>
<path d="M37.4525 156.593L41.0809 156.592L42.8073 143.882L37.4517 143.882L37.4525 156.593Z" fill="#FFB8B8"/>
<path d="M48.0791 159.652L36.6751 159.653L36.6749 155.651L43.6728 155.651C44.8414 155.651 45.9621 156.073 46.7884 156.823C47.6148 157.573 48.079 158.591 48.0791 159.652L48.0791 159.652Z" fill="#2F2E41"/>
<path d="M24.4298 156.593L28.0582 156.592L29.7846 143.882L24.429 143.882L24.4298 156.593Z" fill="#FFB8B8"/>
<path d="M35.0562 159.652L23.6522 159.653L23.652 155.651L30.6499 155.651C31.8184 155.651 32.9392 156.073 33.7655 156.823C34.5918 157.573 35.0561 158.591 35.0562 159.652L35.0562 159.652Z" fill="#2F2E41"/>
<path d="M27.6007 152.683L24.0565 152.514C23.8737 152.505 23.6947 152.464 23.5297 152.392C23.3648 152.32 23.2172 152.219 23.0956 152.094C22.974 151.97 22.8807 151.825 22.8211 151.668C22.7616 151.511 22.737 151.345 22.7487 151.179L26.9848 108.585L46.4926 113.366L48.3721 112.9L42.4946 150.607C42.4446 150.891 42.2895 151.15 42.0549 151.343C41.8204 151.536 41.5205 151.65 41.2047 151.667L37.3841 151.829C37.193 151.839 37.0019 151.812 36.8227 151.751C36.6434 151.69 36.4801 151.596 36.3429 151.475C36.2057 151.354 36.0977 151.208 36.0257 151.047C35.9537 150.886 35.9192 150.714 35.9245 150.54L36.6168 127.909C36.62 127.804 36.58 127.702 36.5045 127.623C36.4291 127.544 36.3238 127.493 36.2093 127.481C36.0948 127.469 35.9794 127.496 35.8859 127.557C35.7925 127.619 35.7276 127.709 35.7042 127.812L29.028 151.684C28.965 151.967 28.7958 152.222 28.5492 152.404C28.3026 152.587 27.9939 152.686 27.6757 152.685C27.6509 152.685 27.6259 152.685 27.6007 152.683Z" fill="#2F2E41"/>
<path d="M38.1041 73.7343C42.1188 73.7343 45.3735 70.7786 45.3735 67.1325C45.3735 63.4865 42.1188 60.5308 38.1041 60.5308C34.0893 60.5308 30.8347 63.4865 30.8347 67.1325C30.8347 70.7786 34.0893 73.7343 38.1041 73.7343Z" fill="#FFB8B8"/>
<path d="M26.001 86.5279L26.8003 102.19L27.0893 107.887C27.1008 108.136 27.1935 108.375 27.3556 108.575C27.5177 108.775 27.7418 108.926 27.9992 109.01L46.7448 115.177C46.8963 115.228 47.0567 115.253 47.2183 115.252C47.4029 115.253 47.5858 115.22 47.7561 115.155C47.9264 115.09 48.0806 114.995 48.2094 114.875C48.3382 114.755 48.4391 114.612 48.506 114.456C48.5728 114.3 48.6043 114.133 48.5986 113.965L47.83 85.8048C47.7796 83.4944 46.8431 81.2724 45.182 79.5218C43.521 77.7712 41.2395 76.6018 38.7308 76.2152C38.5495 76.19 38.365 76.1649 38.1805 76.1426C36.6249 75.9672 35.0459 76.1035 33.5546 76.542C32.0633 76.9804 30.6958 77.7103 29.5485 78.6803C28.3605 79.6726 27.427 80.8898 26.814 82.2459C26.201 83.6019 25.9235 85.0637 26.001 86.5278L26.001 86.5279Z" fill="#CCCCCC"/>
<path d="M55.6995 112.052C55.2562 111.927 54.8511 111.71 54.5167 111.417C54.1822 111.125 53.9276 110.765 53.7733 110.368C53.6189 109.97 53.569 109.545 53.6276 109.127C53.6861 108.709 53.8515 108.309 54.1105 107.959L47.7537 100.282L53.2393 99.9741L58.4349 107.311C58.9911 107.702 59.3781 108.258 59.5281 108.882C59.6781 109.505 59.5815 110.157 59.2551 110.723C58.9288 111.288 58.3936 111.731 57.7435 111.974C57.0933 112.218 56.3697 112.245 55.6996 112.052H55.6995Z" fill="#FFB8B8"/>
<path d="M51.2301 106.57C51.0617 106.508 50.9085 106.416 50.7794 106.3C50.6503 106.184 50.5478 106.045 50.478 105.893L40.9009 85.1709C40.7129 84.7652 40.6149 84.3298 40.6124 83.8897C40.6098 83.4495 40.7028 83.0132 40.886 82.6057C41.0692 82.1982 41.339 81.8275 41.68 81.5148C42.0211 81.202 42.4266 80.9534 42.8735 80.783C43.3204 80.6127 43.7999 80.524 44.2845 80.522C44.7692 80.52 45.2495 80.6048 45.6981 80.7715C46.1467 80.9382 46.5547 81.1835 46.8988 81.4935C47.2429 81.8034 47.5164 82.1719 47.7036 82.5779L57.2807 103.3C57.4223 103.608 57.4238 103.953 57.2851 104.262C57.1463 104.57 56.8786 104.816 56.5406 104.945L52.2889 106.565C52.1215 106.63 51.9417 106.663 51.76 106.664C51.5782 106.665 51.3981 106.633 51.2301 106.57L51.2301 106.57Z" fill="#CCCCCC"/>
<path d="M35.7668 105.839L44.9654 89.8435C45.1428 89.5359 45.4473 89.3048 45.8121 89.2008C46.1769 89.0968 46.5722 89.1285 46.9114 89.2889L60.2631 95.6216C60.6018 95.7827 60.8564 96.0593 60.9708 96.3906C61.0853 96.7219 61.0504 97.0809 60.8738 97.3889L51.6752 113.384C51.4978 113.692 51.1933 113.923 50.8285 114.027C50.4637 114.131 50.0684 114.099 49.7292 113.939L36.3775 107.606C36.0388 107.445 35.7843 107.169 35.6698 106.837C35.5553 106.506 35.5902 106.147 35.7668 105.839Z" fill="#3F3D56"/>
<path d="M41.9358 98.531C41.7723 98.1365 41.5095 97.7821 41.1683 97.4961C40.8272 97.2102 40.4172 97.0006 39.971 96.8842C39.5249 96.7677 39.0549 96.7476 38.5987 96.8253C38.1424 96.9031 37.7125 97.0767 37.3432 97.3322L28.5296 92.0225L28.5146 97.0138L36.8865 101.291C37.3486 101.772 37.9825 102.09 38.6771 102.189C39.3716 102.288 40.0824 102.162 40.6848 101.833C41.2872 101.504 41.7428 100.992 41.9715 100.389C42.2002 99.7848 42.1876 99.1272 41.9358 98.531Z" fill="#FFB8B8"/>
<path d="M30.7923 99.6533L23.5893 94.4717C22.8101 94.2341 22.106 93.8283 21.5375 93.2891C20.969 92.75 20.553 92.0936 20.3253 91.3764C20.0976 90.6591 20.0649 89.9023 20.2301 89.1711C20.3953 88.4398 20.7535 87.7559 21.2738 87.178L27.8139 79.394C28.2684 78.8897 28.9076 78.5507 29.6146 78.439C30.3217 78.3274 31.0493 78.4506 31.6646 78.786C32.2798 79.1215 32.7416 79.6469 32.9655 80.2661C33.1893 80.8853 33.1604 81.557 32.8838 82.1584L27.7091 89.8457L35.3138 93.1214C35.4906 93.1976 35.6477 93.307 35.7745 93.4423C35.9013 93.5777 35.9951 93.736 36.0496 93.9067C36.1041 94.0774 36.1181 94.2567 36.0907 94.4326C36.0632 94.6086 35.9949 94.7773 35.8904 94.9276L32.8206 99.3395C32.7169 99.4884 32.5798 99.6159 32.4184 99.7136C32.2569 99.8114 32.0747 99.8772 31.8834 99.9069C31.8758 99.9081 31.8681 99.9092 31.8605 99.9103C31.6726 99.936 31.4808 99.9265 31.2971 99.8824C31.1134 99.8382 30.9416 99.7602 30.7923 99.6533Z" fill="#CCCCCC"/>
<path d="M32.611 71.5531C32.5798 71.4703 32.5699 71.382 32.5821 71.2951C32.5943 71.2083 32.6282 71.1251 32.6812 71.0519C32.7342 70.9788 32.805 70.9177 32.8881 70.8732C32.9711 70.8287 33.0643 70.8021 33.1605 70.7954C33.3573 70.8051 33.55 70.851 33.7268 70.9302C33.9037 71.0094 34.061 71.1204 34.1893 71.2564C34.4524 71.5318 34.7586 71.7707 35.0983 71.9652C35.4499 72.1262 35.9268 72.1032 36.1273 71.7963C36.3156 71.5081 36.1866 71.1222 36.0726 70.7874C35.7826 69.9357 35.6203 69.0524 35.5902 68.1614C35.5574 67.1668 35.7119 66.1288 36.3182 65.353C37.1007 64.3519 38.4999 63.9718 39.8241 63.9993C41.1483 64.0269 42.451 64.3981 43.7626 64.6328C44.2155 64.7138 44.7477 64.7552 45.0506 64.4365C45.3726 64.0976 45.2543 63.5491 45.1174 63.0915C44.7619 61.9042 44.3848 60.6766 43.559 59.7176C42.6661 58.7212 41.3905 58.069 39.9893 57.8925C38.6441 57.7412 37.2785 57.882 36.0049 58.3033C33.9298 58.8973 32.1038 60.0525 30.7712 61.6144C29.3975 63.2755 28.804 65.3629 29.1203 67.4203C29.4293 69.2122 30.4749 70.8311 32.0462 71.9507L32.611 71.5531Z" fill="#2F2E41"/>
<path d="M124.681 156.645C122.747 155.88 121.035 154.717 119.68 153.249C118.326 151.78 117.366 150.046 116.876 148.182C116.386 146.319 116.379 144.377 116.857 142.511C117.335 140.645 118.283 138.906 119.628 137.43C118.069 138.464 116.77 139.787 115.817 141.312C114.864 142.836 114.279 144.528 114.1 146.273C113.922 148.019 114.155 149.78 114.783 151.437C115.411 153.095 116.42 154.613 117.744 155.89C119.067 157.166 120.674 158.173 122.458 158.842C124.243 159.511 126.163 159.828 128.093 159.772C130.023 159.716 131.917 159.288 133.65 158.516C135.384 157.744 136.916 156.646 138.147 155.295C136.228 156.568 133.975 157.363 131.612 157.6C129.249 157.837 126.86 157.508 124.681 156.645Z" fill="#3F3D56"/>
</g>
<defs>
<clipPath id="clip0_25_527">
<rect width="250" height="160" fill="white"/>
</clipPath>
</defs>
</svg>
