<svg width="250" height="160" viewBox="0 0 250 160" fill="none" xmlns="http://www.w3.org/2000/svg">
<path d="M197.972 159.28H193.174C192.614 159.279 192.077 159.06 191.681 158.67C191.285 158.28 191.062 157.751 191.062 157.2V117.835C191.062 117.284 191.285 116.755 191.681 116.365C192.077 115.975 192.614 115.756 193.174 115.755H197.972C198.532 115.756 199.069 115.975 199.465 116.365C199.861 116.755 200.084 117.284 200.085 117.835V157.2C200.084 157.751 199.861 158.28 199.465 158.67C199.069 159.06 198.532 159.279 197.972 159.28Z" fill="#5A8835"/>
<path d="M184.908 159.28H180.111C179.55 159.279 179.013 159.06 178.617 158.67C178.221 158.28 177.998 157.751 177.998 157.2V117.835C177.998 117.284 178.221 116.755 178.617 116.365C179.013 115.975 179.55 115.756 180.111 115.755H184.908C185.468 115.756 186.005 115.975 186.401 116.365C186.797 116.755 187.02 117.284 187.021 117.835V157.2C187.02 157.751 186.797 158.28 186.401 158.67C186.005 159.06 185.468 159.279 184.908 159.28Z" fill="#5A8835"/>
<path d="M186.937 149.92H177.511C177.123 149.92 176.751 149.768 176.477 149.498C176.203 149.228 176.049 148.862 176.048 148.48V116.16C176.049 115.778 176.203 115.412 176.477 115.142C176.751 114.873 177.123 114.721 177.511 114.72H186.937C187.325 114.721 187.697 114.873 187.971 115.142C188.245 115.412 188.399 115.778 188.4 116.16V148.48C188.399 148.862 188.245 149.228 187.971 149.498C187.697 149.768 187.325 149.92 186.937 149.92Z" fill="#2F2E41"/>
<path d="M200.263 149.92H190.837C190.45 149.92 190.078 149.768 189.804 149.498C189.529 149.228 189.375 148.862 189.375 148.48V116.16C189.375 115.778 189.529 115.412 189.804 115.142C190.078 114.873 190.45 114.721 190.837 114.72H200.263C200.651 114.721 201.023 114.873 201.297 115.142C201.571 115.412 201.726 115.778 201.726 116.16V148.48C201.726 148.862 201.571 149.228 201.297 149.498C201.023 149.768 200.651 149.92 200.263 149.92Z" fill="#2F2E41"/>
<path d="M184.182 93.9169C184.048 94.008 183.909 94.0919 183.766 94.1684L150.737 111.828C150.493 111.958 150.226 112.04 149.95 112.069C149.674 112.097 149.395 112.072 149.129 111.994C148.863 111.917 148.615 111.788 148.399 111.617C148.183 111.445 148.004 111.233 147.872 110.993L145.582 106.842L145.725 106.766L145.582 106.842C145.316 106.357 145.255 105.788 145.414 105.259C145.573 104.73 145.939 104.285 146.431 104.022L179.46 86.3623C180.474 85.8202 181.661 85.6814 182.776 85.9745C183.891 86.2677 184.849 86.9703 185.454 87.9381C186.059 88.9058 186.264 90.065 186.028 91.1771C185.791 92.2892 185.13 93.2697 184.182 93.9169Z" fill="#5A8835"/>
<path d="M189.385 74.6742C198.54 74.6742 205.962 67.3675 205.962 58.3542C205.962 49.3409 198.54 42.0342 189.385 42.0342C180.23 42.0342 172.809 49.3409 172.809 58.3542C172.809 67.3675 180.23 74.6742 189.385 74.6742Z" fill="#5A8835"/>
<path d="M191.324 65.2049C190.249 65.1755 188.912 65.1388 187.881 64.3979C187.575 64.1682 187.323 63.8753 187.143 63.5396C186.963 63.2039 186.86 62.8336 186.841 62.4546C186.823 62.1853 186.868 61.9153 186.972 61.6659C187.077 61.4165 187.239 61.1943 187.446 61.0168C187.984 60.5691 188.77 60.4641 189.617 60.7091L188.739 54.3969L189.383 54.3101L190.415 61.7308L189.877 61.4879C189.253 61.2063 188.397 61.063 187.866 61.5055C187.735 61.6212 187.633 61.765 187.568 61.9257C187.503 62.0864 187.477 62.2597 187.491 62.4321C187.507 62.7142 187.584 62.9896 187.717 63.2396C187.851 63.4896 188.038 63.7084 188.265 63.881C189.067 64.4576 190.133 64.5319 191.342 64.5652L191.324 65.2049Z" fill="#2F2E41"/>
<path d="M185.554 54.9414H182.053V55.5814H185.554V54.9414Z" fill="#2F2E41"/>
<path d="M196.605 54.9414H193.104V55.5814H196.605V54.9414Z" fill="#2F2E41"/>
<path d="M190.545 41.9861C190.667 40.0569 191.209 38.1761 192.133 36.4709C193.058 34.7657 194.344 33.276 195.904 32.1027C197.516 30.9275 199.376 30.125 201.347 29.7551C203.317 29.3851 205.347 29.4571 207.285 29.9657C209.211 30.4584 210.998 31.375 212.511 32.6466C214.025 33.9181 215.226 35.5113 216.023 37.3061C216.825 39.0875 217.225 41.0191 217.196 42.9677C217.108 45.0866 216.573 47.1644 215.626 49.0691C214.649 51.1658 213.416 53.1329 212.345 55.1825C211.291 57.2036 210.381 59.2948 209.622 61.4407C208.079 65.8133 207.168 70.3779 206.917 75.0004C206.519 82.287 207.228 92.9249 215.583 95.7213C217.707 96.4324 220 96.5648 222.227 96.559C224.573 96.5872 226.913 96.3174 229.189 95.7562C233.134 94.7192 236.878 92.2843 238.559 88.5012C238.946 87.6276 239.206 86.7044 239.33 85.7591C239.365 85.4999 239.081 85.2815 238.843 85.2791C238.714 85.2821 238.592 85.3336 238.501 85.423C238.411 85.5124 238.358 85.6327 238.355 85.7591C237.811 89.7904 234.399 92.8819 230.694 94.2718C228.53 95.0441 226.256 95.4773 223.955 95.5553C221.664 95.6693 219.286 95.6516 217.044 95.1328C215.048 94.7074 213.231 93.691 211.839 92.2198C210.597 90.8129 209.672 89.1639 209.122 87.3807C207.803 83.4175 207.665 79.06 207.896 74.9293C208.159 70.3221 209.089 65.7754 210.658 61.4274C211.451 59.2321 212.408 57.0975 213.52 55.0409C214.606 53.0293 215.813 51.0745 216.728 48.9778C217.621 47.0505 218.113 44.9663 218.173 42.8487C218.18 40.8929 217.784 38.956 217.01 37.1549C216.25 35.3466 215.109 33.7171 213.663 32.3736C212.217 31.0301 210.499 30.0029 208.621 29.3594C206.711 28.7047 204.683 28.4505 202.667 28.6131C200.651 28.7757 198.692 29.3515 196.915 30.3034C195.225 31.2599 193.744 32.5367 192.558 34.0599C191.372 35.5832 190.505 37.3227 190.006 39.178C189.764 40.0969 189.618 41.0378 189.57 41.9861C189.538 42.6035 190.513 42.6018 190.545 41.9861V41.9861Z" fill="#2F2E41"/>
<path d="M193.787 42.323C194.053 40.5425 194.959 38.915 196.341 37.7365C197.809 36.5247 199.692 35.9095 201.605 36.0163C202.232 36.0472 202.23 35.0871 201.605 35.0563C199.525 34.964 197.484 35.6274 195.869 36.9201C194.255 38.2129 193.179 40.045 192.847 42.0678C192.753 42.6722 193.692 42.9327 193.787 42.323H193.787Z" fill="#2F2E41"/>
<path d="M194.137 43.5865C193.947 43.5865 193.758 43.5565 193.578 43.4976L188.948 41.9926C188.725 41.9202 188.519 41.8052 188.341 41.6542C188.163 41.5033 188.017 41.3194 187.912 41.1129C187.806 40.9065 187.743 40.6816 187.726 40.4512C187.708 40.2207 187.737 39.9891 187.811 39.7696C187.884 39.5502 188.001 39.3471 188.155 39.1721C188.308 38.9971 188.495 38.8535 188.704 38.7496C188.914 38.6456 189.142 38.5833 189.377 38.5663C189.611 38.5493 189.846 38.5778 190.069 38.6503L194.699 40.1553C195.102 40.2865 195.445 40.555 195.666 40.9126C195.886 41.2702 195.971 41.6935 195.903 42.1066C195.835 42.5198 195.62 42.8956 195.297 43.1668C194.973 43.4381 194.562 43.5868 194.137 43.5865Z" fill="#2F2E41"/>
<path d="M194.871 80.9599H194.072C194.081 80.9069 194.086 80.8535 194.088 80.7999C194.088 79.4744 192.05 78.3999 189.537 78.3999C187.024 78.3999 184.987 79.4744 184.987 80.7999C184.988 80.8535 184.994 80.9069 185.002 80.9599H184.204C177.994 80.9599 172.96 86.6365 172.96 93.6389V120C172.96 120.339 173.097 120.665 173.341 120.905C173.585 121.145 173.916 121.28 174.261 121.28H204.814C205.159 121.28 205.489 121.145 205.733 120.905C205.977 120.665 206.114 120.339 206.114 120V93.6389C206.114 86.6365 201.08 80.9599 194.871 80.9599Z" fill="#2F2E41"/>
<path d="M58.0965 57.9565C57.1713 57.958 56.2707 57.6633 55.5305 57.1169L55.4846 57.083L45.8197 49.8042C44.919 49.1208 44.3303 48.1135 44.1828 47.0034C44.0353 45.8932 44.341 44.7708 45.0329 43.8822C45.7248 42.9937 46.7464 42.4116 47.8737 42.2636C49.0009 42.1155 50.1418 42.4137 51.046 43.0926L57.3061 47.8188L72.0991 28.8187C72.4421 28.3782 72.8699 28.0085 73.358 27.7308C73.8462 27.453 74.3851 27.2727 74.944 27.2C75.503 27.1273 76.071 27.1637 76.6156 27.3071C77.1603 27.4506 77.6709 27.6982 78.1183 28.0359L78.1196 28.0368L78.0278 28.1624L78.1221 28.0368C79.0247 28.7199 79.6153 29.7275 79.7642 30.8388C79.9131 31.95 79.6081 33.074 78.9162 33.964L61.5164 56.3024C61.1139 56.8171 60.5963 57.2336 60.0039 57.5196C59.4114 57.8056 58.76 57.9533 58.1002 57.9514L58.0965 57.9565Z" fill="#5A8835"/>
<path d="M112.342 85.12H0.325034C0.23883 85.12 0.156156 85.0863 0.0952 85.0263C0.0342443 84.9662 0 84.8849 0 84.8V0.32C0 0.235131 0.0342443 0.153737 0.0952 0.0937256C0.156156 0.0337139 0.23883 0 0.325034 0H56.3333C56.4195 0 56.5022 0.0337139 56.5632 0.0937256C56.6241 0.153737 56.6584 0.235131 56.6584 0.32C56.6584 0.404869 56.6241 0.486263 56.5632 0.546274C56.5022 0.606286 56.4195 0.64 56.3333 0.64H0.650068V84.48H112.017V42.56C112.017 42.4751 112.051 42.3937 112.112 42.3337C112.173 42.2737 112.255 42.24 112.342 42.24C112.428 42.24 112.511 42.2737 112.571 42.3337C112.632 42.3937 112.667 42.4751 112.667 42.56V84.8C112.667 84.8849 112.632 84.9662 112.571 85.0263C112.511 85.0863 112.428 85.12 112.342 85.12Z" fill="#3F3D56"/>
<path d="M158.801 109.875C158.673 109.875 158.545 109.858 158.42 109.825C158.235 109.777 158.061 109.692 157.908 109.577C157.756 109.462 157.628 109.318 157.532 109.154L152.332 100.286C152.236 100.122 152.173 99.9415 152.148 99.754C152.123 99.5666 152.136 99.376 152.186 99.1934C152.235 99.0107 152.321 98.8395 152.438 98.6895C152.555 98.5394 152.701 98.4136 152.867 98.319L175.386 85.519C176.917 84.6491 178.735 84.4134 180.442 84.8637C182.149 85.314 183.605 86.4134 184.488 87.9201C185.372 89.4268 185.611 91.2174 185.154 92.898C184.697 94.5785 183.58 96.0113 182.049 96.8812L159.53 109.681C159.309 109.808 159.057 109.875 158.801 109.875Z" fill="#2F2E41"/>
<path d="M249.675 160H125.837C125.751 160 125.668 159.966 125.607 159.906C125.546 159.846 125.512 159.765 125.512 159.68C125.512 159.595 125.546 159.514 125.607 159.454C125.668 159.394 125.751 159.36 125.837 159.36H249.675C249.761 159.36 249.844 159.394 249.905 159.454C249.966 159.514 250 159.595 250 159.68C250 159.765 249.966 159.846 249.905 159.906C249.844 159.966 249.761 160 249.675 160Z" fill="#3F3D56"/>
<path d="M204.206 128.768C204.026 129.127 203.743 129.428 203.393 129.633C203.043 129.839 202.64 129.941 202.233 129.926L197.439 129.753C196.879 129.732 196.351 129.493 195.969 129.089C195.588 128.685 195.385 128.149 195.405 127.598L196.786 90.6196C196.808 90.0368 196.946 89.4638 197.192 88.9335C197.439 88.4032 197.789 87.9259 198.223 87.5289C198.657 87.1319 199.167 86.823 199.722 86.6197C200.277 86.4165 200.868 86.3229 201.46 86.3443C202.052 86.3657 202.634 86.5018 203.173 86.7446C203.711 86.9875 204.196 87.3324 204.599 87.7597C205.002 88.187 205.316 88.6883 205.523 89.235C205.729 89.7817 205.824 90.3631 205.802 90.946L204.422 127.924C204.411 128.217 204.338 128.505 204.206 128.768Z" fill="#5A8835"/>
<path d="M205.789 116.96H195.388C195 116.959 194.628 116.808 194.354 116.538C194.08 116.268 193.926 115.902 193.925 115.52V89.9199C193.925 88.18 194.627 86.5115 195.877 85.2812C197.126 84.051 198.821 83.3599 200.588 83.3599C202.356 83.3599 204.05 84.051 205.3 85.2812C206.55 86.5115 207.252 88.18 207.252 89.9199V115.52C207.251 115.902 207.097 116.268 206.823 116.538C206.549 116.808 206.177 116.959 205.789 116.96Z" fill="#2F2E41"/>
</svg>
