<svg width="260" height="198" viewBox="0 0 260 198" fill="none" xmlns="http://www.w3.org/2000/svg">
<g clip-path="url(#clip0_203_751)">
<path d="M104.039 41.0606H103.09V15.0527C103.09 13.076 102.701 11.1186 101.946 9.29229C101.19 7.46601 100.082 5.80661 98.6858 4.40884C97.2893 3.01107 95.6315 1.90229 93.8069 1.14582C91.9823 0.389354 90.0267 1.67486e-06 88.0518 0H33.0018C29.0133 -7.61054e-06 25.1882 1.58589 22.3679 4.40881C19.5476 7.23173 17.9631 11.0604 17.9631 15.0527V157.734C17.9631 159.711 18.3521 161.668 19.1079 163.495C19.8636 165.321 20.9714 166.98 22.3678 168.378C23.7643 169.776 25.4222 170.885 27.2467 171.641C29.0713 172.398 31.0269 172.787 33.0018 172.787H88.0518C92.0403 172.787 95.8654 171.201 98.6857 168.378C101.506 165.555 103.09 161.727 103.09 157.734V59.5735H104.039V41.0606Z" fill="#3F3D56"/>
<path d="M88.6586 3.91602H81.4728C81.8032 4.72695 81.9294 5.60678 81.8401 6.47801C81.7508 7.34923 81.4488 8.18511 80.9608 8.91201C80.4727 9.6389 79.8136 10.2345 79.0414 10.6464C78.2692 11.0582 77.4076 11.2736 76.5327 11.2737H44.9952C44.1202 11.2736 43.2587 11.0582 42.4865 10.6464C41.7143 10.2345 41.0551 9.63891 40.5671 8.91201C40.079 8.18512 39.7771 7.34924 39.6878 6.47801C39.5985 5.60679 39.7246 4.72695 40.0551 3.91602H33.3435C31.8687 3.91601 30.4083 4.20678 29.0457 4.7717C27.6831 5.33662 26.4451 6.16464 25.4022 7.20848C24.3593 8.25232 23.5321 9.49153 22.9677 10.8554C22.4033 12.2192 22.1128 13.681 22.1128 15.1572V157.629C22.1128 159.106 22.4033 160.567 22.9677 161.931C23.5321 163.295 24.3593 164.534 25.4022 165.578C26.4451 166.622 27.6831 167.45 29.0457 168.015C30.4083 168.58 31.8687 168.871 33.3435 168.871H88.6586C90.1335 168.871 91.5938 168.58 92.9564 168.015C94.319 167.45 95.5571 166.622 96.5999 165.578C97.6428 164.534 98.47 163.295 99.0344 161.931C99.5988 160.567 99.8893 159.106 99.8893 157.629V15.1572C99.8893 13.681 99.5988 12.2192 99.0344 10.8554C98.47 9.49153 97.6428 8.25232 96.5999 7.20848C95.5571 6.16464 94.319 5.33662 92.9564 4.7717C91.5938 4.20678 90.1335 3.91601 88.6586 3.91602Z" fill="white"/>
<path d="M121.684 172.812H0.318543C0.23406 172.812 0.153037 172.778 0.093299 172.718C0.0335605 172.658 0 172.577 0 172.493C0 172.408 0.0335605 172.327 0.093299 172.267C0.153037 172.207 0.23406 172.174 0.318543 172.174H121.684C121.768 172.174 121.849 172.207 121.909 172.267C121.969 172.327 122.002 172.408 122.002 172.493C122.002 172.577 121.969 172.658 121.909 172.718C121.849 172.778 121.768 172.812 121.684 172.812Z" fill="#CBCBCB"/>
<path d="M61.0011 110.217C75.8574 110.217 87.9009 98.1623 87.9009 83.2921C87.9009 68.4219 75.8574 56.3672 61.0011 56.3672C46.1448 56.3672 34.1013 68.4219 34.1013 83.2921C34.1013 98.1623 46.1448 110.217 61.0011 110.217Z" fill="#5A8835"/>
<path d="M58.3354 93.5631C57.7303 93.5641 57.1412 93.3682 56.657 93.0048L56.627 92.9822L50.3052 88.1417C50.0124 87.9171 49.7667 87.6369 49.5821 87.3172C49.3975 86.9974 49.2776 86.6444 49.2293 86.2783C49.181 85.9123 49.2052 85.5402 49.3005 85.1835C49.3958 84.8267 49.5604 84.4923 49.7849 84.1992C50.0094 83.9062 50.2893 83.6602 50.6087 83.4755C50.9281 83.2907 51.2808 83.1707 51.6465 83.1223C52.0123 83.074 52.384 83.0982 52.7404 83.1936C53.0968 83.2891 53.4309 83.4538 53.7237 83.6785L57.8185 86.8215L67.4946 74.1861C67.719 73.8932 67.9988 73.6473 68.3181 73.4626C68.6374 73.2779 68.9899 73.158 69.3555 73.1097C69.7211 73.0613 70.0926 73.0855 70.4489 73.1809C70.8051 73.2763 71.1391 73.441 71.4318 73.6656L71.4326 73.6662L71.3726 73.7496L71.4342 73.6662C72.0247 74.1204 72.411 74.7905 72.5084 75.5295C72.6058 76.2685 72.4063 77.0159 71.9537 77.6078L60.5725 92.4632C60.3091 92.8055 59.9706 93.0824 59.5831 93.2726C59.1956 93.4628 58.7695 93.5611 58.3379 93.5598L58.3354 93.5631Z" fill="white"/>
<path d="M221.147 175.458C221.474 174.929 221.86 174.437 222.296 173.993C222.476 173.806 222.665 173.63 222.861 173.459C224.05 172.4 225.5 171.676 227.061 171.363C228.623 171.051 230.239 171.16 231.744 171.679C233.25 172.199 234.589 173.111 235.626 174.321C236.662 175.53 237.358 176.995 237.642 178.563C238.956 173.7 235.536 168.91 232.097 165.231C228.657 161.552 224.725 157.517 224.745 152.477C224.755 149.673 226.125 147.171 228.195 145.316C228.259 145.26 228.322 145.204 228.387 145.15C230.889 143.004 234.107 141.881 237.398 142.007C243.514 142.334 248.854 146.449 252.563 151.329C258.532 159.181 261.147 170.203 256.969 179.141C253.293 187.003 245.454 191.671 237.453 195.424C236.336 195.948 235.221 196.457 234.108 196.949C234.101 196.951 234.093 196.957 234.085 196.959C234.032 196.982 233.978 197.006 233.928 197.03C233.698 197.131 233.469 197.233 233.241 197.333L233.346 197.402L233.675 197.615C233.561 197.546 233.448 197.479 233.334 197.41C233.3 197.389 233.265 197.369 233.231 197.348C229.301 194.988 225.317 192.492 222.602 188.807C219.787 184.982 218.655 179.502 221.147 175.458Z" fill="#F1F1F1"/>
<path d="M247.364 166.574C248.234 168.555 248.811 170.653 249.077 172.801C249.285 174.716 249.207 176.652 248.844 178.544C248.063 182.432 246.362 186.076 243.882 189.169C242.011 191.517 239.851 193.618 237.453 195.424C236.336 195.948 235.221 196.457 234.108 196.949C234.101 196.951 234.093 196.957 234.085 196.959C234.032 196.982 233.978 197.006 233.928 197.03C233.698 197.131 233.469 197.233 233.241 197.333L233.346 197.402L233.675 197.615C233.561 197.546 233.448 197.479 233.334 197.41C233.3 197.389 233.265 197.369 233.231 197.348C234.096 194.32 234.223 191.129 233.602 188.042C232.98 184.955 231.629 182.062 229.661 179.606C227.682 177.18 225.158 175.257 222.296 173.993C222.476 173.806 222.665 173.63 222.861 173.459C223.964 173.966 225.019 174.569 226.016 175.262C229.579 177.728 232.255 181.276 233.647 185.382C234.89 189.107 235.046 193.11 234.095 196.921C234.292 196.791 234.49 196.659 234.683 196.527C238.343 194.056 241.717 191.089 244.258 187.45C246.45 184.374 247.853 180.806 248.343 177.06C248.83 172.968 247.807 168.945 245.982 165.293C243.966 161.387 241.427 157.775 238.433 154.558C235.427 151.252 232.028 148.326 228.311 145.847C228.228 145.79 228.169 145.703 228.147 145.605C228.125 145.506 228.142 145.403 228.195 145.316C228.234 145.237 228.304 145.178 228.387 145.15C228.43 145.139 228.474 145.138 228.517 145.146C228.56 145.155 228.601 145.173 228.636 145.2C229.095 145.506 229.549 145.816 229.999 146.134C233.741 148.786 237.14 151.894 240.117 155.385C242.994 158.751 245.612 162.49 247.364 166.574Z" fill="white"/>
<path d="M167.249 12.5021C170.404 12.5021 172.961 9.94205 172.961 6.78402C172.961 3.626 170.404 1.06592 167.249 1.06592C164.094 1.06592 161.536 3.626 161.536 6.78402C161.536 9.94205 164.094 12.5021 167.249 12.5021Z" fill="#F1F1F1"/>
<path d="M238.284 89.0237C240.207 89.0237 241.767 87.4629 241.767 85.5375C241.767 83.6121 240.207 82.0513 238.284 82.0513C236.36 82.0513 234.801 83.6121 234.801 85.5375C234.801 87.4629 236.36 89.0237 238.284 89.0237Z" fill="#F1F1F1"/>
<path d="M136.35 98.5886C138.274 98.5886 139.833 97.0278 139.833 95.1024C139.833 93.177 138.274 91.6162 136.35 91.6162C134.426 91.6162 132.867 93.177 132.867 95.1024C132.867 97.0278 134.426 98.5886 136.35 98.5886Z" fill="#F1F1F1"/>
<path d="M138.316 198H259.681C259.766 198 259.847 197.966 259.907 197.907C259.966 197.847 260 197.766 260 197.681C260 197.597 259.966 197.515 259.907 197.456C259.847 197.396 259.766 197.362 259.681 197.362H138.316C138.232 197.362 138.151 197.396 138.091 197.456C138.031 197.515 137.998 197.597 137.998 197.681C137.998 197.766 138.031 197.847 138.091 197.907C138.151 197.966 138.232 198 138.316 198Z" fill="#CBCBCB"/>
<path d="M246.288 30.811C246.447 29.6786 246.186 28.5269 245.554 27.5743C244.922 26.6217 243.962 25.9343 242.857 25.6425C241.753 25.3506 240.579 25.4745 239.56 25.9907C238.54 26.5069 237.745 27.3796 237.325 28.4433L227.477 39.7444L230.367 47.8228L240.271 34.6179C240.917 34.8251 241.601 34.888 242.274 34.802C242.948 34.7161 243.594 34.4835 244.167 34.1205C244.741 33.7576 245.228 33.2731 245.595 32.7014C245.961 32.1296 246.198 31.4843 246.288 30.811Z" fill="#FFB7B7"/>
<path d="M205.465 74.7836L238.156 39.8613L233.747 32.8442L192.743 67.5545L205.465 74.7836Z" fill="#3F3D56"/>
<path d="M198.168 53.5654C204.502 53.5654 209.636 48.4264 209.636 42.0871C209.636 35.7479 204.502 30.6089 198.168 30.6089C191.835 30.6089 186.701 35.7479 186.701 42.0871C186.701 48.4264 191.835 53.5654 198.168 53.5654Z" fill="#2F2E41"/>
<path d="M199.09 35.6028C201.558 33.0982 204.544 31.1653 207.838 29.9405C209.953 29.1563 212.255 28.6718 214.466 29.1172C216.676 29.5625 218.767 31.0933 219.384 33.2646C219.888 35.04 219.368 36.9515 218.585 38.6228C217.802 40.2941 216.757 41.8439 216.124 43.5776C215.478 45.3465 215.284 47.2489 215.559 49.112C215.834 50.9751 216.57 52.74 217.699 54.2464C218.828 55.7529 220.316 56.9531 222.026 57.7382C223.736 58.5234 225.615 58.8685 227.493 58.7424C225.321 59.0339 223.318 60.0557 221.195 60.5996C219.072 61.1434 216.566 61.1065 214.988 59.584C213.318 57.9731 213.285 55.3539 213.366 53.0342C213.486 49.586 213.606 46.1377 213.726 42.6894C213.787 40.9309 213.839 39.116 213.205 37.4746C212.572 35.8333 211.066 34.396 209.308 34.4109C207.976 34.4223 206.796 35.2301 205.728 36.0268C204.66 36.8235 203.529 37.6736 202.202 37.7921C200.875 37.9106 199.359 36.9275 199.459 35.5976L199.09 35.6028Z" fill="#2F2E41"/>
<path d="M154.614 119.158C153.513 119.464 152.338 119.355 151.312 118.852C150.286 118.349 149.479 117.487 149.046 116.429C148.612 115.371 148.582 114.19 148.96 113.111C149.338 112.032 150.098 111.129 151.097 110.573L161.004 99.3232L169.383 101.135L157.598 112.689C157.888 113.304 158.039 113.974 158.042 114.653C158.045 115.333 157.899 116.004 157.615 116.621C157.33 117.238 156.914 117.784 156.395 118.223C155.877 118.661 155.269 118.98 154.614 119.158H154.614Z" fill="#FFB7B7"/>
<path d="M187.207 78.8827L162.515 109.906L154.989 106.447L184.011 61.2212L187.207 78.8827Z" fill="#3F3D56"/>
<path d="M167.505 172.56L161.621 172.468L162.328 192.544H167.504L167.505 172.56Z" fill="#FFB7B7"/>
<path d="M168.825 190.852L158.631 190.852H158.631C156.908 190.852 155.255 191.537 154.037 192.756C152.819 193.976 152.134 195.629 152.134 197.354V197.565L168.824 197.566L168.825 190.852Z" fill="#2F2E41"/>
<path d="M206.469 167.235L200.04 171.366L212.899 186.851L217.255 184.052L206.469 167.235Z" fill="#FFB7B7"/>
<path d="M217.453 181.914L208.875 187.426L208.875 187.427C207.425 188.358 206.404 189.828 206.037 191.513C205.67 193.198 205.987 194.96 206.918 196.411L207.032 196.589L221.077 187.564L217.453 181.914Z" fill="#2F2E41"/>
<path d="M208.759 105.932C208.759 105.932 194.476 58.4477 189.885 57.806C185.295 57.1643 177.899 69.9899 177.899 69.9899C168.31 82.236 158.422 121.904 158.422 121.904C158.422 121.904 174.906 122.936 186.955 129.353C199.005 135.77 213.225 129.028 213.225 129.028L208.759 105.932Z" fill="#3F3D56"/>
<path opacity="0.1" d="M208.759 105.932C208.759 105.932 194.476 58.4475 189.885 57.8058C185.295 57.1641 179.778 70.1198 179.778 70.1198C174.999 89.8879 158.422 121.904 158.422 121.904C158.422 121.904 174.906 122.936 186.955 129.353C199.005 135.77 213.225 129.028 213.225 129.028L208.759 105.932Z" fill="black"/>
<path d="M197.041 91.7248V115.585L199.846 150.149L213.862 176.294L207.172 181.076L188.06 156.207L180.5 131.513L168.629 186.178L159.709 185.54L165.904 109.748L177.658 88.4146L197.041 91.7248Z" fill="#2F2E41"/>
<path d="M182.639 68.6462C178.18 73.11 182.321 77.8926 182.321 77.8926L177.224 89.3709L197.292 94.7912L204.305 63.4242L199.527 58.3227C189.971 58.0039 189.966 57.8057 189.966 57.8057C188.292 59.4457 182.639 68.6462 182.639 68.6462Z" fill="#5A8835"/>
<path d="M205.113 60.1748C204.202 59.5014 203.166 59.0157 202.066 58.7458C200.965 58.4759 199.823 58.4273 198.703 58.6026C197.584 58.778 196.511 59.1739 195.545 59.7674C194.58 60.3609 193.742 61.1402 193.08 62.0602C188.035 69.0913 183.37 80.4449 189.797 94.6048C200.118 117.341 209.099 128.98 212.75 128.979C212.909 128.981 213.068 128.956 213.219 128.905C215.467 128.142 218.716 124.336 219.304 120.981C219.515 119.781 219.465 118.108 218.03 116.96C213.91 113.661 206.512 103.39 204.205 89.8701C202.93 82.3998 205.403 75.595 207.702 71.2021C208.673 69.3844 208.957 67.2773 208.502 65.267C208.047 63.2567 206.883 61.4778 205.224 60.2566L205.113 60.1748Z" fill="#3F3D56"/>
<path d="M198.758 52.4376C202.849 50.1993 204.352 45.0655 202.116 40.9709C199.88 36.8763 194.751 35.3715 190.66 37.6098C186.569 39.8481 185.066 44.9819 187.302 49.0765C189.538 53.1711 194.667 54.6759 198.758 52.4376Z" fill="#FFB7B7"/>
<path d="M182.837 44.385H195.027L195.152 42.6334L195.777 44.385H197.654L197.901 40.9133L199.14 44.385H202.772V44.213C202.769 41.7961 201.808 39.4789 200.101 37.7698C198.394 36.0608 196.078 35.0994 193.664 35.0967H191.945C189.531 35.0994 187.216 36.0607 185.508 37.7698C183.801 39.4789 182.84 41.7961 182.837 44.213V44.385Z" fill="#2F2E41"/>
<path d="M200.93 50.6809L206.132 48.9915V36.3477H196.307L196.55 36.5908C199.934 39.9739 203.698 51.9771 200.93 50.6809Z" fill="#2F2E41"/>
</g>
<defs>
<clipPath id="clip0_203_751">
<rect width="260" height="198" fill="white"/>
</clipPath>
</defs>
</svg>
