<svg width="20" height="20" viewBox="0 0 20 20" fill="none" xmlns="http://www.w3.org/2000/svg">
<g clip-path="url(#clip0_46_207)">
<path d="M16.9306 12.4099C15.6251 11.1044 14.0159 10.2132 12.2626 9.80078L11.1205 10.9429L11.621 17.003C11.6379 17.2086 11.582 17.4135 11.4628 17.5819L10.3208 19.1956C10.2471 19.2997 10.1275 19.3616 9.99993 19.3616C9.87239 19.3616 9.75278 19.2997 9.67907 19.1956L8.53708 17.5819C8.41794 17.4135 8.36192 17.2085 8.37888 17.003L8.87938 10.9429L7.73728 9.80078C5.98392 10.2132 4.37474 11.1044 3.06923 12.4099C1.21802 14.2612 0.198486 16.7225 0.198486 19.3406C0.198486 19.7047 0.493682 19.9999 0.857783 19.9999H19.1422C19.5063 19.9999 19.8015 19.7047 19.8015 19.3406C19.8015 16.7225 18.7819 14.2612 16.9306 12.4099Z" fill="#5A8835"/>
<path d="M10.0001 8.71406C12.4064 8.71406 14.3571 6.76335 14.3571 4.35703C14.3571 1.95071 12.4064 0 10.0001 0C7.59378 0 5.64307 1.95071 5.64307 4.35703C5.64307 6.76335 7.59378 8.71406 10.0001 8.71406Z" fill="#5A8835"/>
</g>
<defs>
<clipPath id="clip0_46_207">
<rect width="20" height="20" fill="white"/>
</clipPath>
</defs>
</svg>
