<svg width="18" height="18" viewBox="0 0 18 18" fill="none" xmlns="http://www.w3.org/2000/svg">
<path d="M2.14286 6.85742C0.961286 6.85742 0 7.81871 0 9.00028C0 10.1819 0.961286 11.1431 2.14286 11.1431C3.32443 11.1431 4.28571 10.1819 4.28571 9.00028C4.28571 7.81871 3.32443 6.85742 2.14286 6.85742Z" fill="#5A8835"/>
<path d="M9.00003 6.85742C7.81846 6.85742 6.85718 7.81871 6.85718 9.00028C6.85718 10.1819 7.81846 11.1431 9.00003 11.1431C10.1816 11.1431 11.1429 10.1819 11.1429 9.00028C11.1429 7.81871 10.1816 6.85742 9.00003 6.85742Z" fill="#5A8835"/>
<path d="M15.8571 6.85742C14.6755 6.85742 13.7142 7.81871 13.7142 9.00028C13.7142 10.1819 14.6755 11.1431 15.8571 11.1431C17.0387 11.1431 17.9999 10.1819 17.9999 9.00028C17.9999 7.81871 17.0387 6.85742 15.8571 6.85742Z" fill="#5A8835"/>
</svg>
