<svg width="18" height="18" viewBox="0 0 18 18" fill="none" xmlns="http://www.w3.org/2000/svg">
<g clip-path="url(#clip0_43_1124)">
<path d="M8.53123 11.7001L8.64405 11.1583C8.97764 9.55571 8.95064 7.95789 8.56364 6.40901L8.42383 5.8501H12.2767L12.1369 6.40929C11.7496 7.95789 11.7229 9.55571 12.0565 11.1586L12.169 11.7001H8.53123Z" fill="#5A8835"/>
<path d="M12.2476 6.02039C12.2782 5.982 13.0064 5.07387 14.1799 4.46247C15.3538 3.85139 16.5154 3.77517 16.5643 3.77246L16.9439 4.50114C16.9133 4.53954 16.1851 5.44766 15.0116 6.05906C14.2855 6.43706 13.5644 6.61164 13.0871 6.69145L13.0589 6.69627L13.0304 6.69746C12.9833 6.69925 12.9464 6.70407 12.9206 6.71156L12.8852 6.72207L12.8489 6.72689C12.709 6.74457 12.6284 6.74939 12.6284 6.74939L11.6237 6.80908L12.2476 6.02039Z" fill="#5A8835"/>
<path d="M5.83116 6.3002L5.94397 5.7584C6.27757 4.1558 6.25057 2.55799 5.86357 1.00911L5.72375 0.450195H9.57667L9.43685 1.00939C9.08765 2.40618 9.03994 3.86928 9.29524 5.3585L9.37115 5.80101L8.92863 5.87811C8.84914 5.89193 8.74382 5.92343 8.67122 5.99479C8.65863 6.02478 8.64601 6.0521 8.6304 6.0785L8.4999 6.3002H5.83116Z" fill="#5A8835"/>
<path d="M8.42383 17.5502L8.56364 16.991C8.95096 15.4424 8.97764 13.8446 8.64405 12.2417L8.53123 11.7002H12.1693L12.0565 12.242C11.7229 13.8446 11.7499 15.4424 12.1369 16.9913L12.2767 17.5505H8.42383V17.5502Z" fill="#5A8835"/>
<path d="M3.15014 7.57214C1.82682 7.57214 0.761236 7.10295 0.716553 7.08316V6.26145C0.761236 6.24166 1.82686 5.77246 3.15014 5.77246C4.47342 5.77246 5.53904 6.24166 5.58372 6.26145L6.50352 6.67246L5.58372 7.08347C5.53904 7.10295 4.47342 7.57214 3.15014 7.57214Z" fill="#5A8835"/>
<path d="M5.72375 17.5502L5.86357 16.991C6.25089 15.4424 6.27757 13.8446 5.94397 12.2417L5.83116 11.7002H8.52996L8.60945 12.0509C8.98446 13.7075 8.96913 15.3698 8.56385 16.991C8.56477 16.9877 8.56565 16.9865 8.56656 16.9865C8.56835 16.9865 8.56955 16.9967 8.57015 17.0069C8.57194 17.0378 8.57373 17.0683 8.57373 17.0992L8.57405 17.5502H5.72375V17.5502Z" fill="#5A8835"/>
<path d="M5.83118 11.6998L5.94399 11.158C6.24219 9.72582 6.24219 8.27351 5.94399 6.84132L5.83118 6.2998H8.52998L8.60947 6.65049C8.96226 8.20928 8.96226 9.79029 8.60947 11.3491L8.52966 11.6998H5.83118V11.6998Z" fill="#5A8835"/>
<path d="M4.98219 5.93241C4.93329 5.93182 3.7693 5.9123 2.56721 5.35852C1.36511 4.80502 0.593815 3.93322 0.561401 3.89602L0.905194 3.1499C0.954378 3.1505 2.1184 3.17001 3.32018 3.72379C4.52228 4.27729 5.29357 5.1491 5.32599 5.18629L5.9896 5.94409L4.98219 5.93241Z" fill="#5A8835"/>
<path d="M17.0869 9.5488C17.038 9.54729 15.8746 9.50651 14.6827 8.93139C14.3614 8.77628 14.0488 8.58668 13.7272 8.35148L13.7011 8.33078C13.5598 8.21047 13.4198 8.09948 13.2844 8.00077L13.2533 7.97587C12.9236 7.68819 12.7328 7.46706 12.7121 7.44277L12.1823 6.82208L13.0345 6.69879L13.1179 6.6958C13.4035 6.71201 14.4166 6.8044 15.4645 7.31019C16.6564 7.88528 17.4121 8.77118 17.4436 8.80869L17.0869 9.5488Z" fill="#5A8835"/>
<path d="M15.0791 12.1099C15.0365 12.0856 14.0255 11.5084 13.2386 10.4443C12.4517 9.38048 12.1952 8.24469 12.1846 8.19698L11.9659 7.20459L12.8476 7.7095C12.8545 7.71341 13.0186 7.80791 13.2565 7.97891L13.2874 8.00352C13.4068 8.10642 13.5484 8.21832 13.7083 8.3362L13.7359 8.3581C14.1013 8.6743 14.4208 9.01602 14.6854 9.37391C15.4723 10.4377 15.7288 11.5732 15.7393 11.6209L15.0791 12.1099Z" fill="#5A8835"/>
<path d="M0.000158525 6.67199C0.000158525 7.02717 0.208952 7.34878 0.532952 7.4937C0.581256 7.51528 1.73174 8.02199 3.15016 8.02199C4.30487 8.02199 5.27117 7.68959 5.62034 7.55307C5.80994 8.86198 5.75264 10.1787 5.42684 11.4816C5.39116 11.625 5.39116 11.775 5.42684 11.9181C5.83845 13.5648 5.83845 15.2349 5.42684 16.8816C5.35966 17.1504 5.41995 17.4354 5.59063 17.6538C5.76132 17.8722 6.02295 18 6.30016 18H11.7002C11.9774 18 12.239 17.8722 12.4096 17.6538C12.5803 17.4354 12.6407 17.1504 12.5734 16.8816C12.1618 15.2349 12.1618 13.5648 12.5734 11.9181C12.6091 11.7747 12.6091 11.6247 12.5734 11.4816C12.4333 10.9215 12.3586 10.3581 12.314 9.79443C12.4652 10.0905 12.6487 10.4031 12.8768 10.7115C13.7201 11.8518 14.8118 12.4755 14.858 12.5013C14.9957 12.579 15.1484 12.6174 15.3002 12.6174C15.4892 12.6174 15.6772 12.558 15.8353 12.441C16.121 12.2298 16.2554 11.8707 16.1791 11.5239C16.1699 11.4813 15.9736 10.6365 15.433 9.70232C16.3225 9.97172 17.0339 9.99661 17.0734 9.9978C17.0824 9.99812 17.0914 9.99812 17.1001 9.99812C17.4448 9.99812 17.7601 9.80103 17.9104 9.4893C18.065 9.16949 18.0166 8.7891 17.7877 8.51762C17.7535 8.47712 16.9376 7.52073 15.6604 6.90451C15.4045 6.7809 15.1519 6.68552 14.9071 6.60393C15.011 6.55713 15.1147 6.51213 15.2192 6.45782C16.477 5.80261 17.2634 4.82193 17.2964 4.78051C17.5169 4.50243 17.5535 4.12052 17.3894 3.80552C17.2336 3.50673 16.9253 3.32132 16.5913 3.32132C16.5733 3.32132 16.5553 3.32191 16.537 3.32283C16.4842 3.32613 15.2296 3.40801 13.972 4.06322C13.0726 4.53182 12.4204 5.16154 12.1063 5.50051C11.9815 5.43691 11.8438 5.4 11.7001 5.4H9.75521C9.49572 3.97501 9.51822 2.5386 9.87341 1.11839C9.94059 0.849586 9.8803 0.564574 9.70961 0.346184C9.53896 0.127793 9.27737 0 9.00016 0H6.30016C6.02295 0 5.76135 0.127793 5.59067 0.346184C5.41999 0.564574 5.35966 0.849586 5.42688 1.11839C5.73829 2.36457 5.81208 3.6237 5.65219 4.87621C5.57119 4.78501 4.75701 3.89011 3.5084 3.31502C2.22045 2.7219 0.96344 2.7006 0.91067 2.7C0.907084 2.7 0.903463 2.7 0.900159 2.7C0.549159 2.7 0.229975 2.90401 0.0826702 3.22351C-0.0658298 3.546 -0.0109157 3.92551 0.222768 4.1928C0.252159 4.22641 0.852768 4.89871 1.81007 5.46511C1.07056 5.61691 0.56417 5.83622 0.53267 5.85032C0.208951 5.9952 0.000158525 6.31709 0.000158525 6.67199ZM13.6004 10.1766C12.8614 9.17761 12.6242 8.1 12.6242 8.1C12.6242 8.1 12.7724 8.1849 12.9941 8.3442C13.1243 8.45638 13.2767 8.5764 13.442 8.69818C13.7243 8.94238 14.0402 9.2571 14.324 9.64107C15.0629 10.6404 15.3002 11.7177 15.3002 11.7177C15.3002 11.7177 14.3393 11.1756 13.6004 10.1766ZM15.2693 7.71539C16.3882 8.25539 17.1002 9.09868 17.1002 9.09868C17.1002 9.09868 15.9973 9.06599 14.8784 8.52599C14.5418 8.36367 14.2478 8.17439 13.993 7.9881C13.8314 7.85011 13.6814 7.73279 13.5497 7.6371C13.2452 7.371 13.0727 7.1718 13.0547 7.15078C13.0678 7.14867 13.0793 7.1472 13.0931 7.14509C13.3034 7.15711 14.2781 7.23691 15.2693 7.71539ZM14.3879 4.86151C15.49 4.28762 16.5913 4.22132 16.5913 4.22132C16.5913 4.22132 15.9058 5.08591 14.8036 5.6598C14.1179 6.0171 13.4327 6.1773 13.0126 6.24751C12.9373 6.2505 12.863 6.25922 12.7921 6.28021C12.6703 6.29582 12.6002 6.3 12.6002 6.3C12.6002 6.3 13.2857 5.4354 14.3879 4.86151ZM9.00016 17.1C9.41265 15.45 9.42826 13.8 9.08446 12.15H11.6159C11.2721 13.8 11.2877 15.45 11.7002 17.1C10.8002 17.1 9.90016 17.1 9.00016 17.1ZM11.7002 6.3C11.2877 7.94999 11.2721 9.60001 11.6159 11.25H9.08446C9.42826 9.60001 9.41265 7.94999 9.00016 6.3C9.90016 6.3 10.8002 6.3 11.7002 6.3ZM9.00016 0.9C8.62216 2.4114 8.59245 3.9228 8.85166 5.43421C8.63355 5.47232 8.42926 5.56861 8.29067 5.7459C8.26666 5.7768 8.26188 5.81639 8.24236 5.84972H6.38446C6.72826 4.20001 6.71265 2.55002 6.30016 0.900035C7.20016 0.9 8.10016 0.9 9.00016 0.9ZM6.38446 6.75H8.17037C8.50878 8.2446 8.50878 9.7554 8.17037 11.25H6.38446C6.69707 9.74999 6.69707 8.25001 6.38446 6.75ZM6.38446 12.15H8.17037C8.52618 13.7217 8.51957 15.312 8.12716 16.8816C8.10916 16.9542 8.12326 17.0268 8.12326 17.1C7.51544 17.1 6.90794 17.1 6.30016 17.1C6.71265 15.45 6.72826 13.8 6.38446 12.15ZM0.900159 3.6C0.900159 3.6 2.00326 3.61259 3.13216 4.13251C4.26074 4.6524 4.98767 5.48251 4.98767 5.48251C4.98767 5.48251 3.88457 5.46993 2.75567 4.95C1.62677 4.43007 0.900159 3.6 0.900159 3.6ZM3.15016 6.22199C4.39276 6.22199 5.40016 6.67199 5.40016 6.67199C5.40016 6.67199 4.39276 7.12199 3.15016 7.12199C1.90756 7.12199 0.900159 6.67199 0.900159 6.67199C0.900159 6.67199 1.90756 6.22199 3.15016 6.22199Z" fill="#5A8835"/>
</g>
<defs>
<clipPath id="clip0_43_1124">
<rect width="18" height="18" fill="white"/>
</clipPath>
</defs>
</svg>
