<svg width="16" height="16" viewBox="0 0 16 16" fill="none" xmlns="http://www.w3.org/2000/svg">
<g clip-path="url(#clip0_289_1364)">
<path d="M15.7983 14.8659L11.2077 10.2683C12.1127 9.18202 12.657 7.79386 12.657 6.2777C12.657 2.81878 9.82068 0.00634766 6.3318 0.00634766C2.84291 0.00634766 0 2.82206 0 6.28099C0 9.73991 2.83636 12.5523 6.32524 12.5523C7.80736 12.5523 9.17143 12.0437 10.2535 11.1937L14.8605 15.8045C15.1294 16.0736 15.5295 16.0736 15.7983 15.8045C16.0672 15.5354 16.0672 15.1351 15.7983 14.8659ZM1.3444 6.28099C1.3444 3.56373 3.58069 1.35513 6.32524 1.35513C9.06978 1.35513 11.3061 3.56373 11.3061 6.28099C11.3061 8.99825 9.06978 11.2068 6.32524 11.2068C3.58069 11.2068 1.3444 8.99496 1.3444 6.28099Z" fill="#606060"/>
</g>
<defs>
<clipPath id="clip0_289_1364">
<rect width="16" height="16" fill="white"/>
</clipPath>
</defs>
</svg>
