<svg width="16" height="16" viewBox="0 0 16 16" fill="none" xmlns="http://www.w3.org/2000/svg">
<g clip-path="url(#clip0_38_226)">
<path d="M15 9.0002C15.001 8.49953 14.8767 8.00656 14.6384 7.56624C14.4001 7.12591 14.0554 6.75223 13.6357 6.47926C13.2159 6.20628 12.7346 6.04269 12.2354 6.00339C11.7363 5.9641 11.2353 6.05035 10.778 6.25429C10.3208 6.45823 9.92182 6.77336 9.61755 7.17098C9.31328 7.56859 9.11336 8.03603 9.03601 8.53069C8.95867 9.02536 9.00636 9.53152 9.17473 10.003C9.34311 10.4745 9.62681 10.8964 9.99999 11.2302V15.0002L12 14.0539L14 15.0002V11.2302C14.3143 10.9499 14.5659 10.6063 14.7382 10.222C14.9106 9.83774 14.9998 9.42137 15 9.0002ZM13 13.4202L12 12.9469L11 13.4202V11.8252C11.6462 12.0586 12.3538 12.0586 13 11.8252V13.4202ZM12 11.0002C11.6044 11.0002 11.2178 10.8829 10.8889 10.6631C10.56 10.4434 10.3036 10.131 10.1522 9.76557C10.0009 9.40012 9.96125 8.99799 10.0384 8.61002C10.1156 8.22206 10.3061 7.8657 10.5858 7.58599C10.8655 7.30629 11.2219 7.1158 11.6098 7.03863C11.9978 6.96146 12.3999 7.00107 12.7654 7.15244C13.1308 7.30382 13.4432 7.56017 13.6629 7.88906C13.8827 8.21796 14 8.60464 14 9.0002C13.9994 9.53045 13.7885 10.0388 13.4136 10.4138C13.0386 10.7887 12.5302 10.9996 12 11.0002Z" fill="black"/>
<path d="M8 7H4.5V8H8V7Z" fill="black"/>
<path d="M9.5 4H4.5V5H9.5V4Z" fill="black"/>
<path d="M3 15C2.73487 14.9997 2.48068 14.8943 2.2932 14.7068C2.10572 14.5193 2.00028 14.2651 2 14V2C2.00028 1.73487 2.10572 1.48068 2.2932 1.2932C2.48068 1.10572 2.73487 1.00028 3 1H11C11.2651 1.00028 11.5193 1.10572 11.7068 1.2932C11.8943 1.48068 11.9997 1.73487 12 2V4H11V2H3V14H8V15H3Z" fill="black"/>
</g>
<defs>
<clipPath id="clip0_38_226">
<rect width="16" height="16" fill="white"/>
</clipPath>
</defs>
</svg>
