<svg width="16" height="11" viewBox="0 0 16 11" fill="none" xmlns="http://www.w3.org/2000/svg">
<g clip-path="url(#clip0_38_218)">
<path d="M2.45442 9.07542C2.73715 9.07542 3.00316 9.01454 3.24375 8.90855C3.38987 9.33049 3.61924 9.80759 3.97881 10.2416C3.51706 10.471 3.00013 10.5996 2.45407 10.5996H1.13776C0.738254 10.5996 0.4 10.2666 0.4 9.83769C0.4 9.40856 0.738143 9.07542 1.13776 9.07542H2.45442Z" stroke="black" stroke-width="0.8"/>
<path d="M13.9099 9.07526L13.9095 9.07562H14.8615C15.2612 9.07562 15.5993 9.40884 15.5993 9.83753C15.5993 10.2662 15.2612 10.5994 14.8615 10.5994H13.5452C12.5768 10.5994 11.6976 10.1961 11.0596 9.54103L10.7731 9.24681L10.4865 9.54103C9.84849 10.1961 8.96932 10.5994 8.00087 10.5994C6.07316 10.5994 4.48954 8.99473 4.48954 7.00507V4.81559C4.48954 4.38679 4.82771 4.05368 5.22765 4.05368C5.62758 4.05368 5.96576 4.38679 5.96576 4.81559V7.00507C5.96576 8.14091 6.88474 9.07526 8.00122 9.07526C9.11715 9.07526 10.0109 8.1628 10.0349 7.0503L10.0351 7.04041L10.0348 7.03051L10.0344 7.01758L10.034 7.00902C10.034 7.00797 10.034 7.00714 10.034 7.00647C10.034 7.00568 10.0341 7.00463 10.0342 7.00329L10.0346 6.99715L10.0351 6.98861C10.0355 6.98228 10.036 6.97384 10.0364 6.96432L10.0367 6.9568V6.94927V4.81524C10.0367 4.38643 10.3749 4.05332 10.7748 4.05332C11.1747 4.05332 11.5129 4.38643 11.5129 4.81524V7.00226C11.5129 7.00304 11.5128 7.0043 11.5127 7.00619L11.5127 7.00726C11.5125 7.01291 11.5119 7.02662 11.5119 7.04168H11.5118L11.512 7.0503C11.5359 8.1628 12.4297 9.07526 13.5456 9.07526H13.9099Z" stroke="black" stroke-width="0.8"/>
<path d="M11.3352 0.46671C11.7606 0.646654 11.9713 1.15016 11.7896 1.59811C11.6079 2.04605 11.1103 2.24994 10.6849 2.07C10.2596 1.89005 10.0489 1.38655 10.2305 0.9386C10.4122 0.490654 10.9098 0.286767 11.3352 0.46671Z" stroke="black" stroke-width="0.8"/>
<path d="M6.07052 1.2689C6.07052 1.75675 5.68543 2.13781 5.228 2.13781C4.77056 2.13781 4.38547 1.75675 4.38547 1.2689C4.38547 0.781057 4.77056 0.4 5.228 0.4C5.68543 0.4 6.07052 0.781057 6.07052 1.2689Z" stroke="black" stroke-width="0.8"/>
</g>
<defs>
<clipPath id="clip0_38_218">
<rect width="16" height="11" fill="white"/>
</clipPath>
</defs>
</svg>
